<svg width="27" height="27" viewBox="0 0 27 27" fill="none" xmlns="http://www.w3.org/2000/svg">
<path d="M21.0938 14.3438L4.21875 14.3437C3.99497 14.3437 3.78036 14.2549 3.62213 14.0966C3.46389 13.9384 3.375 13.7238 3.375 13.5C3.375 13.2762 3.46389 13.0616 3.62213 12.9034C3.78036 12.7451 3.99497 12.6562 4.21875 12.6562L21.0938 12.6562C21.3175 12.6562 21.5321 12.7451 21.6904 12.9034C21.8486 13.0616 21.9375 13.2762 21.9375 13.5C21.9375 13.7238 21.8486 13.9384 21.6904 14.0966C21.5321 14.2549 21.3175 14.3438 21.0938 14.3438Z" fill="black"/>
<path d="M20.7444 13.5L13.7463 6.50363C13.5879 6.34519 13.4989 6.13031 13.4989 5.90625C13.4989 5.68219 13.5879 5.46731 13.7463 5.30888C13.9048 5.15044 14.1196 5.06144 14.3437 5.06144C14.5678 5.06144 14.7826 5.15044 14.9411 5.30888L22.5348 12.9026C22.6134 12.981 22.6757 13.0741 22.7183 13.1766C22.7608 13.2791 22.7827 13.389 22.7827 13.5C22.7827 13.611 22.7608 13.7209 22.7183 13.8234C22.6757 13.9259 22.6134 14.019 22.5348 14.0974L14.9411 21.6911C14.7826 21.8496 14.5678 21.9386 14.3437 21.9386C14.1196 21.9386 13.9048 21.8496 13.7463 21.6911C13.5879 21.5327 13.4989 21.3178 13.4989 21.0938C13.4989 20.8697 13.5879 20.6548 13.7463 20.4964L20.7444 13.5Z" fill="black"/>
</svg>
