<svg width="327" height="62" viewBox="0 0 327 62" fill="none" xmlns="http://www.w3.org/2000/svg">
<g filter="url(#filter0_g_8_31)">
<rect x="1" y="1" width="325" height="60" rx="29" fill="#988E86" fill-opacity="0.5"/>
<rect x="2.5" y="2.5" width="322" height="57" rx="27.5" stroke="black" stroke-width="3"/>
<path d="M127.115 38.68C127.515 38.68 127.715 38.96 127.635 39.28C127.395 40.52 126.835 43.24 126.635 44.48C126.555 44.84 126.235 45.08 125.755 45.08C123.675 45.04 122.995 45 120.915 45C118.835 45 116.595 45.04 114.515 45.08C114.075 45.08 113.795 44.8 113.795 44.44C113.795 44.16 113.995 43.88 114.395 43.8C116.315 43.56 116.435 41.68 116.435 39.96V21.76C116.435 20.2 116.475 18.48 114.475 18.24C114.035 18.2 113.835 17.92 113.835 17.6C113.835 17.24 114.155 16.92 114.635 16.96C115.555 17 116.675 17 117.555 17C118.435 17 119.555 17.04 120.475 16.96C120.955 16.96 121.275 17.24 121.275 17.6C121.275 17.92 121.075 18.2 120.635 18.24C118.675 18.48 118.675 20.2 118.675 21.76V40.2C118.675 43 119.355 43.96 121.915 43.96C125.635 43.96 125.995 41.6 126.555 39.12C126.635 38.88 126.835 38.68 127.115 38.68ZM136.665 40V38.8C136.665 38.68 136.585 38.56 136.385 38.56C133.665 38.56 131.425 38.6 131.425 40.8C131.425 42 131.505 43.52 133.505 43.52C135.185 43.52 136.665 41.56 136.665 40ZM141.425 42.8C141.625 42.92 141.705 43.2 141.585 43.36C140.905 44.32 139.545 45.68 138.345 45.68C137.345 45.68 136.945 44.44 136.785 43.56C136.745 43.36 136.425 43.24 136.265 43.48C135.385 44.56 134.025 45.68 132.305 45.68C129.985 45.68 129.305 42.88 129.305 41.52C129.305 38.12 131.225 37.52 136.385 37.48C136.585 37.48 136.665 37.36 136.665 37.2V32.32C136.665 31 136.585 28.56 134.265 28.56C132.905 28.56 131.425 30.52 132.225 32.44C132.385 32.84 131.705 33.6 130.945 33.6C130.025 33.6 129.625 32.84 129.625 32.12C129.625 30.44 131.105 29.08 132.625 27.96C133.385 27.4 134.265 26.64 135.385 26.64C138.065 26.64 138.785 29.4 138.785 31V41.08C138.785 42.44 138.985 43.2 139.545 43.32C139.945 43.44 140.305 43.28 140.705 42.88C140.905 42.68 141.185 42.64 141.425 42.8ZM167.179 23.52C167.179 25.76 166.339 28.48 163.379 29.64C163.179 29.72 163.219 29.92 163.419 29.92C167.739 30.64 169.019 34.72 169.019 37.4C169.019 40.96 167.139 45.04 161.619 45.04C160.499 45.04 159.299 45 158.099 45C157.099 45 156.099 45 155.139 45.04C154.739 45.04 154.459 44.8 154.459 44.4C154.459 44.08 154.619 43.8 154.979 43.76C156.819 43.48 156.819 41.96 156.819 40.4V21.24C156.819 19.76 156.899 18.44 155.019 18.12C154.699 18.08 154.459 17.84 154.459 17.48C154.459 17.12 154.739 16.84 155.179 16.84C155.979 16.88 156.819 16.88 157.579 16.88C158.699 16.88 159.779 16.88 160.859 16.8C165.699 16.8 167.179 20.44 167.179 23.52ZM159.059 18.96V28.84C159.059 29.24 159.299 29.48 159.699 29.48H160.419C164.459 29.48 164.979 25.88 164.979 23.52C164.979 21 164.459 18.04 160.259 18.04C159.499 18.04 159.059 18.44 159.059 18.96ZM159.059 31.16V40.72C159.059 42.96 159.099 43.96 161.819 43.96C165.819 43.96 166.619 40.24 166.619 37.8C166.619 34.96 165.739 30.6 161.059 30.6H159.619C159.259 30.6 159.059 30.88 159.059 31.16ZM178.188 40V38.8C178.188 38.68 178.108 38.56 177.908 38.56C175.188 38.56 172.948 38.6 172.948 40.8C172.948 42 173.028 43.52 175.028 43.52C176.708 43.52 178.188 41.56 178.188 40ZM182.948 42.8C183.148 42.92 183.228 43.2 183.108 43.36C182.428 44.32 181.068 45.68 179.868 45.68C178.868 45.68 178.468 44.44 178.308 43.56C178.268 43.36 177.948 43.24 177.788 43.48C176.908 44.56 175.548 45.68 173.828 45.68C171.508 45.68 170.828 42.88 170.828 41.52C170.828 38.12 172.748 37.52 177.908 37.48C178.108 37.48 178.188 37.36 178.188 37.2V32.32C178.188 31 178.108 28.56 175.788 28.56C174.428 28.56 172.948 30.52 173.748 32.44C173.908 32.84 173.228 33.6 172.468 33.6C171.548 33.6 171.148 32.84 171.148 32.12C171.148 30.44 172.628 29.08 174.148 27.96C174.908 27.4 175.788 26.64 176.908 26.64C179.588 26.64 180.308 29.4 180.308 31V41.08C180.308 42.44 180.508 43.2 181.068 43.32C181.468 43.44 181.828 43.28 182.228 42.88C182.428 42.68 182.708 42.64 182.948 42.8ZM197.268 43.72C197.668 43.8 197.828 44.08 197.828 44.36C197.828 44.76 197.508 45.04 197.028 45.04C196.388 45 195.468 45 194.828 45C194.148 45 193.348 45 192.628 45.04C192.148 45.04 191.868 44.76 191.868 44.36C191.868 44.04 192.108 43.8 192.508 43.72C193.868 43.52 193.788 42.24 193.788 41V35.16C193.788 33.32 194.108 29.04 191.428 29.04C190.508 29.04 187.948 30.84 187.948 31.92V41C187.948 42.2 187.868 43.48 189.268 43.72C189.668 43.8 189.868 44.04 189.868 44.4C189.868 44.76 189.548 45.04 189.068 45.04C188.428 45 187.588 45 186.908 45C186.228 45 185.468 45 184.788 45.04C184.308 45.04 183.988 44.76 183.988 44.44C183.948 44.08 184.148 43.8 184.508 43.72C185.908 43.48 185.828 42.12 185.828 41V31.92C185.828 30.44 185.748 29.36 184.548 29.2C184.268 29.16 184.028 29 183.988 28.8C183.908 28.6 183.988 28.36 184.148 28.2C184.748 27.52 186.148 26.76 187.108 26.64C187.268 26.6 187.468 26.64 187.628 26.72C187.908 26.84 188.028 27.08 188.028 27.44C188.028 28.12 187.988 28.72 187.948 29.36C187.948 29.56 188.188 29.64 188.348 29.48C189.428 28.24 190.988 26.64 192.748 26.64C195.868 26.64 195.868 30.52 195.868 32.8V41C195.868 42.2 195.708 43.48 197.268 43.72ZM205.704 43.2C207.144 43.2 208.784 41.8 208.784 40.6V31.6C208.784 30.16 208.104 27.96 205.744 27.96C202.064 27.96 201.384 32.68 201.384 35.8C201.384 38.08 202.144 43.2 205.704 43.2ZM213.584 42.84C213.744 42.96 213.784 43.2 213.664 43.36C213.024 44.32 211.624 45.68 210.424 45.68C209.464 45.68 209.064 44.44 208.864 43.48C208.824 43.28 208.584 43.2 208.384 43.4C207.504 44.52 206.144 45.68 204.584 45.68C200.264 45.68 199.144 39.16 199.144 36.8C199.144 33.6 200.824 26.68 206.064 26.68C206.904 26.68 207.704 26.96 208.344 27.36C208.544 27.48 208.784 27.4 208.784 27.16V20.24C208.784 19.04 208.944 17.68 207.064 17.52C206.784 17.48 206.584 17.28 206.504 17.08C206.424 16.88 206.504 16.64 206.664 16.48C207.424 15.72 208.904 14.84 210.024 14.64C210.184 14.6 210.344 14.64 210.464 14.68C210.784 14.8 211.024 15.04 210.984 15.32C210.904 16.56 210.864 17.64 210.864 19.08V41.12C210.864 42.44 211.064 43.2 211.624 43.32C212.024 43.44 212.464 43.24 212.864 42.88C213.024 42.68 213.344 42.64 213.584 42.84Z" fill="black"/>
</g>
<defs>
<filter id="filter0_g_8_31" x="0.2" y="0.2" width="326.6" height="61.6" filterUnits="userSpaceOnUse" color-interpolation-filters="sRGB">
<feFlood flood-opacity="0" result="BackgroundImageFix"/>
<feBlend mode="normal" in="SourceGraphic" in2="BackgroundImageFix" result="shape"/>
<feTurbulence type="fractalNoise" baseFrequency="1.1111111640930176 1.1111111640930176" numOctaves="3" seed="8928" />
<feDisplacementMap in="shape" scale="1.6000000238418579" xChannelSelector="R" yChannelSelector="G" result="displacedImage" width="100%" height="100%" />
<feMerge result="effect1_texture_8_31">
<feMergeNode in="displacedImage"/>
</feMerge>
</filter>
</defs>
</svg>
