<svg width="327" height="60" viewBox="0 0 327 60" fill="none" xmlns="http://www.w3.org/2000/svg">
<g style="mix-blend-mode:color-burn" filter="url(#filter0_g_31_27)">
<rect x="0.800049" y="0.799988" width="325" height="58" rx="29" fill="#988E86" fill-opacity="0.5"/>
<rect x="2.30005" y="2.29999" width="322" height="55" rx="27.5" stroke="black" stroke-width="3"/>
<path d="M62.7393 16.64C63.1393 16.64 63.3793 16.88 63.3793 17.2L63.1793 21.76C63.1793 22 62.9393 22.12 62.7393 22.12C62.4193 22.12 62.2593 21.96 62.2593 21.76C62.2593 20.16 62.3393 17.84 59.6193 17.84H57.9793C57.3793 17.84 57.0593 18.24 57.0593 18.72V39.92C57.0593 41.56 56.9393 43.24 59.0193 43.56C59.4193 43.6 59.6593 43.88 59.6593 44.16C59.6593 44.6 59.2593 44.84 58.8193 44.84C58.0193 44.8 56.9393 44.8 56.0193 44.8C54.8193 44.8 53.7393 44.8 53.0593 44.84C52.5393 44.88 52.1793 44.6 52.1793 44.2C52.1793 43.88 52.3793 43.6 52.7793 43.52C54.8993 43.24 54.8193 41.52 54.8193 39.92V18.72C54.8193 18.24 54.4193 17.84 53.8193 17.84H52.5793C49.6993 17.84 49.4993 20.04 49.2593 21.76C49.2193 21.96 49.0593 22.12 48.7793 22.12C48.4593 22.12 48.2993 21.92 48.2993 21.68L48.5793 17.16C48.5793 16.84 48.8593 16.64 49.2193 16.64C51.7793 16.8 53.4593 16.8 56.0593 16.8C58.6593 16.8 60.1793 16.8 62.7393 16.64ZM72.939 26.48C74.339 26.48 74.739 27.64 74.739 28.44C74.739 29.04 74.379 30.4 73.419 30.4C72.459 30.4 72.459 29.12 71.499 29.12C70.179 29.12 69.139 31.4 69.139 32.8V40.84C69.139 42.68 69.219 43.44 71.379 43.56C71.819 43.6 72.099 43.88 72.099 44.24C72.059 44.6 71.739 44.84 71.299 44.84C70.499 44.8 69.619 44.8 68.819 44.8C67.819 44.8 66.739 44.8 65.699 44.84C65.219 44.84 64.939 44.56 64.939 44.2C64.939 43.8 65.219 43.6 65.579 43.52C67.059 43.36 67.059 42.24 67.059 40.84V31.88C67.059 30.36 66.979 29.16 65.779 29C65.499 28.96 65.259 28.8 65.219 28.6C65.099 28.4 65.179 28.16 65.339 28C65.939 27.32 67.339 26.6 68.299 26.44C68.419 26.44 68.619 26.44 68.779 26.48C69.099 26.6 69.259 26.84 69.259 27.24C69.219 28.04 69.179 28.64 69.179 29.4C69.139 29.64 69.459 29.72 69.539 29.56C70.299 28.28 71.739 26.48 72.939 26.48ZM83.203 39.8V38.6C83.203 38.48 83.123 38.36 82.923 38.36C80.203 38.36 77.963 38.4 77.963 40.6C77.963 41.8 78.043 43.32 80.043 43.32C81.723 43.32 83.203 41.36 83.203 39.8ZM87.963 42.6C88.163 42.72 88.243 43 88.123 43.16C87.443 44.12 86.083 45.48 84.883 45.48C83.883 45.48 83.483 44.24 83.323 43.36C83.283 43.16 82.963 43.04 82.803 43.28C81.923 44.36 80.563 45.48 78.843 45.48C76.523 45.48 75.843 42.68 75.843 41.32C75.843 37.92 77.763 37.32 82.923 37.28C83.123 37.28 83.203 37.16 83.203 37V32.12C83.203 30.8 83.123 28.36 80.803 28.36C79.443 28.36 77.963 30.32 78.763 32.24C78.923 32.64 78.243 33.4 77.483 33.4C76.563 33.4 76.163 32.64 76.163 31.92C76.163 30.24 77.643 28.88 79.163 27.76C79.923 27.2 80.803 26.44 81.923 26.44C84.603 26.44 85.323 29.2 85.323 30.8V40.88C85.323 42.24 85.523 43 86.083 43.12C86.483 43.24 86.843 43.08 87.243 42.68C87.443 42.48 87.723 42.44 87.963 42.6ZM95.3671 43C96.8071 43 98.4471 41.6 98.4471 40.4V31.4C98.4471 29.96 97.7671 27.76 95.4071 27.76C91.7271 27.76 91.0471 32.48 91.0471 35.6C91.0471 37.88 91.8071 43 95.3671 43ZM103.247 42.64C103.407 42.76 103.447 43 103.327 43.16C102.687 44.12 101.287 45.48 100.087 45.48C99.1271 45.48 98.7271 44.24 98.5271 43.28C98.4871 43.08 98.2471 43 98.0471 43.2C97.1671 44.32 95.8071 45.48 94.2471 45.48C89.9271 45.48 88.8071 38.96 88.8071 36.6C88.8071 33.4 90.4871 26.48 95.7271 26.48C96.5671 26.48 97.3671 26.76 98.0071 27.16C98.2071 27.28 98.4471 27.2 98.4471 26.96V20.04C98.4471 18.84 98.6071 17.48 96.7271 17.32C96.4471 17.28 96.2471 17.08 96.1671 16.88C96.0871 16.68 96.1671 16.44 96.3271 16.28C97.0871 15.52 98.5671 14.64 99.6871 14.44C99.8471 14.4 100.007 14.44 100.127 14.48C100.447 14.6 100.687 14.84 100.647 15.12C100.567 16.36 100.527 17.44 100.527 18.88V40.92C100.527 42.24 100.727 43 101.287 43.12C101.687 43.24 102.127 43.04 102.527 42.68C102.687 42.48 103.007 42.44 103.247 42.64ZM118.398 42.64C118.558 42.76 118.598 43 118.478 43.16C117.838 44.12 116.478 45.48 115.278 45.48C114.278 45.48 113.838 43.88 113.678 42.76C113.678 42.56 113.358 42.48 113.198 42.68C112.118 43.92 110.558 45.48 108.798 45.48C105.678 45.48 105.678 41.6 105.678 39.32V31.76C105.678 30.24 105.598 29.16 104.358 29.04C104.078 29 103.878 28.84 103.838 28.64C103.718 28.4 103.798 28.2 103.958 28C104.598 27.36 105.958 26.6 106.918 26.48C107.038 26.44 107.278 26.44 107.398 26.52C107.718 26.6 107.878 26.88 107.878 27.24C107.838 28.28 107.798 29.6 107.758 30.64V36.96C107.758 38.8 107.438 43.24 110.118 43.24C111.238 43.24 112.678 41.88 113.358 41.08C113.518 40.84 113.638 40.6 113.638 40.36V31.76C113.638 30.24 113.558 29.16 112.318 29.04C112.038 29 111.838 28.84 111.758 28.64C111.678 28.4 111.758 28.2 111.918 28C112.518 27.36 113.918 26.6 114.878 26.48C114.998 26.44 115.198 26.44 115.358 26.52C115.678 26.6 115.838 26.88 115.798 27.24C115.798 28.28 115.718 29.6 115.718 30.64V40.52C115.718 41.84 115.918 43 116.478 43.12C116.878 43.24 117.198 43.08 117.638 42.68C117.838 42.48 118.158 42.44 118.398 42.64ZM128.956 39.48C129.316 39.48 129.516 39.72 129.476 39.96L128.716 44.4C128.676 44.68 128.396 44.84 128.076 44.84C126.676 44.8 125.236 44.8 123.676 44.8C122.316 44.8 120.676 44.84 119.436 44.88C119.076 44.88 118.916 44.6 119.036 44.32L126.636 28.72C126.716 28.56 126.636 28.4 126.436 28.4H123.556C121.156 28.4 120.956 29.96 120.636 31.44C120.596 31.68 120.316 31.84 120.036 31.8C119.756 31.76 119.596 31.56 119.596 31.36L119.916 27.8C119.956 27.48 120.196 27.24 120.636 27.28C121.956 27.36 123.356 27.36 124.676 27.36C126.116 27.36 127.636 27.36 129.036 27.28C129.396 27.28 129.516 27.52 129.396 27.76L121.796 43.44C121.756 43.6 121.836 43.76 121.996 43.76H124.916C127.796 43.76 128.076 41.48 128.436 39.84C128.516 39.64 128.716 39.48 128.956 39.48ZM135.393 18.68C135.393 19.72 134.553 20.56 133.553 20.56C132.513 20.56 131.673 19.72 131.673 18.68C131.673 17.68 132.513 16.84 133.553 16.84C134.553 16.84 135.393 17.68 135.393 18.68ZM136.473 43.52C136.873 43.6 137.073 43.84 137.073 44.16C137.073 44.56 136.713 44.84 136.273 44.84C135.593 44.8 134.833 44.8 134.153 44.8C133.473 44.8 132.713 44.8 132.033 44.84C131.593 44.84 131.193 44.56 131.193 44.16C131.193 43.88 131.393 43.6 131.753 43.52C133.113 43.32 133.073 42.2 133.073 41.04V31.72C133.073 30.24 132.993 29.16 131.793 29C131.513 28.96 131.313 28.8 131.233 28.6C131.153 28.4 131.193 28.16 131.393 28C131.993 27.32 133.393 26.56 134.353 26.44C134.433 26.4 134.673 26.44 134.833 26.48C135.153 26.6 135.273 26.84 135.273 27.2C135.233 28.48 135.153 29.44 135.153 30.72V41.04C135.153 42.24 135.153 43.32 136.473 43.52ZM149.097 36.2C148.977 34.12 148.057 27.6 144.377 27.68C140.857 27.8 140.657 33.76 140.777 35.8C140.897 37.84 141.897 44.36 145.457 44.24C148.937 44.16 149.177 38.24 149.097 36.2ZM151.497 35.92C151.497 38.8 149.937 45.52 145.097 45.52C139.777 45.52 138.337 39.2 138.337 36.08C138.337 33.16 139.777 26.48 144.737 26.48C150.137 26.48 151.497 32.76 151.497 35.92ZM166.346 43.52C166.746 43.6 166.906 43.88 166.906 44.16C166.906 44.56 166.586 44.84 166.106 44.84C165.466 44.8 164.546 44.8 163.906 44.8C163.226 44.8 162.426 44.8 161.706 44.84C161.226 44.84 160.946 44.56 160.946 44.16C160.946 43.84 161.186 43.6 161.586 43.52C162.946 43.32 162.866 42.04 162.866 40.8V34.96C162.866 33.12 163.186 28.84 160.506 28.84C159.586 28.84 157.026 30.64 157.026 31.72V40.8C157.026 42 156.946 43.28 158.346 43.52C158.746 43.6 158.946 43.84 158.946 44.2C158.946 44.56 158.626 44.84 158.146 44.84C157.506 44.8 156.666 44.8 155.986 44.8C155.306 44.8 154.546 44.8 153.866 44.84C153.386 44.84 153.066 44.56 153.066 44.24C153.026 43.88 153.226 43.6 153.586 43.52C154.986 43.28 154.906 41.92 154.906 40.8V31.72C154.906 30.24 154.826 29.16 153.626 29C153.346 28.96 153.106 28.8 153.066 28.6C152.986 28.4 153.066 28.16 153.226 28C153.826 27.32 155.226 26.56 156.186 26.44C156.346 26.4 156.546 26.44 156.706 26.52C156.986 26.64 157.106 26.88 157.106 27.24C157.106 27.92 157.066 28.52 157.026 29.16C157.026 29.36 157.266 29.44 157.426 29.28C158.506 28.04 160.066 26.44 161.826 26.44C164.946 26.44 164.946 30.32 164.946 32.6V40.8C164.946 42 164.786 43.28 166.346 43.52ZM170.265 32.44C170.225 32.68 170.345 32.92 170.665 32.92H173.225C175.385 32.92 176.185 32.44 176.185 31.16C176.185 29.84 175.425 27.84 173.545 27.84C171.305 27.84 170.545 30.76 170.265 32.44ZM178.385 40.48C178.665 40.6 178.745 40.88 178.665 41.08C177.905 42.8 176.145 45.48 173.585 45.48C169.185 45.48 168.065 39 168.065 36.48C168.065 33.64 168.865 26.44 173.705 26.44C177.345 26.44 178.345 30.68 178.385 32.88C178.385 33.28 178.425 33.92 177.665 33.96H170.545C170.225 33.96 170.065 34.16 170.025 34.44C169.985 35.12 170.025 35.76 170.065 36.48C170.145 38.24 170.905 43 174.145 43C175.825 43 176.945 41.84 177.665 40.72C177.825 40.48 178.065 40.36 178.385 40.48ZM196.447 18.68C196.447 19.72 195.607 20.56 194.607 20.56C193.567 20.56 192.727 19.72 192.727 18.68C192.727 17.68 193.567 16.84 194.607 16.84C195.607 16.84 196.447 17.68 196.447 18.68ZM197.527 43.52C197.927 43.6 198.127 43.84 198.127 44.16C198.127 44.56 197.767 44.84 197.327 44.84C196.647 44.8 195.887 44.8 195.207 44.8C194.527 44.8 193.767 44.8 193.087 44.84C192.647 44.84 192.247 44.56 192.247 44.16C192.247 43.88 192.447 43.6 192.807 43.52C194.167 43.32 194.127 42.2 194.127 41.04V31.72C194.127 30.24 194.047 29.16 192.847 29C192.567 28.96 192.367 28.8 192.287 28.6C192.207 28.4 192.247 28.16 192.447 28C193.047 27.32 194.447 26.56 195.407 26.44C195.487 26.4 195.727 26.44 195.887 26.48C196.207 26.6 196.327 26.84 196.327 27.2C196.287 28.48 196.207 29.44 196.207 30.72V41.04C196.207 42.24 196.207 43.32 197.527 43.52ZM207.354 42.16C207.554 42.28 207.674 42.56 207.514 42.72C206.714 43.88 205.234 45.48 203.634 45.48C201.314 45.48 200.914 43 200.914 41.68V28.96C200.914 28.72 200.794 28.56 200.554 28.56H199.754C199.314 28.56 199.074 28.32 199.074 28C199.074 27.76 199.194 27.6 199.434 27.48C201.314 26.84 201.794 25 201.954 23.36C201.954 23.12 202.194 22.92 202.474 22.92C202.754 22.92 203.034 23.12 203.034 23.4V27.12C203.034 27.32 203.154 27.52 203.434 27.52H206.634C207.034 27.52 207.234 27.76 207.234 28.04C207.234 28.36 206.994 28.56 206.634 28.56H203.434C203.154 28.56 203.034 28.72 203.034 28.96V39.8C203.034 40.56 202.954 43.36 204.434 43.36C205.074 43.36 206.034 42.84 206.634 42.28C206.834 42.12 207.114 42.04 207.354 42.16ZM216.406 39.8V38.6C216.406 38.48 216.326 38.36 216.126 38.36C213.406 38.36 211.166 38.4 211.166 40.6C211.166 41.8 211.246 43.32 213.246 43.32C214.926 43.32 216.406 41.36 216.406 39.8ZM221.166 42.6C221.366 42.72 221.446 43 221.326 43.16C220.646 44.12 219.286 45.48 218.086 45.48C217.086 45.48 216.686 44.24 216.526 43.36C216.486 43.16 216.166 43.04 216.006 43.28C215.126 44.36 213.766 45.48 212.046 45.48C209.726 45.48 209.046 42.68 209.046 41.32C209.046 37.92 210.966 37.32 216.126 37.28C216.326 37.28 216.406 37.16 216.406 37V32.12C216.406 30.8 216.326 28.36 214.006 28.36C212.646 28.36 211.166 30.32 211.966 32.24C212.126 32.64 211.446 33.4 210.686 33.4C209.766 33.4 209.366 32.64 209.366 31.92C209.366 30.24 210.846 28.88 212.366 27.76C213.126 27.2 214.006 26.44 215.126 26.44C217.806 26.44 218.526 29.2 218.526 30.8V40.88C218.526 42.24 218.726 43 219.286 43.12C219.686 43.24 220.046 43.08 220.446 42.68C220.646 42.48 220.926 42.44 221.166 42.6ZM227.528 43.52C227.928 43.6 228.128 43.84 228.128 44.2C228.128 44.6 227.728 44.84 227.328 44.84C226.688 44.8 225.848 44.8 225.168 44.8C224.488 44.8 223.728 44.8 223.048 44.84C222.568 44.84 222.248 44.56 222.208 44.2C222.208 43.88 222.408 43.6 222.768 43.52C224.168 43.28 224.088 41.92 224.088 40.8V20C224.088 18.8 224.208 17.44 222.408 17.28C222.128 17.24 221.888 17.08 221.848 16.88C221.728 16.68 221.808 16.44 221.968 16.24C222.728 15.48 224.208 14.6 225.328 14.4C225.528 14.36 225.808 14.44 225.968 14.56C226.208 14.68 226.328 14.88 226.328 15.08C226.248 16.32 226.208 17.4 226.208 18.72V40.8C226.208 42 226.128 43.28 227.528 43.52ZM234.065 18.68C234.065 19.72 233.225 20.56 232.225 20.56C231.185 20.56 230.345 19.72 230.345 18.68C230.345 17.68 231.185 16.84 232.225 16.84C233.225 16.84 234.065 17.68 234.065 18.68ZM235.145 43.52C235.545 43.6 235.745 43.84 235.745 44.16C235.745 44.56 235.385 44.84 234.945 44.84C234.265 44.8 233.505 44.8 232.825 44.8C232.145 44.8 231.385 44.8 230.705 44.84C230.265 44.84 229.865 44.56 229.865 44.16C229.865 43.88 230.065 43.6 230.425 43.52C231.785 43.32 231.745 42.2 231.745 41.04V31.72C231.745 30.24 231.665 29.16 230.465 29C230.185 28.96 229.985 28.8 229.905 28.6C229.825 28.4 229.865 28.16 230.065 28C230.665 27.32 232.065 26.56 233.025 26.44C233.105 26.4 233.345 26.44 233.505 26.48C233.825 26.6 233.945 26.84 233.945 27.2C233.905 28.48 233.825 29.44 233.825 30.72V41.04C233.825 42.24 233.825 43.32 235.145 43.52ZM245.039 39.8V38.6C245.039 38.48 244.959 38.36 244.759 38.36C242.039 38.36 239.799 38.4 239.799 40.6C239.799 41.8 239.879 43.32 241.879 43.32C243.559 43.32 245.039 41.36 245.039 39.8ZM249.799 42.6C249.999 42.72 250.079 43 249.959 43.16C249.279 44.12 247.919 45.48 246.719 45.48C245.719 45.48 245.319 44.24 245.159 43.36C245.119 43.16 244.799 43.04 244.639 43.28C243.759 44.36 242.399 45.48 240.679 45.48C238.359 45.48 237.679 42.68 237.679 41.32C237.679 37.92 239.599 37.32 244.759 37.28C244.959 37.28 245.039 37.16 245.039 37V32.12C245.039 30.8 244.959 28.36 242.639 28.36C241.279 28.36 239.799 30.32 240.599 32.24C240.759 32.64 240.079 33.4 239.319 33.4C238.399 33.4 237.999 32.64 237.999 31.92C237.999 30.24 239.479 28.88 240.999 27.76C241.759 27.2 242.639 26.44 243.759 26.44C246.439 26.44 247.159 29.2 247.159 30.8V40.88C247.159 42.24 247.359 43 247.919 43.12C248.319 43.24 248.679 43.08 249.079 42.68C249.279 42.48 249.559 42.44 249.799 42.6ZM264.119 43.52C264.519 43.6 264.679 43.88 264.679 44.16C264.679 44.56 264.359 44.84 263.879 44.84C263.239 44.8 262.319 44.8 261.679 44.8C260.999 44.8 260.199 44.8 259.479 44.84C258.999 44.84 258.719 44.56 258.719 44.16C258.719 43.84 258.959 43.6 259.359 43.52C260.719 43.32 260.639 42.04 260.639 40.8V34.96C260.639 33.12 260.959 28.84 258.279 28.84C257.359 28.84 254.799 30.64 254.799 31.72V40.8C254.799 42 254.719 43.28 256.119 43.52C256.519 43.6 256.719 43.84 256.719 44.2C256.719 44.56 256.399 44.84 255.919 44.84C255.279 44.8 254.439 44.8 253.759 44.8C253.079 44.8 252.319 44.8 251.639 44.84C251.159 44.84 250.839 44.56 250.839 44.24C250.799 43.88 250.999 43.6 251.359 43.52C252.759 43.28 252.679 41.92 252.679 40.8V31.72C252.679 30.24 252.599 29.16 251.399 29C251.119 28.96 250.879 28.8 250.839 28.6C250.759 28.4 250.839 28.16 250.999 28C251.599 27.32 252.999 26.56 253.959 26.44C254.119 26.4 254.319 26.44 254.479 26.52C254.759 26.64 254.879 26.88 254.879 27.24C254.879 27.92 254.839 28.52 254.799 29.16C254.799 29.36 255.039 29.44 255.199 29.28C256.279 28.04 257.839 26.44 259.599 26.44C262.719 26.44 262.719 30.32 262.719 32.6V40.8C262.719 42 262.559 43.28 264.119 43.52ZM273.789 39.8V38.6C273.789 38.48 273.709 38.36 273.509 38.36C270.789 38.36 268.549 38.4 268.549 40.6C268.549 41.8 268.629 43.32 270.629 43.32C272.309 43.32 273.789 41.36 273.789 39.8ZM278.549 42.6C278.749 42.72 278.829 43 278.709 43.16C278.029 44.12 276.669 45.48 275.469 45.48C274.469 45.48 274.069 44.24 273.909 43.36C273.869 43.16 273.549 43.04 273.389 43.28C272.509 44.36 271.149 45.48 269.429 45.48C267.109 45.48 266.429 42.68 266.429 41.32C266.429 37.92 268.349 37.32 273.509 37.28C273.709 37.28 273.789 37.16 273.789 37V32.12C273.789 30.8 273.709 28.36 271.389 28.36C270.029 28.36 268.549 30.32 269.349 32.24C269.509 32.64 268.829 33.4 268.069 33.4C267.149 33.4 266.749 32.64 266.749 31.92C266.749 30.24 268.229 28.88 269.749 27.76C270.509 27.2 271.389 26.44 272.509 26.44C275.189 26.44 275.909 29.2 275.909 30.8V40.88C275.909 42.24 276.109 43 276.669 43.12C277.069 43.24 277.429 43.08 277.829 42.68C278.029 42.48 278.309 42.44 278.549 42.6Z" fill="black"/>
</g>
<defs>
<filter id="filter0_g_31_27" x="4.88162e-05" y="-1.2219e-05" width="326.6" height="59.6" filterUnits="userSpaceOnUse" color-interpolation-filters="sRGB">
<feFlood flood-opacity="0" result="BackgroundImageFix"/>
<feBlend mode="normal" in="SourceGraphic" in2="BackgroundImageFix" result="shape"/>
<feTurbulence type="fractalNoise" baseFrequency="1.1111111640930176 1.1111111640930176" numOctaves="3" seed="8928" />
<feDisplacementMap in="shape" scale="1.6000000238418579" xChannelSelector="R" yChannelSelector="G" result="displacedImage" width="100%" height="100%" />
<feMerge result="effect1_texture_31_27">
<feMergeNode in="displacedImage"/>
</feMerge>
</filter>
</defs>
</svg>
