<svg width="327" height="60" viewBox="0 0 327 60" fill="none" xmlns="http://www.w3.org/2000/svg">
<g style="mix-blend-mode:color-burn" filter="url(#filter0_g_183_123)">
<rect x="0.800049" y="0.800049" width="325" height="58" rx="29" fill="#988E86" fill-opacity="0.5"/>
<rect x="2.30005" y="2.30005" width="322" height="55" rx="27.5" stroke="black" stroke-width="3"/>
<path d="M102.368 16.64C102.768 16.64 103.008 16.88 103.008 17.2L102.808 21.76C102.808 22 102.568 22.12 102.368 22.12C102.048 22.12 101.888 21.96 101.888 21.76C101.888 20.16 101.968 17.84 99.2482 17.84H97.6082C97.0082 17.84 96.6882 18.24 96.6882 18.72V39.92C96.6882 41.56 96.5682 43.24 98.6482 43.56C99.0482 43.6 99.2882 43.88 99.2882 44.16C99.2882 44.6 98.8882 44.84 98.4482 44.84C97.6482 44.8 96.5682 44.8 95.6482 44.8C94.4482 44.8 93.3682 44.8 92.6882 44.84C92.1682 44.88 91.8082 44.6 91.8082 44.2C91.8082 43.88 92.0082 43.6 92.4082 43.52C94.5282 43.24 94.4482 41.52 94.4482 39.92V18.72C94.4482 18.24 94.0482 17.84 93.4482 17.84H92.2082C89.3282 17.84 89.1282 20.04 88.8882 21.76C88.8482 21.96 88.6882 22.12 88.4082 22.12C88.0882 22.12 87.9282 21.92 87.9282 21.68L88.2082 17.16C88.2082 16.84 88.4882 16.64 88.8482 16.64C91.4082 16.8 93.0882 16.8 95.6882 16.8C98.2882 16.8 99.8082 16.8 102.368 16.64ZM105.909 32.44C105.869 32.68 105.989 32.92 106.309 32.92H108.869C111.029 32.92 111.829 32.44 111.829 31.16C111.829 29.84 111.069 27.84 109.189 27.84C106.949 27.84 106.189 30.76 105.909 32.44ZM114.029 40.48C114.309 40.6 114.389 40.88 114.309 41.08C113.549 42.8 111.789 45.48 109.229 45.48C104.829 45.48 103.709 39 103.709 36.48C103.709 33.64 104.509 26.44 109.349 26.44C112.989 26.44 113.989 30.68 114.029 32.88C114.029 33.28 114.069 33.92 113.309 33.96H106.189C105.869 33.96 105.709 34.16 105.669 34.44C105.629 35.12 105.669 35.76 105.709 36.48C105.789 38.24 106.549 43 109.789 43C111.469 43 112.589 41.84 113.309 40.72C113.469 40.48 113.709 40.36 114.029 40.48ZM120.905 35C123.185 36.64 124.145 37.6 124.145 40C124.145 42.24 123.025 45.48 119.465 45.48C118.345 45.48 117.265 45.04 116.425 44.48C116.185 44.28 116.025 44 115.985 43.72L115.665 39.68C115.665 39.48 115.825 39.24 116.145 39.24C116.425 39.24 116.585 39.4 116.625 39.6C116.825 41.16 117.425 44.12 119.665 44.12C121.625 44.12 122.185 42.68 122.185 41.44C122.185 39.4 121.145 38.4 119.265 36.96C117.145 35.36 115.905 33.92 115.905 31.6C115.905 29.64 117.065 26.44 120.185 26.44C120.905 26.44 123.345 26.96 123.345 28L123.505 31.48C123.545 31.68 123.345 31.88 123.065 31.88C122.785 31.88 122.625 31.72 122.585 31.52C122.425 30.2 121.985 27.84 119.905 27.84C118.185 27.84 117.545 29.28 117.545 30.32C117.545 32.4 119.105 33.72 120.905 35ZM133.584 42.16C133.784 42.28 133.904 42.56 133.744 42.72C132.944 43.88 131.464 45.48 129.864 45.48C127.544 45.48 127.144 43 127.144 41.68V28.96C127.144 28.72 127.024 28.56 126.784 28.56H125.984C125.544 28.56 125.304 28.32 125.304 28C125.304 27.76 125.424 27.6 125.664 27.48C127.544 26.84 128.024 25 128.184 23.36C128.184 23.12 128.424 22.92 128.704 22.92C128.984 22.92 129.264 23.12 129.264 23.4V27.12C129.264 27.32 129.384 27.52 129.664 27.52H132.864C133.264 27.52 133.464 27.76 133.464 28.04C133.464 28.36 133.224 28.56 132.864 28.56H129.664C129.384 28.56 129.264 28.72 129.264 28.96V39.8C129.264 40.56 129.184 43.36 130.664 43.36C131.304 43.36 132.264 42.84 132.864 42.28C133.064 42.12 133.344 42.04 133.584 42.16ZM145.797 36.2C145.677 34.12 144.757 27.6 141.077 27.68C137.557 27.8 137.357 33.76 137.477 35.8C137.597 37.84 138.597 44.36 142.157 44.24C145.637 44.16 145.877 38.24 145.797 36.2ZM148.197 35.92C148.197 38.8 146.637 45.52 141.797 45.52C136.477 45.52 135.037 39.2 135.037 36.08C135.037 33.16 136.477 26.48 141.437 26.48C146.837 26.48 148.197 32.76 148.197 35.92ZM166.037 18.68C166.037 19.72 165.197 20.56 164.197 20.56C163.157 20.56 162.317 19.72 162.317 18.68C162.317 17.68 163.157 16.84 164.197 16.84C165.197 16.84 166.037 17.68 166.037 18.68ZM167.117 43.52C167.517 43.6 167.717 43.84 167.717 44.16C167.717 44.56 167.357 44.84 166.917 44.84C166.237 44.8 165.477 44.8 164.797 44.8C164.117 44.8 163.357 44.8 162.677 44.84C162.237 44.84 161.837 44.56 161.837 44.16C161.837 43.88 162.037 43.6 162.397 43.52C163.757 43.32 163.717 42.2 163.717 41.04V31.72C163.717 30.24 163.637 29.16 162.437 29C162.157 28.96 161.957 28.8 161.877 28.6C161.797 28.4 161.837 28.16 162.037 28C162.637 27.32 164.037 26.56 164.997 26.44C165.077 26.4 165.317 26.44 165.477 26.48C165.797 26.6 165.917 26.84 165.917 27.2C165.877 28.48 165.797 29.44 165.797 30.72V41.04C165.797 42.24 165.797 43.32 167.117 43.52ZM182.772 43.52C183.172 43.6 183.332 43.88 183.332 44.16C183.332 44.56 183.012 44.84 182.532 44.84C181.892 44.8 180.972 44.8 180.332 44.8C179.652 44.8 178.852 44.8 178.132 44.84C177.652 44.84 177.372 44.56 177.372 44.16C177.372 43.84 177.612 43.6 178.012 43.52C179.372 43.32 179.292 42.04 179.292 40.8V34.96C179.292 33.12 179.612 28.84 176.932 28.84C176.012 28.84 173.452 30.64 173.452 31.72V40.8C173.452 42 173.372 43.28 174.772 43.52C175.172 43.6 175.372 43.84 175.372 44.2C175.372 44.56 175.052 44.84 174.572 44.84C173.932 44.8 173.092 44.8 172.412 44.8C171.732 44.8 170.972 44.8 170.292 44.84C169.812 44.84 169.492 44.56 169.492 44.24C169.452 43.88 169.652 43.6 170.012 43.52C171.412 43.28 171.332 41.92 171.332 40.8V31.72C171.332 30.24 171.252 29.16 170.052 29C169.772 28.96 169.532 28.8 169.492 28.6C169.412 28.4 169.492 28.16 169.652 28C170.252 27.32 171.652 26.56 172.612 26.44C172.772 26.4 172.972 26.44 173.132 26.52C173.412 26.64 173.532 26.88 173.532 27.24C173.532 27.92 173.492 28.52 173.452 29.16C173.452 29.36 173.692 29.44 173.852 29.28C174.932 28.04 176.492 26.44 178.252 26.44C181.372 26.44 181.372 30.32 181.372 32.6V40.8C181.372 42 181.212 43.28 182.772 43.52ZM187.481 44.32C185.921 43.44 185.681 41.68 185.881 40.24C185.881 40.04 186.001 39.88 186.161 39.72C186.681 39.32 187.201 38.84 187.601 38.36C187.761 38.2 187.721 38 187.561 37.88C185.961 36.48 185.521 34.6 185.521 32.8C185.521 30 186.881 26.48 190.761 26.48C192.401 26.48 193.681 27.52 195.561 27.52C195.801 27.52 196.201 27.52 196.481 27.52C196.841 27.48 197.121 27.72 197.121 28.04C197.121 28.36 196.921 28.6 196.521 28.6H194.721C194.481 28.6 194.361 28.76 194.481 28.92C195.201 30 195.441 31.6 195.441 32.48C195.441 35 194.441 38.8 190.321 38.8C189.921 38.8 189.481 38.76 189.081 38.64C188.881 38.6 188.641 38.68 188.521 38.8C188.041 39.36 187.921 39.8 187.921 40.56C187.921 41.72 188.281 42.48 189.881 42.48C191.121 42.48 192.361 42.52 193.601 42.52C196.801 42.52 197.561 45.04 197.561 47.04C197.561 50.28 194.921 53.96 190.281 53.96C186.441 53.96 184.681 51.8 184.561 48.2C184.561 47.96 184.681 47.68 184.881 47.48C185.321 47.08 187.121 45.4 187.601 44.84C187.721 44.64 187.681 44.44 187.481 44.32ZM187.801 32.36C187.801 33.64 188.081 37.48 190.521 37.48C193.081 37.48 193.321 34.32 193.321 32.88C193.321 31.52 192.881 27.76 190.441 27.76C188.201 27.76 187.801 31.2 187.801 32.36ZM186.721 48.6C186.721 50.56 187.921 52.36 190.721 52.36C193.841 52.36 195.641 50.76 195.641 48.28C195.641 46.2 194.361 45.04 191.641 45.04H189.321C187.881 45.04 186.721 47.36 186.721 48.6ZM204.11 43.52C204.51 43.6 204.71 43.84 204.71 44.2C204.71 44.6 204.31 44.84 203.91 44.84C203.27 44.8 202.43 44.8 201.75 44.8C201.07 44.8 200.31 44.8 199.63 44.84C199.15 44.84 198.83 44.56 198.79 44.2C198.79 43.88 198.99 43.6 199.35 43.52C200.75 43.28 200.67 41.92 200.67 40.8V20C200.67 18.8 200.79 17.44 198.99 17.28C198.71 17.24 198.47 17.08 198.43 16.88C198.31 16.68 198.39 16.44 198.55 16.24C199.31 15.48 200.79 14.6 201.91 14.4C202.11 14.36 202.39 14.44 202.55 14.56C202.79 14.68 202.91 14.88 202.91 15.08C202.83 16.32 202.79 17.4 202.79 18.72V40.8C202.79 42 202.71 43.28 204.11 43.52ZM208.527 32.44C208.487 32.68 208.607 32.92 208.927 32.92H211.487C213.647 32.92 214.447 32.44 214.447 31.16C214.447 29.84 213.687 27.84 211.807 27.84C209.567 27.84 208.807 30.76 208.527 32.44ZM216.647 40.48C216.927 40.6 217.007 40.88 216.927 41.08C216.167 42.8 214.407 45.48 211.847 45.48C207.447 45.48 206.327 39 206.327 36.48C206.327 33.64 207.127 26.44 211.967 26.44C215.607 26.44 216.607 30.68 216.647 32.88C216.647 33.28 216.687 33.92 215.927 33.96H208.807C208.487 33.96 208.327 34.16 208.287 34.44C208.247 35.12 208.287 35.76 208.327 36.48C208.407 38.24 209.167 43 212.407 43C214.087 43 215.207 41.84 215.927 40.72C216.087 40.48 216.327 40.36 216.647 40.48ZM223.523 35C225.803 36.64 226.763 37.6 226.763 40C226.763 42.24 225.643 45.48 222.083 45.48C220.963 45.48 219.883 45.04 219.043 44.48C218.803 44.28 218.643 44 218.603 43.72L218.283 39.68C218.283 39.48 218.443 39.24 218.763 39.24C219.043 39.24 219.203 39.4 219.243 39.6C219.443 41.16 220.043 44.12 222.283 44.12C224.243 44.12 224.803 42.68 224.803 41.44C224.803 39.4 223.763 38.4 221.883 36.96C219.763 35.36 218.523 33.92 218.523 31.6C218.523 29.64 219.683 26.44 222.803 26.44C223.523 26.44 225.963 26.96 225.963 28L226.123 31.48C226.163 31.68 225.963 31.88 225.683 31.88C225.403 31.88 225.243 31.72 225.203 31.52C225.043 30.2 224.603 27.84 222.523 27.84C220.803 27.84 220.163 29.28 220.163 30.32C220.163 32.4 221.723 33.72 223.523 35ZM230.402 32.44C230.362 32.68 230.482 32.92 230.802 32.92H233.362C235.522 32.92 236.322 32.44 236.322 31.16C236.322 29.84 235.562 27.84 233.682 27.84C231.442 27.84 230.682 30.76 230.402 32.44ZM238.522 40.48C238.802 40.6 238.882 40.88 238.802 41.08C238.042 42.8 236.282 45.48 233.722 45.48C229.322 45.48 228.202 39 228.202 36.48C228.202 33.64 229.002 26.44 233.842 26.44C237.482 26.44 238.482 30.68 238.522 32.88C238.522 33.28 238.562 33.92 237.802 33.96H230.682C230.362 33.96 230.202 34.16 230.162 34.44C230.122 35.12 230.162 35.76 230.202 36.48C230.282 38.24 231.042 43 234.282 43C235.962 43 237.082 41.84 237.802 40.72C237.962 40.48 238.202 40.36 238.522 40.48Z" fill="black"/>
</g>
<defs>
<filter id="filter0_g_183_123" x="4.88162e-05" y="4.88162e-05" width="326.6" height="59.6" filterUnits="userSpaceOnUse" color-interpolation-filters="sRGB">
<feFlood flood-opacity="0" result="BackgroundImageFix"/>
<feBlend mode="normal" in="SourceGraphic" in2="BackgroundImageFix" result="shape"/>
<feTurbulence type="fractalNoise" baseFrequency="1.1111111640930176 1.1111111640930176" numOctaves="3" seed="8928" />
<feDisplacementMap in="shape" scale="1.6000000238418579" xChannelSelector="R" yChannelSelector="G" result="displacedImage" width="100%" height="100%" />
<feMerge result="effect1_texture_183_123">
<feMergeNode in="displacedImage"/>
</feMerge>
</filter>
</defs>
</svg>
