<svg width="327" height="60" viewBox="0 0 327 60" fill="none" xmlns="http://www.w3.org/2000/svg">
<g style="mix-blend-mode:color-burn" filter="url(#filter0_g_183_123)">
<rect x="0.800049" y="0.800049" width="325" height="58" rx="29" fill="#988E86" fill-opacity="0.5"/>
<rect x="2.30005" y="2.30005" width="322" height="55" rx="27.5" stroke="black" stroke-width="3"/>
<path d="M90.0049 16.64C90.4049 16.64 90.6449 16.88 90.6449 17.2L90.4449 21.76C90.4449 22 90.2049 22.12 90.0049 22.12C89.6849 22.12 89.5249 21.96 89.5249 21.76C89.5249 20.16 89.6049 17.84 86.8849 17.84H85.2449C84.6449 17.84 84.3249 18.24 84.3249 18.72V39.92C84.3249 41.56 84.2049 43.24 86.2849 43.56C86.6849 43.6 86.9249 43.88 86.9249 44.16C86.9249 44.6 86.5249 44.84 86.0849 44.84C85.2849 44.8 84.2049 44.8 83.2849 44.8C82.0849 44.8 81.0049 44.8 80.3249 44.84C79.8049 44.88 79.4449 44.6 79.4449 44.2C79.4449 43.88 79.6449 43.6 80.0449 43.52C82.1649 43.24 82.0849 41.52 82.0849 39.92V18.72C82.0849 18.24 81.6849 17.84 81.0849 17.84H79.8449C76.9649 17.84 76.7649 20.04 76.5249 21.76C76.4849 21.96 76.3249 22.12 76.0449 22.12C75.7249 22.12 75.5649 21.92 75.5649 21.68L75.8449 17.16C75.8449 16.84 76.1249 16.64 76.4849 16.64C79.0449 16.8 80.7249 16.8 83.3249 16.8C85.9249 16.8 87.4449 16.8 90.0049 16.64ZM93.5461 32.44C93.5061 32.68 93.6261 32.92 93.9461 32.92H96.5061C98.6661 32.92 99.4661 32.44 99.4661 31.16C99.4661 29.84 98.7061 27.84 96.8261 27.84C94.5861 27.84 93.8261 30.76 93.5461 32.44ZM101.666 40.48C101.946 40.6 102.026 40.88 101.946 41.08C101.186 42.8 99.4261 45.48 96.8661 45.48C92.4661 45.48 91.3461 39 91.3461 36.48C91.3461 33.64 92.1461 26.44 96.9861 26.44C100.626 26.44 101.626 30.68 101.666 32.88C101.666 33.28 101.706 33.92 100.946 33.96H93.8261C93.5061 33.96 93.3461 34.16 93.3061 34.44C93.2661 35.12 93.3061 35.76 93.3461 36.48C93.4261 38.24 94.1861 43 97.4261 43C99.1061 43 100.226 41.84 100.946 40.72C101.106 40.48 101.346 40.36 101.666 40.48ZM108.542 35C110.822 36.64 111.782 37.6 111.782 40C111.782 42.24 110.662 45.48 107.102 45.48C105.982 45.48 104.902 45.04 104.062 44.48C103.822 44.28 103.662 44 103.622 43.72L103.302 39.68C103.302 39.48 103.462 39.24 103.782 39.24C104.062 39.24 104.222 39.4 104.262 39.6C104.462 41.16 105.062 44.12 107.302 44.12C109.262 44.12 109.822 42.68 109.822 41.44C109.822 39.4 108.782 38.4 106.902 36.96C104.782 35.36 103.542 33.92 103.542 31.6C103.542 29.64 104.702 26.44 107.822 26.44C108.542 26.44 110.982 26.96 110.982 28L111.142 31.48C111.182 31.68 110.982 31.88 110.702 31.88C110.422 31.88 110.262 31.72 110.222 31.52C110.062 30.2 109.622 27.84 107.542 27.84C105.822 27.84 105.182 29.28 105.182 30.32C105.182 32.4 106.742 33.72 108.542 35ZM121.221 42.16C121.421 42.28 121.541 42.56 121.381 42.72C120.581 43.88 119.101 45.48 117.501 45.48C115.181 45.48 114.781 43 114.781 41.68V28.96C114.781 28.72 114.661 28.56 114.421 28.56H113.621C113.181 28.56 112.941 28.32 112.941 28C112.941 27.76 113.061 27.6 113.301 27.48C115.181 26.84 115.661 25 115.821 23.36C115.821 23.12 116.061 22.92 116.341 22.92C116.621 22.92 116.901 23.12 116.901 23.4V27.12C116.901 27.32 117.021 27.52 117.301 27.52H120.501C120.901 27.52 121.101 27.76 121.101 28.04C121.101 28.36 120.861 28.56 120.501 28.56H117.301C117.021 28.56 116.901 28.72 116.901 28.96V39.8C116.901 40.56 116.821 43.36 118.301 43.36C118.941 43.36 119.901 42.84 120.501 42.28C120.701 42.12 120.981 42.04 121.221 42.16ZM133.433 36.2C133.313 34.12 132.393 27.6 128.713 27.68C125.193 27.8 124.993 33.76 125.113 35.8C125.233 37.84 126.233 44.36 129.793 44.24C133.273 44.16 133.513 38.24 133.433 36.2ZM135.833 35.92C135.833 38.8 134.273 45.52 129.433 45.52C124.113 45.52 122.673 39.2 122.673 36.08C122.673 33.16 124.113 26.48 129.073 26.48C134.473 26.48 135.833 32.76 135.833 35.92ZM160.074 36.2C159.954 34.12 159.034 27.6 155.354 27.68C151.834 27.8 151.634 33.76 151.754 35.8C151.874 37.84 152.874 44.36 156.434 44.24C159.914 44.16 160.154 38.24 160.074 36.2ZM162.474 35.92C162.474 38.8 160.914 45.52 156.074 45.52C150.754 45.52 149.314 39.2 149.314 36.08C149.314 33.16 150.754 26.48 155.714 26.48C161.114 26.48 162.474 32.76 162.474 35.92ZM171.962 26.48C173.362 26.48 173.762 27.64 173.762 28.44C173.762 29.04 173.402 30.4 172.442 30.4C171.482 30.4 171.482 29.12 170.522 29.12C169.202 29.12 168.162 31.4 168.162 32.8V40.84C168.162 42.68 168.242 43.44 170.402 43.56C170.842 43.6 171.122 43.88 171.122 44.24C171.082 44.6 170.762 44.84 170.322 44.84C169.522 44.8 168.642 44.8 167.842 44.8C166.842 44.8 165.762 44.8 164.722 44.84C164.242 44.84 163.962 44.56 163.962 44.2C163.962 43.8 164.242 43.6 164.602 43.52C166.082 43.36 166.082 42.24 166.082 40.84V31.88C166.082 30.36 166.002 29.16 164.802 29C164.522 28.96 164.282 28.8 164.242 28.6C164.122 28.4 164.202 28.16 164.362 28C164.962 27.32 166.362 26.6 167.322 26.44C167.442 26.44 167.642 26.44 167.802 26.48C168.122 26.6 168.282 26.84 168.282 27.24C168.242 28.04 168.202 28.64 168.202 29.4C168.162 29.64 168.482 29.72 168.562 29.56C169.322 28.28 170.762 26.48 171.962 26.48ZM179.299 18.68C179.299 19.72 178.459 20.56 177.459 20.56C176.419 20.56 175.579 19.72 175.579 18.68C175.579 17.68 176.419 16.84 177.459 16.84C178.459 16.84 179.299 17.68 179.299 18.68ZM180.379 43.52C180.779 43.6 180.979 43.84 180.979 44.16C180.979 44.56 180.619 44.84 180.179 44.84C179.499 44.8 178.739 44.8 178.059 44.8C177.379 44.8 176.619 44.8 175.939 44.84C175.499 44.84 175.099 44.56 175.099 44.16C175.099 43.88 175.299 43.6 175.659 43.52C177.019 43.32 176.979 42.2 176.979 41.04V31.72C176.979 30.24 176.899 29.16 175.699 29C175.419 28.96 175.219 28.8 175.139 28.6C175.059 28.4 175.099 28.16 175.299 28C175.899 27.32 177.299 26.56 178.259 26.44C178.339 26.4 178.579 26.44 178.739 26.48C179.059 26.6 179.179 26.84 179.179 27.2C179.139 28.48 179.059 29.44 179.059 30.72V41.04C179.059 42.24 179.059 43.32 180.379 43.52ZM185.313 44.32C183.753 43.44 183.513 41.68 183.713 40.24C183.713 40.04 183.833 39.88 183.993 39.72C184.513 39.32 185.033 38.84 185.433 38.36C185.593 38.2 185.553 38 185.393 37.88C183.793 36.48 183.353 34.6 183.353 32.8C183.353 30 184.713 26.48 188.593 26.48C190.233 26.48 191.513 27.52 193.393 27.52C193.633 27.52 194.033 27.52 194.313 27.52C194.673 27.48 194.953 27.72 194.953 28.04C194.953 28.36 194.753 28.6 194.353 28.6H192.553C192.313 28.6 192.193 28.76 192.313 28.92C193.033 30 193.273 31.6 193.273 32.48C193.273 35 192.273 38.8 188.153 38.8C187.753 38.8 187.313 38.76 186.913 38.64C186.713 38.6 186.473 38.68 186.353 38.8C185.873 39.36 185.753 39.8 185.753 40.56C185.753 41.72 186.113 42.48 187.713 42.48C188.953 42.48 190.193 42.52 191.433 42.52C194.633 42.52 195.393 45.04 195.393 47.04C195.393 50.28 192.753 53.96 188.113 53.96C184.273 53.96 182.513 51.8 182.393 48.2C182.393 47.96 182.513 47.68 182.713 47.48C183.153 47.08 184.953 45.4 185.433 44.84C185.553 44.64 185.513 44.44 185.313 44.32ZM185.633 32.36C185.633 33.64 185.913 37.48 188.353 37.48C190.913 37.48 191.153 34.32 191.153 32.88C191.153 31.52 190.713 27.76 188.273 27.76C186.033 27.76 185.633 31.2 185.633 32.36ZM184.553 48.6C184.553 50.56 185.753 52.36 188.553 52.36C191.673 52.36 193.473 50.76 193.473 48.28C193.473 46.2 192.193 45.04 189.473 45.04H187.153C185.713 45.04 184.553 47.36 184.553 48.6ZM200.822 18.68C200.822 19.72 199.982 20.56 198.982 20.56C197.942 20.56 197.102 19.72 197.102 18.68C197.102 17.68 197.942 16.84 198.982 16.84C199.982 16.84 200.822 17.68 200.822 18.68ZM201.902 43.52C202.302 43.6 202.502 43.84 202.502 44.16C202.502 44.56 202.142 44.84 201.702 44.84C201.022 44.8 200.262 44.8 199.582 44.8C198.902 44.8 198.142 44.8 197.462 44.84C197.022 44.84 196.622 44.56 196.622 44.16C196.622 43.88 196.822 43.6 197.182 43.52C198.542 43.32 198.502 42.2 198.502 41.04V31.72C198.502 30.24 198.422 29.16 197.222 29C196.942 28.96 196.742 28.8 196.662 28.6C196.582 28.4 196.622 28.16 196.822 28C197.422 27.32 198.822 26.56 199.782 26.44C199.862 26.4 200.102 26.44 200.262 26.48C200.582 26.6 200.702 26.84 200.702 27.2C200.662 28.48 200.582 29.44 200.582 30.72V41.04C200.582 42.24 200.582 43.32 201.902 43.52ZM217.557 43.52C217.957 43.6 218.117 43.88 218.117 44.16C218.117 44.56 217.797 44.84 217.317 44.84C216.677 44.8 215.757 44.8 215.117 44.8C214.437 44.8 213.637 44.8 212.917 44.84C212.437 44.84 212.157 44.56 212.157 44.16C212.157 43.84 212.397 43.6 212.797 43.52C214.157 43.32 214.077 42.04 214.077 40.8V34.96C214.077 33.12 214.397 28.84 211.717 28.84C210.797 28.84 208.237 30.64 208.237 31.72V40.8C208.237 42 208.157 43.28 209.557 43.52C209.957 43.6 210.157 43.84 210.157 44.2C210.157 44.56 209.837 44.84 209.357 44.84C208.717 44.8 207.877 44.8 207.197 44.8C206.517 44.8 205.757 44.8 205.077 44.84C204.597 44.84 204.277 44.56 204.277 44.24C204.237 43.88 204.437 43.6 204.797 43.52C206.197 43.28 206.117 41.92 206.117 40.8V31.72C206.117 30.24 206.037 29.16 204.837 29C204.557 28.96 204.317 28.8 204.277 28.6C204.197 28.4 204.277 28.16 204.437 28C205.037 27.32 206.437 26.56 207.397 26.44C207.557 26.4 207.757 26.44 207.917 26.52C208.197 26.64 208.317 26.88 208.317 27.24C208.317 27.92 208.277 28.52 208.237 29.16C208.237 29.36 208.477 29.44 208.637 29.28C209.717 28.04 211.277 26.44 213.037 26.44C216.157 26.44 216.157 30.32 216.157 32.6V40.8C216.157 42 215.997 43.28 217.557 43.52ZM227.226 39.8V38.6C227.226 38.48 227.146 38.36 226.946 38.36C224.226 38.36 221.986 38.4 221.986 40.6C221.986 41.8 222.066 43.32 224.066 43.32C225.746 43.32 227.226 41.36 227.226 39.8ZM231.986 42.6C232.186 42.72 232.266 43 232.146 43.16C231.466 44.12 230.106 45.48 228.906 45.48C227.906 45.48 227.506 44.24 227.346 43.36C227.306 43.16 226.986 43.04 226.826 43.28C225.946 44.36 224.586 45.48 222.866 45.48C220.546 45.48 219.866 42.68 219.866 41.32C219.866 37.92 221.786 37.32 226.946 37.28C227.146 37.28 227.226 37.16 227.226 37V32.12C227.226 30.8 227.146 28.36 224.826 28.36C223.466 28.36 221.986 30.32 222.786 32.24C222.946 32.64 222.266 33.4 221.506 33.4C220.586 33.4 220.186 32.64 220.186 31.92C220.186 30.24 221.666 28.88 223.186 27.76C223.946 27.2 224.826 26.44 225.946 26.44C228.626 26.44 229.346 29.2 229.346 30.8V40.88C229.346 42.24 229.546 43 230.106 43.12C230.506 43.24 230.866 43.08 231.266 42.68C231.466 42.48 231.746 42.44 231.986 42.6ZM238.349 43.52C238.749 43.6 238.949 43.84 238.949 44.2C238.949 44.6 238.549 44.84 238.149 44.84C237.509 44.8 236.669 44.8 235.989 44.8C235.309 44.8 234.549 44.8 233.869 44.84C233.389 44.84 233.069 44.56 233.029 44.2C233.029 43.88 233.229 43.6 233.589 43.52C234.989 43.28 234.909 41.92 234.909 40.8V20C234.909 18.8 235.029 17.44 233.229 17.28C232.949 17.24 232.709 17.08 232.669 16.88C232.549 16.68 232.629 16.44 232.789 16.24C233.549 15.48 235.029 14.6 236.149 14.4C236.349 14.36 236.629 14.44 236.789 14.56C237.029 14.68 237.149 14.88 237.149 15.08C237.069 16.32 237.029 17.4 237.029 18.72V40.8C237.029 42 236.949 43.28 238.349 43.52ZM242.765 32.44C242.725 32.68 242.845 32.92 243.165 32.92H245.725C247.885 32.92 248.685 32.44 248.685 31.16C248.685 29.84 247.925 27.84 246.045 27.84C243.805 27.84 243.045 30.76 242.765 32.44ZM250.885 40.48C251.165 40.6 251.245 40.88 251.165 41.08C250.405 42.8 248.645 45.48 246.085 45.48C241.685 45.48 240.565 39 240.565 36.48C240.565 33.64 241.365 26.44 246.205 26.44C249.845 26.44 250.845 30.68 250.885 32.88C250.885 33.28 250.925 33.92 250.165 33.96H243.045C242.725 33.96 242.565 34.16 242.525 34.44C242.485 35.12 242.525 35.76 242.565 36.48C242.645 38.24 243.405 43 246.645 43C248.325 43 249.445 41.84 250.165 40.72C250.325 40.48 250.565 40.36 250.885 40.48Z" fill="black"/>
</g>
<defs>
<filter id="filter0_g_183_123" x="4.88162e-05" y="4.88162e-05" width="326.6" height="59.6" filterUnits="userSpaceOnUse" color-interpolation-filters="sRGB">
<feFlood flood-opacity="0" result="BackgroundImageFix"/>
<feBlend mode="normal" in="SourceGraphic" in2="BackgroundImageFix" result="shape"/>
<feTurbulence type="fractalNoise" baseFrequency="1.1111111640930176 1.1111111640930176" numOctaves="3" seed="8928" />
<feDisplacementMap in="shape" scale="1.6000000238418579" xChannelSelector="R" yChannelSelector="G" result="displacedImage" width="100%" height="100%" />
<feMerge result="effect1_texture_183_123">
<feMergeNode in="displacedImage"/>
</feMerge>
</filter>
</defs>
</svg>
