<svg width="327" height="62" viewBox="0 0 327 62" fill="none" xmlns="http://www.w3.org/2000/svg">
<g filter="url(#filter0_g_8_33)">
<rect x="1" y="1" width="325" height="60" rx="29" fill="#988E86" fill-opacity="0.5"/>
<rect x="2.5" y="2.5" width="322" height="57" rx="27.5" stroke="black" stroke-width="3"/>
<path d="M62.8572 38.68C63.2572 38.68 63.4572 38.96 63.3772 39.28C63.1372 40.52 62.5772 43.24 62.3772 44.48C62.2972 44.84 61.9772 45.08 61.4972 45.08C59.4172 45.04 58.7372 45 56.6572 45C54.5772 45 52.3372 45.04 50.2572 45.08C49.8172 45.08 49.5372 44.8 49.5372 44.44C49.5372 44.16 49.7372 43.88 50.1372 43.8C52.0572 43.56 52.1772 41.68 52.1772 39.96V21.76C52.1772 20.2 52.2172 18.48 50.2172 18.24C49.7772 18.2 49.5772 17.92 49.5772 17.6C49.5772 17.24 49.8972 16.92 50.3772 16.96C51.2972 17 52.4172 17 53.2972 17C54.1772 17 55.2972 17.04 56.2172 16.96C56.6972 16.96 57.0172 17.24 57.0172 17.6C57.0172 17.92 56.8172 18.2 56.3772 18.24C54.4172 18.48 54.4172 20.2 54.4172 21.76V40.2C54.4172 43 55.0972 43.96 57.6572 43.96C61.3772 43.96 61.7372 41.6 62.2972 39.12C62.3772 38.88 62.5772 38.68 62.8572 38.68ZM72.4069 40V38.8C72.4069 38.68 72.3269 38.56 72.1269 38.56C69.4069 38.56 67.1669 38.6 67.1669 40.8C67.1669 42 67.2469 43.52 69.2469 43.52C70.9269 43.52 72.4069 41.56 72.4069 40ZM77.1669 42.8C77.3669 42.92 77.4469 43.2 77.3269 43.36C76.6469 44.32 75.2869 45.68 74.0869 45.68C73.0869 45.68 72.6869 44.44 72.5269 43.56C72.4869 43.36 72.1669 43.24 72.0069 43.48C71.1269 44.56 69.7669 45.68 68.0469 45.68C65.7269 45.68 65.0469 42.88 65.0469 41.52C65.0469 38.12 66.9669 37.52 72.1269 37.48C72.3269 37.48 72.4069 37.36 72.4069 37.2V32.32C72.4069 31 72.3269 28.56 70.0069 28.56C68.6469 28.56 67.1669 30.52 67.9669 32.44C68.1269 32.84 67.4469 33.6 66.6869 33.6C65.7669 33.6 65.3669 32.84 65.3669 32.12C65.3669 30.44 66.8469 29.08 68.3669 27.96C69.1269 27.4 70.0069 26.64 71.1269 26.64C73.8069 26.64 74.5269 29.4 74.5269 31V41.08C74.5269 42.44 74.7269 43.2 75.2869 43.32C75.6869 43.44 76.0469 43.28 76.4469 42.88C76.6469 42.68 76.9269 42.64 77.1669 42.8ZM95.4413 35.2C97.7213 36.84 98.6813 37.8 98.6813 40.2C98.6813 42.44 97.5613 45.68 94.0013 45.68C92.8813 45.68 91.8013 45.24 90.9613 44.68C90.7213 44.48 90.5613 44.2 90.5213 43.92L90.2013 39.88C90.2013 39.68 90.3613 39.44 90.6813 39.44C90.9613 39.44 91.1213 39.6 91.1613 39.8C91.3613 41.36 91.9613 44.32 94.2013 44.32C96.1613 44.32 96.7213 42.88 96.7213 41.64C96.7213 39.6 95.6813 38.6 93.8013 37.16C91.6813 35.56 90.4413 34.12 90.4413 31.8C90.4413 29.84 91.6013 26.64 94.7213 26.64C95.4413 26.64 97.8813 27.16 97.8813 28.2L98.0413 31.68C98.0813 31.88 97.8813 32.08 97.6013 32.08C97.3213 32.08 97.1613 31.92 97.1213 31.72C96.9613 30.4 96.5213 28.04 94.4413 28.04C92.7213 28.04 92.0813 29.48 92.0813 30.52C92.0813 32.6 93.6413 33.92 95.4413 35.2ZM108.12 42.36C108.32 42.48 108.44 42.76 108.28 42.92C107.48 44.08 106 45.68 104.4 45.68C102.08 45.68 101.68 43.2 101.68 41.88V29.16C101.68 28.92 101.56 28.76 101.32 28.76H100.52C100.08 28.76 99.8403 28.52 99.8403 28.2C99.8403 27.96 99.9603 27.8 100.2 27.68C102.08 27.04 102.56 25.2 102.72 23.56C102.72 23.32 102.96 23.12 103.24 23.12C103.52 23.12 103.8 23.32 103.8 23.6V27.32C103.8 27.52 103.92 27.72 104.2 27.72H107.4C107.8 27.72 108 27.96 108 28.24C108 28.56 107.76 28.76 107.4 28.76H104.2C103.92 28.76 103.8 28.92 103.8 29.16V40C103.8 40.76 103.72 43.56 105.2 43.56C105.84 43.56 106.8 43.04 107.4 42.48C107.6 42.32 107.88 42.24 108.12 42.36ZM120.333 36.4C120.213 34.32 119.293 27.8 115.613 27.88C112.093 28 111.893 33.96 112.013 36C112.133 38.04 113.133 44.56 116.693 44.44C120.173 44.36 120.413 38.44 120.333 36.4ZM122.733 36.12C122.733 39 121.173 45.72 116.333 45.72C111.013 45.72 109.573 39.4 109.573 36.28C109.573 33.36 111.013 26.68 115.973 26.68C121.373 26.68 122.733 32.96 122.733 36.12ZM132.221 26.68C133.621 26.68 134.021 27.84 134.021 28.64C134.021 29.24 133.661 30.6 132.701 30.6C131.741 30.6 131.741 29.32 130.781 29.32C129.461 29.32 128.421 31.6 128.421 33V41.04C128.421 42.88 128.501 43.64 130.661 43.76C131.101 43.8 131.381 44.08 131.381 44.44C131.341 44.8 131.021 45.04 130.581 45.04C129.781 45 128.901 45 128.101 45C127.101 45 126.021 45 124.981 45.04C124.501 45.04 124.221 44.76 124.221 44.4C124.221 44 124.501 43.8 124.861 43.72C126.341 43.56 126.341 42.44 126.341 41.04V32.08C126.341 30.56 126.261 29.36 125.061 29.2C124.781 29.16 124.541 29 124.501 28.8C124.381 28.6 124.461 28.36 124.621 28.2C125.221 27.52 126.621 26.8 127.581 26.64C127.701 26.64 127.901 26.64 128.061 26.68C128.381 26.8 128.541 27.04 128.541 27.44C128.501 28.24 128.461 28.84 128.461 29.6C128.421 29.84 128.741 29.92 128.821 29.76C129.581 28.48 131.021 26.68 132.221 26.68ZM139.558 18.88C139.558 19.92 138.718 20.76 137.718 20.76C136.678 20.76 135.838 19.92 135.838 18.88C135.838 17.88 136.678 17.04 137.718 17.04C138.718 17.04 139.558 17.88 139.558 18.88ZM140.638 43.72C141.038 43.8 141.238 44.04 141.238 44.36C141.238 44.76 140.878 45.04 140.438 45.04C139.758 45 138.998 45 138.318 45C137.638 45 136.878 45 136.198 45.04C135.757 45.04 135.358 44.76 135.358 44.36C135.358 44.08 135.558 43.8 135.918 43.72C137.278 43.52 137.238 42.4 137.238 41.24V31.92C137.238 30.44 137.158 29.36 135.958 29.2C135.678 29.16 135.478 29 135.398 28.8C135.318 28.6 135.358 28.36 135.558 28.2C136.158 27.52 137.558 26.76 138.518 26.64C138.598 26.6 138.838 26.64 138.998 26.68C139.318 26.8 139.438 27.04 139.438 27.4C139.398 28.68 139.318 29.64 139.318 30.92V41.24C139.318 42.44 139.318 43.52 140.638 43.72ZM150.532 40V38.8C150.532 38.68 150.452 38.56 150.252 38.56C147.532 38.56 145.292 38.6 145.292 40.8C145.292 42 145.372 43.52 147.372 43.52C149.052 43.52 150.532 41.56 150.532 40ZM155.292 42.8C155.492 42.92 155.572 43.2 155.452 43.36C154.772 44.32 153.412 45.68 152.212 45.68C151.212 45.68 150.812 44.44 150.652 43.56C150.612 43.36 150.292 43.24 150.132 43.48C149.252 44.56 147.892 45.68 146.172 45.68C143.852 45.68 143.172 42.88 143.172 41.52C143.172 38.12 145.092 37.52 150.252 37.48C150.452 37.48 150.532 37.36 150.532 37.2V32.32C150.532 31 150.452 28.56 148.132 28.56C146.772 28.56 145.292 30.52 146.092 32.44C146.252 32.84 145.572 33.6 144.812 33.6C143.892 33.6 143.492 32.84 143.492 32.12C143.492 30.44 144.972 29.08 146.492 27.96C147.252 27.4 148.132 26.64 149.252 26.64C151.932 26.64 152.652 29.4 152.652 31V41.08C152.652 42.44 152.852 43.2 153.412 43.32C153.812 43.44 154.172 43.28 154.572 42.88C154.772 42.68 155.052 42.64 155.292 42.8ZM174.766 43.2C176.206 43.2 177.846 41.8 177.846 40.6V31.6C177.846 30.16 177.166 27.96 174.806 27.96C171.126 27.96 170.446 32.68 170.446 35.8C170.446 38.08 171.206 43.2 174.766 43.2ZM182.646 42.84C182.806 42.96 182.846 43.2 182.726 43.36C182.086 44.32 180.686 45.68 179.486 45.68C178.526 45.68 178.126 44.44 177.926 43.48C177.886 43.28 177.646 43.2 177.446 43.4C176.566 44.52 175.206 45.68 173.646 45.68C169.326 45.68 168.206 39.16 168.206 36.8C168.206 33.6 169.886 26.68 175.126 26.68C175.966 26.68 176.766 26.96 177.406 27.36C177.606 27.48 177.846 27.4 177.846 27.16V20.24C177.846 19.04 178.006 17.68 176.126 17.52C175.846 17.48 175.646 17.28 175.566 17.08C175.486 16.88 175.566 16.64 175.726 16.48C176.486 15.72 177.966 14.84 179.086 14.64C179.246 14.6 179.406 14.64 179.526 14.68C179.846 14.8 180.086 15.04 180.046 15.32C179.966 16.56 179.926 17.64 179.926 19.08V41.12C179.926 42.44 180.126 43.2 180.686 43.32C181.086 43.44 181.526 43.24 181.926 42.88C182.086 42.68 182.406 42.64 182.646 42.84ZM188.308 18.88C188.308 19.92 187.468 20.76 186.468 20.76C185.428 20.76 184.588 19.92 184.588 18.88C184.588 17.88 185.428 17.04 186.468 17.04C187.468 17.04 188.308 17.88 188.308 18.88ZM189.388 43.72C189.788 43.8 189.988 44.04 189.988 44.36C189.988 44.76 189.628 45.04 189.188 45.04C188.508 45 187.748 45 187.068 45C186.388 45 185.628 45 184.948 45.04C184.507 45.04 184.108 44.76 184.108 44.36C184.108 44.08 184.308 43.8 184.668 43.72C186.028 43.52 185.988 42.4 185.988 41.24V31.92C185.988 30.44 185.908 29.36 184.708 29.2C184.428 29.16 184.228 29 184.148 28.8C184.068 28.6 184.108 28.36 184.308 28.2C184.908 27.52 186.308 26.76 187.268 26.64C187.348 26.6 187.588 26.64 187.748 26.68C188.068 26.8 188.188 27.04 188.188 27.4C188.148 28.68 188.068 29.64 188.068 30.92V41.24C188.068 42.44 188.068 43.52 189.388 43.72ZM215.994 16.92C216.394 16.88 216.674 17.16 216.674 17.44V22.72C216.674 23 216.434 23.16 216.154 23.16C215.874 23.16 215.634 23 215.594 22.76C215.434 20.36 215.474 18.12 211.914 18.12H209.554C208.994 18.12 208.714 18.52 208.714 18.96V29.28C208.714 29.64 208.914 29.92 209.354 29.92H212.434C214.314 29.92 214.314 28.12 214.354 26.92C214.354 26.68 214.554 26.48 214.874 26.48C215.154 26.48 215.354 26.68 215.354 26.92V34.36C215.354 34.6 215.154 34.8 214.874 34.8C214.554 34.8 214.354 34.6 214.354 34.36C214.354 33.04 214.474 30.96 212.394 30.96H209.354C208.914 30.96 208.714 31.24 208.714 31.6V40.12C208.714 41.68 208.634 43.48 210.674 43.72C211.074 43.8 211.314 44.04 211.314 44.36C211.314 44.76 210.994 45.04 210.514 45.04C209.594 44.96 208.474 45 207.594 45C206.674 45 205.594 45 204.674 45.04C204.154 45.08 203.834 44.76 203.834 44.4C203.834 44.08 204.034 43.8 204.474 43.72C206.514 43.48 206.474 41.72 206.474 40.12V21.6C206.474 20 206.554 18.4 204.474 18.2C204.074 18.16 203.794 17.88 203.794 17.56C203.794 17.2 204.114 16.92 204.594 16.92C206.394 16.96 208.114 17 210.114 17C212.114 17 214.114 16.96 215.994 16.92ZM226.157 40V38.8C226.157 38.68 226.077 38.56 225.877 38.56C223.157 38.56 220.917 38.6 220.917 40.8C220.917 42 220.997 43.52 222.997 43.52C224.677 43.52 226.157 41.56 226.157 40ZM230.917 42.8C231.117 42.92 231.197 43.2 231.077 43.36C230.397 44.32 229.037 45.68 227.837 45.68C226.837 45.68 226.437 44.44 226.277 43.56C226.237 43.36 225.917 43.24 225.757 43.48C224.877 44.56 223.517 45.68 221.797 45.68C219.477 45.68 218.797 42.88 218.797 41.52C218.797 38.12 220.717 37.52 225.877 37.48C226.077 37.48 226.157 37.36 226.157 37.2V32.32C226.157 31 226.077 28.56 223.757 28.56C222.397 28.56 220.917 30.52 221.717 32.44C221.877 32.84 221.197 33.6 220.437 33.6C219.517 33.6 219.117 32.84 219.117 32.12C219.117 30.44 220.597 29.08 222.117 27.96C222.877 27.4 223.757 26.64 224.877 26.64C227.557 26.64 228.277 29.4 228.277 31V41.08C228.277 42.44 228.477 43.2 229.037 43.32C229.437 43.44 229.797 43.28 230.197 42.88C230.397 42.68 230.677 42.64 230.917 42.8ZM245.688 42.84C245.848 42.96 245.888 43.2 245.768 43.36C245.128 44.32 243.768 45.68 242.568 45.68C241.568 45.68 241.128 44.08 240.967 42.96C240.967 42.76 240.648 42.68 240.488 42.88C239.408 44.12 237.848 45.68 236.088 45.68C232.968 45.68 232.968 41.8 232.968 39.52V31.96C232.968 30.44 232.888 29.36 231.648 29.24C231.368 29.2 231.168 29.04 231.128 28.84C231.008 28.6 231.088 28.4 231.248 28.2C231.888 27.56 233.248 26.8 234.208 26.68C234.328 26.64 234.568 26.64 234.688 26.72C235.008 26.8 235.168 27.08 235.168 27.44C235.128 28.48 235.088 29.8 235.048 30.84V37.16C235.048 39 234.728 43.44 237.408 43.44C238.528 43.44 239.968 42.08 240.648 41.28C240.808 41.04 240.928 40.8 240.928 40.56V31.96C240.928 30.44 240.848 29.36 239.608 29.24C239.328 29.2 239.128 29.04 239.048 28.84C238.968 28.6 239.048 28.4 239.208 28.2C239.808 27.56 241.208 26.8 242.168 26.68C242.288 26.64 242.488 26.64 242.648 26.72C242.968 26.8 243.128 27.08 243.088 27.44C243.088 28.48 243.008 29.8 243.008 30.84V40.72C243.008 42.04 243.208 43.2 243.768 43.32C244.168 43.44 244.488 43.28 244.928 42.88C245.128 42.68 245.448 42.64 245.688 42.84ZM252.201 43.72C252.601 43.8 252.801 44.04 252.801 44.4C252.801 44.8 252.401 45.04 252.001 45.04C251.361 45 250.521 45 249.841 45C249.161 45 248.401 45 247.721 45.04C247.241 45.04 246.921 44.76 246.881 44.4C246.881 44.08 247.081 43.8 247.441 43.72C248.841 43.48 248.761 42.12 248.761 41V20.2C248.761 19 248.881 17.64 247.081 17.48C246.801 17.44 246.561 17.28 246.521 17.08C246.401 16.88 246.481 16.64 246.641 16.44C247.401 15.68 248.881 14.8 250.001 14.6C250.201 14.56 250.481 14.64 250.641 14.76C250.881 14.88 251.001 15.08 251.001 15.28C250.921 16.52 250.881 17.6 250.881 18.92V41C250.881 42.2 250.801 43.48 252.201 43.72ZM268.417 44.32C268.497 44.68 268.177 45 267.697 45C267.297 45 266.817 45 266.417 45C265.977 45 265.457 45 264.937 45C264.657 45 264.417 44.88 264.297 44.68C264.097 44.28 263.857 43.84 263.497 43.32L259.457 36.8C259.377 36.68 259.177 36.68 259.097 36.76L258.577 37.36C258.497 37.48 258.457 37.6 258.457 37.72V41C258.457 42.2 258.417 43.48 259.777 43.72C260.177 43.8 260.377 44.08 260.377 44.4C260.377 44.76 260.057 45.04 259.577 45.04C258.937 45 258.097 45 257.417 45C256.737 45 256.017 45 255.337 45.04C254.817 45.04 254.537 44.8 254.497 44.44C254.457 44.04 254.697 43.8 255.057 43.72C256.417 43.48 256.337 42.12 256.337 41V20.2C256.337 19 256.537 17.64 254.657 17.48C254.377 17.44 254.137 17.28 254.097 17.08C254.017 16.88 254.057 16.64 254.217 16.44C254.977 15.68 256.457 14.8 257.577 14.6C257.777 14.6 257.977 14.64 258.177 14.72C258.417 14.84 258.577 15.04 258.577 15.28C258.497 16.52 258.457 17.6 258.457 18.92V35.12C258.457 35.32 258.697 35.36 258.817 35.24L262.377 31C263.137 30.08 263.577 29.48 263.577 29.12C263.577 28.84 263.217 28.68 262.777 28.6C262.417 28.52 262.217 28.28 262.217 27.96C262.217 27.52 262.577 27.28 263.057 27.28C263.737 27.32 264.537 27.32 265.057 27.32C265.497 27.32 266.297 27.32 266.897 27.28C267.417 27.28 267.737 27.56 267.737 27.96C267.697 28.32 267.457 28.56 267.097 28.64C265.857 28.88 264.977 29.76 264.217 30.72L260.897 34.64C260.737 34.84 260.737 35.08 260.857 35.32L265.217 42.04C265.897 43.08 266.537 43.6 267.817 43.76C268.177 43.8 268.377 44.04 268.417 44.32ZM274.504 35.2C276.784 36.84 277.744 37.8 277.744 40.2C277.744 42.44 276.624 45.68 273.064 45.68C271.944 45.68 270.864 45.24 270.024 44.68C269.784 44.48 269.624 44.2 269.584 43.92L269.264 39.88C269.264 39.68 269.424 39.44 269.744 39.44C270.024 39.44 270.184 39.6 270.224 39.8C270.424 41.36 271.024 44.32 273.264 44.32C275.224 44.32 275.784 42.88 275.784 41.64C275.784 39.6 274.744 38.6 272.864 37.16C270.744 35.56 269.504 34.12 269.504 31.8C269.504 29.84 270.664 26.64 273.784 26.64C274.504 26.64 276.944 27.16 276.944 28.2L277.104 31.68C277.144 31.88 276.944 32.08 276.664 32.08C276.384 32.08 276.224 31.92 276.184 31.72C276.024 30.4 275.584 28.04 273.504 28.04C271.784 28.04 271.144 29.48 271.144 30.52C271.144 32.6 272.704 33.92 274.504 35.2Z" fill="black"/>
</g>
<defs>
<filter id="filter0_g_8_33" x="0.2" y="0.2" width="326.6" height="61.6" filterUnits="userSpaceOnUse" color-interpolation-filters="sRGB">
<feFlood flood-opacity="0" result="BackgroundImageFix"/>
<feBlend mode="normal" in="SourceGraphic" in2="BackgroundImageFix" result="shape"/>
<feTurbulence type="fractalNoise" baseFrequency="1.1111111640930176 1.1111111640930176" numOctaves="3" seed="8928" />
<feDisplacementMap in="shape" scale="1.6000000238418579" xChannelSelector="R" yChannelSelector="G" result="displacedImage" width="100%" height="100%" />
<feMerge result="effect1_texture_8_33">
<feMergeNode in="displacedImage"/>
</feMerge>
</filter>
</defs>
</svg>
