<svg width="327" height="62" viewBox="0 0 327 62" fill="none" xmlns="http://www.w3.org/2000/svg">
<g style="mix-blend-mode:color-burn" filter="url(#filter0_g_17_23)">
<rect x="1" y="1" width="325" height="60" rx="29" fill="#988E86" fill-opacity="0.53"/>
<rect x="2.5" y="2.5" width="322" height="57" rx="27.5" stroke="black" stroke-width="3"/>
<path d="M132.147 40.12V21.76C132.147 20.2 132.147 18.48 130.147 18.24C129.747 18.2 129.507 17.92 129.507 17.6C129.507 17.2 129.827 16.92 130.307 16.96C131.227 17 132.347 17 133.227 17C134.147 17 135.267 17 136.187 16.96C136.667 16.92 136.987 17.24 136.987 17.6C136.987 17.96 136.707 18.2 136.347 18.24C134.347 18.48 134.387 20.2 134.387 21.76V40.12C134.387 41.68 134.347 43.48 136.347 43.72C136.747 43.8 136.987 44.04 136.987 44.36C136.987 44.8 136.587 45.04 136.187 45.04C135.227 44.96 134.147 45 133.267 45C132.347 45 131.267 45 130.347 45.04C129.827 45.08 129.507 44.76 129.507 44.4C129.507 44.08 129.747 43.8 130.147 43.72C132.147 43.48 132.147 41.72 132.147 40.12ZM158.98 42.36C159.18 42.48 159.3 42.76 159.14 42.92C158.34 44.08 156.86 45.68 155.26 45.68C152.94 45.68 152.54 43.2 152.54 41.88V29.16C152.54 28.92 152.42 28.76 152.18 28.76H151.38C150.94 28.76 150.7 28.52 150.7 28.2C150.7 27.96 150.82 27.8 151.06 27.68C152.94 27.04 153.42 25.2 153.58 23.56C153.58 23.32 153.82 23.12 154.1 23.12C154.38 23.12 154.66 23.32 154.66 23.6V27.32C154.66 27.52 154.78 27.72 155.06 27.72H158.26C158.66 27.72 158.86 27.96 158.86 28.24C158.86 28.56 158.62 28.76 158.26 28.76H155.06C154.78 28.76 154.66 28.92 154.66 29.16V40C154.66 40.76 154.58 43.56 156.06 43.56C156.7 43.56 157.66 43.04 158.26 42.48C158.46 42.32 158.74 42.24 158.98 42.36ZM162.672 32.64C162.632 32.88 162.752 33.12 163.072 33.12H165.632C167.792 33.12 168.592 32.64 168.592 31.36C168.592 30.04 167.832 28.04 165.952 28.04C163.712 28.04 162.952 30.96 162.672 32.64ZM170.792 40.68C171.072 40.8 171.152 41.08 171.072 41.28C170.312 43 168.552 45.68 165.992 45.68C161.592 45.68 160.472 39.2 160.472 36.68C160.472 33.84 161.272 26.64 166.112 26.64C169.752 26.64 170.752 30.88 170.792 33.08C170.792 33.48 170.832 34.12 170.072 34.16H162.952C162.632 34.16 162.472 34.36 162.432 34.64C162.392 35.32 162.432 35.96 162.472 36.68C162.552 38.44 163.312 43.2 166.552 43.2C168.232 43.2 169.352 42.04 170.072 40.92C170.232 40.68 170.472 40.56 170.792 40.68ZM177.668 35.2C179.948 36.84 180.908 37.8 180.908 40.2C180.908 42.44 179.788 45.68 176.228 45.68C175.108 45.68 174.028 45.24 173.188 44.68C172.948 44.48 172.788 44.2 172.748 43.92L172.428 39.88C172.428 39.68 172.588 39.44 172.908 39.44C173.188 39.44 173.348 39.6 173.388 39.8C173.588 41.36 174.188 44.32 176.428 44.32C178.388 44.32 178.948 42.88 178.948 41.64C178.948 39.6 177.908 38.6 176.028 37.16C173.908 35.56 172.668 34.12 172.668 31.8C172.668 29.84 173.828 26.64 176.948 26.64C177.668 26.64 180.108 27.16 180.108 28.2L180.268 31.68C180.308 31.88 180.108 32.08 179.828 32.08C179.548 32.08 179.388 31.92 179.348 31.72C179.188 30.4 178.748 28.04 176.668 28.04C174.948 28.04 174.308 29.48 174.308 30.52C174.308 32.6 175.868 33.92 177.668 35.2ZM190.347 42.36C190.547 42.48 190.667 42.76 190.507 42.92C189.707 44.08 188.227 45.68 186.627 45.68C184.307 45.68 183.907 43.2 183.907 41.88V29.16C183.907 28.92 183.787 28.76 183.547 28.76H182.747C182.307 28.76 182.067 28.52 182.067 28.2C182.067 27.96 182.187 27.8 182.427 27.68C184.307 27.04 184.787 25.2 184.947 23.56C184.947 23.32 185.187 23.12 185.467 23.12C185.747 23.12 186.027 23.32 186.027 23.6V27.32C186.027 27.52 186.147 27.72 186.427 27.72H189.627C190.027 27.72 190.227 27.96 190.227 28.24C190.227 28.56 189.987 28.76 189.627 28.76H186.427C186.147 28.76 186.027 28.92 186.027 29.16V40C186.027 40.76 185.947 43.56 187.427 43.56C188.067 43.56 189.027 43.04 189.627 42.48C189.827 42.32 190.107 42.24 190.347 42.36ZM196.159 18.88C196.159 19.92 195.319 20.76 194.319 20.76C193.279 20.76 192.439 19.92 192.439 18.88C192.439 17.88 193.279 17.04 194.319 17.04C195.319 17.04 196.159 17.88 196.159 18.88ZM197.239 43.72C197.639 43.8 197.839 44.04 197.839 44.36C197.839 44.76 197.479 45.04 197.039 45.04C196.359 45 195.599 45 194.919 45C194.239 45 193.479 45 192.799 45.04C192.359 45.04 191.959 44.76 191.959 44.36C191.959 44.08 192.159 43.8 192.519 43.72C193.879 43.52 193.839 42.4 193.839 41.24V31.92C193.839 30.44 193.759 29.36 192.559 29.2C192.279 29.16 192.079 29 191.999 28.8C191.919 28.6 191.959 28.36 192.159 28.2C192.759 27.52 194.159 26.76 195.119 26.64C195.199 26.6 195.439 26.64 195.599 26.68C195.919 26.8 196.039 27.04 196.039 27.4C195.999 28.68 195.919 29.64 195.919 30.92V41.24C195.919 42.44 195.919 43.52 197.239 43.72Z" fill="black"/>
</g>
<defs>
<filter id="filter0_g_17_23" x="0.2" y="0.2" width="326.6" height="61.6" filterUnits="userSpaceOnUse" color-interpolation-filters="sRGB">
<feFlood flood-opacity="0" result="BackgroundImageFix"/>
<feBlend mode="normal" in="SourceGraphic" in2="BackgroundImageFix" result="shape"/>
<feTurbulence type="fractalNoise" baseFrequency="1.1111111640930176 1.1111111640930176" numOctaves="3" seed="8928" />
<feDisplacementMap in="shape" scale="1.6000000238418579" xChannelSelector="R" yChannelSelector="G" result="displacedImage" width="100%" height="100%" />
<feMerge result="effect1_texture_17_23">
<feMergeNode in="displacedImage"/>
</feMerge>
</filter>
</defs>
</svg>
