<svg width="73" height="32" viewBox="0 0 73 32" fill="none" xmlns="http://www.w3.org/2000/svg">
<path d="M4.067 24.937V5.8885C4.067 4.27 4.067 2.4855 1.992 2.2365C1.577 2.195 1.328 1.9045 1.328 1.5725C1.328 1.1575 1.66 0.866999 2.158 0.908499C3.1125 0.949998 4.2745 0.949998 5.1875 0.949998C6.142 0.949998 7.304 0.949998 8.2585 0.908499C8.7565 0.866999 9.0885 1.199 9.0885 1.5725C9.0885 1.946 8.798 2.195 8.4245 2.2365C6.3495 2.4855 6.391 4.27 6.391 5.8885V24.937C6.391 26.5555 6.3495 28.423 8.4245 28.672C8.8395 28.755 9.0885 29.004 9.0885 29.336C9.0885 29.7925 8.6735 30.0415 8.2585 30.0415C7.2625 29.9585 6.142 30 5.229 30C4.2745 30 3.154 30 2.1995 30.0415C1.66 30.083 1.328 29.751 1.328 29.3775C1.328 29.0455 1.577 28.755 1.992 28.672C4.067 28.423 4.067 26.597 4.067 24.937ZM31.9064 27.261C32.1139 27.3855 32.2384 27.676 32.0724 27.842C31.2424 29.0455 29.7069 30.7055 28.0469 30.7055C25.6399 30.7055 25.2249 28.1325 25.2249 26.763V13.566C25.2249 13.317 25.1004 13.151 24.8514 13.151H24.0214C23.5649 13.151 23.3159 12.902 23.3159 12.57C23.3159 12.321 23.4404 12.155 23.6894 12.0305C25.6399 11.3665 26.1379 9.4575 26.3039 7.756C26.3039 7.507 26.5529 7.2995 26.8434 7.2995C27.1339 7.2995 27.4244 7.507 27.4244 7.7975V11.657C27.4244 11.8645 27.5489 12.072 27.8394 12.072H31.1594C31.5744 12.072 31.7819 12.321 31.7819 12.6115C31.7819 12.9435 31.5329 13.151 31.1594 13.151H27.8394C27.5489 13.151 27.4244 13.317 27.4244 13.566V24.8125C27.4244 25.601 27.3414 28.506 28.8769 28.506C29.5409 28.506 30.5369 27.9665 31.1594 27.3855C31.3669 27.2195 31.6574 27.1365 31.9064 27.261ZM35.737 17.1765C35.6955 17.4255 35.82 17.6745 36.152 17.6745H38.808C41.049 17.6745 41.879 17.1765 41.879 15.8485C41.879 14.479 41.0905 12.404 39.14 12.404C36.816 12.404 36.0275 15.4335 35.737 17.1765ZM44.1615 25.518C44.452 25.6425 44.535 25.933 44.452 26.1405C43.6635 27.925 41.8375 30.7055 39.1815 30.7055C34.6165 30.7055 33.4545 23.9825 33.4545 21.368C33.4545 18.4215 34.2845 10.9515 39.306 10.9515C43.0825 10.9515 44.12 15.3505 44.1615 17.633C44.1615 18.048 44.203 18.712 43.4145 18.7535H36.0275C35.6955 18.7535 35.5295 18.961 35.488 19.2515C35.4465 19.957 35.488 20.621 35.5295 21.368C35.6125 23.194 36.401 28.1325 39.7625 28.1325C41.5055 28.1325 42.6675 26.929 43.4145 25.767C43.5805 25.518 43.8295 25.3935 44.1615 25.518ZM51.2953 19.8325C53.6608 21.534 54.6568 22.53 54.6568 25.02C54.6568 27.344 53.4948 30.7055 49.8013 30.7055C48.6393 30.7055 47.5188 30.249 46.6473 29.668C46.3983 29.4605 46.2323 29.17 46.1908 28.8795L45.8588 24.688C45.8588 24.4805 46.0248 24.2315 46.3568 24.2315C46.6473 24.2315 46.8133 24.3975 46.8548 24.605C47.0623 26.2235 47.6848 29.2945 50.0088 29.2945C52.0423 29.2945 52.6233 27.8005 52.6233 26.514C52.6233 24.3975 51.5443 23.36 49.5938 21.866C47.3943 20.206 46.1078 18.712 46.1078 16.305C46.1078 14.2715 47.3113 10.9515 50.5483 10.9515C51.2953 10.9515 53.8268 11.491 53.8268 12.57L53.9928 16.1805C54.0343 16.388 53.8268 16.5955 53.5363 16.5955C53.2458 16.5955 53.0798 16.4295 53.0383 16.222C52.8723 14.8525 52.4158 12.404 50.2578 12.404C48.4733 12.404 47.8093 13.898 47.8093 14.977C47.8093 17.135 49.4278 18.5045 51.2953 19.8325ZM64.4498 27.261C64.6573 27.3855 64.7818 27.676 64.6158 27.842C63.7858 29.0455 62.2503 30.7055 60.5903 30.7055C58.1833 30.7055 57.7683 28.1325 57.7683 26.763V13.566C57.7683 13.317 57.6438 13.151 57.3948 13.151H56.5648C56.1083 13.151 55.8593 12.902 55.8593 12.57C55.8593 12.321 55.9838 12.155 56.2328 12.0305C58.1833 11.3665 58.6813 9.4575 58.8473 7.756C58.8473 7.507 59.0963 7.2995 59.3868 7.2995C59.6773 7.2995 59.9678 7.507 59.9678 7.7975V11.657C59.9678 11.8645 60.0923 12.072 60.3828 12.072H63.7028C64.1178 12.072 64.3253 12.321 64.3253 12.6115C64.3253 12.9435 64.0763 13.151 63.7028 13.151H60.3828C60.0923 13.151 59.9678 13.317 59.9678 13.566V24.8125C59.9678 25.601 59.8848 28.506 61.4203 28.506C62.0843 28.506 63.0803 27.9665 63.7028 27.3855C63.9103 27.2195 64.2008 27.1365 64.4498 27.261ZM70.48 2.9005C70.48 3.9795 69.6085 4.851 68.571 4.851C67.492 4.851 66.6205 3.9795 66.6205 2.9005C66.6205 1.863 67.492 0.991497 68.571 0.991497C69.6085 0.991497 70.48 1.863 70.48 2.9005ZM71.6005 28.672C72.0155 28.755 72.223 29.004 72.223 29.336C72.223 29.751 71.8495 30.0415 71.393 30.0415C70.6875 30 69.899 30 69.1935 30C68.488 30 67.6995 30 66.994 30.0415C66.5375 30.0415 66.1225 29.751 66.1225 29.336C66.1225 29.0455 66.33 28.755 66.7035 28.672C68.1145 28.4645 68.073 27.3025 68.073 26.099V16.4295C68.073 14.894 67.99 13.7735 66.745 13.6075C66.4545 13.566 66.247 13.4 66.164 13.1925C66.081 12.985 66.1225 12.736 66.33 12.57C66.9525 11.8645 68.405 11.076 69.401 10.9515C69.484 10.91 69.733 10.9515 69.899 10.993C70.231 11.1175 70.3555 11.3665 70.3555 11.74C70.314 13.068 70.231 14.064 70.231 15.392V26.099C70.231 27.344 70.231 28.4645 71.6005 28.672Z" fill="black"/>
<path d="M1.992 2.2365L2.05158 1.73996L2.04175 1.73898L1.992 2.2365ZM2.158 0.908499L2.11648 1.40677L2.12637 1.4076L2.13628 1.40803L2.158 0.908499ZM8.2585 0.908499L8.28022 1.40803L8.29013 1.4076L8.30002 1.40677L8.2585 0.908499ZM8.4245 2.2365L8.36928 1.73954L8.36493 1.74006L8.4245 2.2365ZM8.4245 28.672L8.52256 28.1817L8.50344 28.1779L8.48407 28.1756L8.4245 28.672ZM8.2585 30.0415L8.21698 30.5398L8.2377 30.5415H8.2585V30.0415ZM2.1995 30.0415L2.17778 29.542L2.16946 29.5423L2.16115 29.543L2.1995 30.0415ZM1.992 28.672L1.93243 28.1756L1.91306 28.1779L1.89394 28.1817L1.992 28.672ZM4.067 24.937H4.567V5.8885H4.067H3.567V24.937H4.067ZM4.067 5.8885H4.567C4.567 5.1056 4.57357 4.15354 4.27476 3.37064C4.11958 2.96408 3.87692 2.585 3.49913 2.29032C3.12183 1.99603 2.64177 1.81088 2.05157 1.74006L1.992 2.2365L1.93243 2.73294C2.37973 2.78661 2.6778 2.91791 2.88409 3.07882C3.08989 3.23934 3.2363 3.45423 3.34049 3.72723C3.56043 4.30346 3.567 5.0529 3.567 5.8885H4.067ZM1.992 2.2365L2.04175 1.73898C1.94155 1.72896 1.88985 1.69307 1.8657 1.66782C1.84111 1.64212 1.828 1.61051 1.828 1.5725H1.328H0.828C0.828 2.18582 1.29673 2.66947 1.94225 2.73402L1.992 2.2365ZM1.328 1.5725H1.828C1.828 1.50562 1.85078 1.47444 1.87362 1.45567C1.9006 1.43351 1.97226 1.39475 2.11648 1.40677L2.158 0.908499L2.19952 0.410226C1.84574 0.380744 1.5024 0.466486 1.23888 0.682947C0.971224 0.902807 0.828 1.22438 0.828 1.5725H1.328ZM2.158 0.908499L2.13628 1.40803C3.10375 1.45009 4.27729 1.45 5.1875 1.45V0.949998V0.449998C4.27171 0.449998 3.12125 0.449906 2.17972 0.40897L2.158 0.908499ZM5.1875 0.949998V1.45C6.13911 1.45 7.31272 1.45009 8.28022 1.40803L8.2585 0.908499L8.23678 0.40897C7.29528 0.449905 6.14489 0.449998 5.1875 0.449998V0.949998ZM8.2585 0.908499L8.30002 1.40677C8.4262 1.39626 8.49881 1.4336 8.53485 1.4645C8.57335 1.4975 8.5885 1.53699 8.5885 1.5725H9.0885H9.5885C9.5885 0.872389 8.9714 0.347358 8.21698 0.410226L8.2585 0.908499ZM9.0885 1.5725H8.5885C8.5885 1.61979 8.57383 1.64579 8.55095 1.66768C8.52234 1.69504 8.46378 1.72906 8.36929 1.73956L8.4245 2.2365L8.47972 2.73344C9.03456 2.67179 9.5885 2.26708 9.5885 1.5725H9.0885ZM8.4245 2.2365L8.36493 1.74006C7.77465 1.81089 7.29581 1.99626 6.9213 2.29233C6.54621 2.58885 6.30928 2.96992 6.16015 3.37691C5.87385 4.15827 5.891 5.11167 5.891 5.8885H6.391H6.891C6.891 5.04683 6.8874 4.29873 7.0991 3.72096C7.19898 3.44839 7.34073 3.23549 7.54146 3.07681C7.74275 2.91768 8.03685 2.7866 8.48407 2.73294L8.4245 2.2365ZM6.391 5.8885H5.891V24.937H6.391H6.891V5.8885H6.391ZM6.391 24.937H5.891C5.891 25.7154 5.87427 26.6861 6.15852 27.4856C6.30604 27.9005 6.54081 28.2922 6.9149 28.5981C7.28963 28.9044 7.77057 29.0971 8.36493 29.1684L8.4245 28.672L8.48407 28.1756C8.04093 28.1224 7.74893 27.9883 7.54785 27.8239C7.34613 27.6589 7.20221 27.436 7.10073 27.1506C6.88699 26.5494 6.891 25.7771 6.891 24.937H6.391ZM8.4245 28.672L8.32644 29.1623C8.46176 29.1894 8.5301 29.2357 8.55857 29.2642C8.58066 29.2863 8.5885 29.305 8.5885 29.336H9.0885H9.5885C9.5885 28.6858 9.08296 28.2938 8.52256 28.1817L8.4245 28.672ZM9.0885 29.336H8.5885C8.5885 29.3942 8.56915 29.4292 8.52491 29.4631C8.4692 29.5058 8.37304 29.5415 8.2585 29.5415V30.0415V30.5415C8.55896 30.5415 8.8778 30.4527 9.13334 30.2567C9.40035 30.052 9.5885 29.7343 9.5885 29.336H9.0885ZM8.2585 30.0415L8.30002 29.5432C7.27639 29.4579 6.11427 29.5 5.229 29.5V30V30.5C6.16973 30.5 7.24861 30.4591 8.21698 30.5398L8.2585 30.0415ZM5.229 30V29.5C4.27719 29.5 3.14522 29.4999 2.17778 29.542L2.1995 30.0415L2.22122 30.541C3.16278 30.5001 4.27181 30.5 5.229 30.5V30ZM2.1995 30.0415L2.16115 29.543C2.00278 29.5552 1.91781 29.511 1.88022 29.4799C1.84171 29.4481 1.828 29.4116 1.828 29.3775H1.328H0.828C0.828 30.0954 1.46379 30.5996 2.23785 30.54L2.1995 30.0415ZM1.328 29.3775H1.828C1.828 29.3412 1.84016 29.305 1.87295 29.2692C1.90697 29.2321 1.97373 29.1856 2.09006 29.1623L1.992 28.672L1.89394 28.1817C1.29348 28.3018 0.828 28.7612 0.828 29.3775H1.328ZM1.992 28.672L2.05157 29.1684C2.64378 29.0974 3.1252 28.9086 3.5029 28.6081C3.8805 28.3077 4.12193 27.9215 4.27608 27.5084C4.57334 26.7118 4.567 25.741 4.567 24.937H4.067H3.567C3.567 25.793 3.56066 26.5652 3.33917 27.1588C3.23394 27.4408 3.08631 27.6616 2.88032 27.8255C2.67443 27.9893 2.37772 28.1221 1.93243 28.1756L1.992 28.672ZM31.9064 27.261L32.1636 26.8323L32.1471 26.8224L32.13 26.8138L31.9064 27.261ZM32.0724 27.842L31.7188 27.4884L31.6866 27.5206L31.6608 27.5581L32.0724 27.842ZM23.6894 12.0305L23.5282 11.5572L23.4961 11.5681L23.4658 11.5833L23.6894 12.0305ZM26.3039 7.756L26.8015 7.80455L26.8039 7.78033V7.756H26.3039ZM31.1594 27.3855L30.847 26.9951L30.8321 27.007L30.8182 27.02L31.1594 27.3855ZM31.9064 27.261L31.6491 27.6897C31.6474 27.6887 31.6504 27.6904 31.6543 27.6953C31.6584 27.7003 31.6575 27.7013 31.6551 27.694C31.6528 27.6872 31.6453 27.6608 31.652 27.6195C31.6594 27.5732 31.6823 27.5249 31.7188 27.4884L32.0724 27.842L32.4259 28.1956C32.6807 27.9408 32.6809 27.6093 32.6038 27.3778C32.5289 27.1532 32.3675 26.9546 32.1636 26.8323L31.9064 27.261ZM32.0724 27.842L31.6608 27.5581C31.2632 28.1346 30.7027 28.8106 30.0554 29.3372C29.4014 29.8691 28.7124 30.2055 28.0469 30.2055V30.7055V31.2055C29.0413 31.2055 29.9501 30.7119 30.6864 30.1129C31.4293 29.5086 32.0515 28.7529 32.484 28.1259L32.0724 27.842ZM28.0469 30.7055V30.2055C27.5397 30.2055 27.1637 30.0718 26.8761 29.8717C26.5838 29.6683 26.3558 29.3771 26.181 29.0253C25.8258 28.3103 25.7249 27.4134 25.7249 26.763H25.2249H24.7249C24.7249 27.4821 24.8315 28.5565 25.2855 29.4703C25.5153 29.933 25.8424 30.3706 26.3049 30.6925C26.772 31.0176 27.3505 31.2055 28.0469 31.2055V30.7055ZM25.2249 26.763H25.7249V13.566H25.2249H24.7249V26.763H25.2249ZM25.2249 13.566H25.7249C25.7249 13.3648 25.6749 13.1308 25.5111 12.9397C25.3372 12.7369 25.0942 12.651 24.8514 12.651V13.151V13.651C24.8581 13.651 24.8457 13.6521 24.8225 13.6424C24.7977 13.632 24.7722 13.6142 24.7519 13.5905C24.7126 13.5447 24.7249 13.5182 24.7249 13.566H25.2249ZM24.8514 13.151V12.651H24.0214V13.151V13.651H24.8514V13.151ZM24.0214 13.151V12.651C23.8815 12.651 23.8322 12.6135 23.8255 12.6077C23.8217 12.6044 23.821 12.6028 23.8204 12.6013C23.8195 12.5993 23.8159 12.5901 23.8159 12.57H23.3159H22.8159C22.8159 12.868 22.9316 13.1555 23.1693 13.3623C23.4013 13.564 23.7047 13.651 24.0214 13.651V13.151ZM23.3159 12.57H23.8159C23.8159 12.5497 23.8184 12.5411 23.8186 12.5402C23.8188 12.5396 23.8187 12.54 23.8183 12.5408C23.8179 12.5417 23.8176 12.5421 23.8177 12.5419C23.8177 12.5419 23.8355 12.5164 23.913 12.4777L23.6894 12.0305L23.4658 11.5833C23.2942 11.6691 23.1253 11.7888 23.0008 11.9652C22.8714 12.1484 22.8159 12.3561 22.8159 12.57H23.3159ZM23.6894 12.0305L23.8505 12.5038C26.1146 11.7331 26.6345 9.51646 26.8015 7.80455L26.3039 7.756L25.8062 7.70745C25.6412 9.39854 25.1651 10.9999 23.5282 11.5572L23.6894 12.0305ZM26.3039 7.756H26.8039C26.8039 7.77864 26.7979 7.79663 26.7924 7.80746C26.7873 7.81741 26.7837 7.81942 26.7867 7.81683C26.7897 7.81432 26.7966 7.80964 26.8074 7.80571C26.8179 7.80187 26.8302 7.7995 26.8434 7.7995V7.2995V6.7995C26.3607 6.7995 25.8039 7.15378 25.8039 7.756H26.3039ZM26.8434 7.2995V7.7995C26.8571 7.7995 26.8736 7.80207 26.8905 7.80804C26.9076 7.81404 26.9204 7.82183 26.9282 7.82818C26.936 7.83449 26.9353 7.83635 26.9321 7.8302C26.9281 7.82265 26.9244 7.8105 26.9244 7.7975H27.4244H27.9244C27.9244 7.47322 27.7598 7.2148 27.5574 7.05094C27.3586 6.89004 27.1021 6.7995 26.8434 6.7995V7.2995ZM27.4244 7.7975H26.9244V11.657H27.4244H27.9244V7.7975H27.4244ZM27.4244 11.657H26.9244C26.9244 11.8547 26.9832 12.083 27.1451 12.2698C27.3171 12.4683 27.5645 12.572 27.8394 12.572V12.072V11.572C27.8269 11.572 27.8332 11.57 27.8503 11.5774C27.868 11.585 27.8862 11.5981 27.9008 11.6148C27.9278 11.646 27.9244 11.6667 27.9244 11.657H27.4244ZM27.8394 12.072V12.572H31.1594V12.072V11.572H27.8394V12.072ZM31.1594 12.072V12.572C31.2655 12.572 31.2888 12.6019 31.2819 12.5953C31.2752 12.589 31.2819 12.5873 31.2819 12.6115H31.7819H32.2819C32.2819 12.3452 32.1848 12.0738 31.9706 11.8703C31.7561 11.6666 31.4682 11.572 31.1594 11.572V12.072ZM31.7819 12.6115H31.2819C31.2819 12.6313 31.2783 12.637 31.2797 12.634C31.2812 12.6306 31.284 12.6272 31.2853 12.6261C31.2875 12.6242 31.2569 12.651 31.1594 12.651V13.151V13.651C31.4353 13.651 31.716 13.574 31.9361 13.3854C32.1644 13.1897 32.2819 12.9118 32.2819 12.6115H31.7819ZM31.1594 13.151V12.651H27.8394V13.151V13.651H31.1594V13.151ZM27.8394 13.151V12.651C27.5988 12.651 27.3447 12.7222 27.1565 12.9249C26.9746 13.1208 26.9244 13.3649 26.9244 13.566H27.4244H27.9244C27.9244 13.5181 27.9364 13.5547 27.8893 13.6054C27.8663 13.6302 27.8416 13.6438 27.8256 13.6497C27.8119 13.6548 27.8134 13.651 27.8394 13.651V13.151ZM27.4244 13.566H26.9244V24.8125H27.4244H27.9244V13.566H27.4244ZM27.4244 24.8125H26.9244C26.9244 25.1889 26.9013 26.1704 27.0852 27.0565C27.1769 27.4982 27.3292 27.9666 27.5985 28.3349C27.8822 28.7229 28.3044 29.006 28.8769 29.006V28.506V28.006C28.6816 28.006 28.5383 27.926 28.4057 27.7446C28.2588 27.5437 28.1439 27.2364 28.0644 26.8533C27.9059 26.0898 27.9244 25.2246 27.9244 24.8125H27.4244ZM28.8769 28.506V29.006C29.3235 29.006 29.8213 28.8316 30.2595 28.6097C30.7085 28.3824 31.1525 28.0758 31.5005 27.751L31.1594 27.3855L30.8182 27.02C30.5437 27.2762 30.1785 27.5298 29.8078 27.7175C29.4264 27.9107 29.0942 28.006 28.8769 28.006V28.506ZM31.1594 27.3855L31.4717 27.7759C31.5211 27.7364 31.5736 27.713 31.6154 27.7046C31.6537 27.6969 31.6727 27.7032 31.6828 27.7082L31.9064 27.261L32.13 26.8138C31.6463 26.5719 31.1461 26.7558 30.847 26.9951L31.1594 27.3855ZM44.1615 25.518L44.3585 25.0584L44.3479 25.0539L44.3371 25.0498L44.1615 25.518ZM44.452 26.1405L44.9094 26.3426L44.9129 26.3344L44.9163 26.3262L44.452 26.1405ZM44.1615 17.633H44.6616L44.6614 17.6239L44.1615 17.633ZM43.4145 18.7535V19.2535H43.4277L43.4408 19.2528L43.4145 18.7535ZM35.488 19.2515L34.993 19.1808L34.9901 19.2014L34.9889 19.2221L35.488 19.2515ZM35.5295 21.368L36.029 21.3453L36.0287 21.3403L35.5295 21.368ZM43.4145 25.767L42.9984 25.4896L42.9939 25.4966L43.4145 25.767ZM35.737 17.1765L35.2438 17.0943C35.2065 17.3179 35.2361 17.5859 35.3991 17.8116C35.574 18.0538 35.85 18.1745 36.152 18.1745V17.6745V17.1745C36.1318 17.1745 36.1364 17.1709 36.1547 17.1795C36.1742 17.1887 36.1945 17.205 36.2098 17.2261C36.224 17.2457 36.228 17.2614 36.229 17.2666C36.2299 17.2712 36.2286 17.2685 36.2302 17.2587L35.737 17.1765ZM36.152 17.6745V18.1745H38.808V17.6745V17.1745H36.152V17.6745ZM38.808 17.6745V18.1745C39.9383 18.1745 40.8267 18.0543 41.4398 17.6891C41.7613 17.4975 42.0059 17.2398 42.1645 16.9116C42.3197 16.5904 42.379 16.2301 42.379 15.8485H41.879H41.379C41.379 16.1309 41.3345 16.3308 41.2641 16.4765C41.1971 16.6152 41.0941 16.731 40.928 16.8299C40.5658 17.0457 39.9188 17.1745 38.808 17.1745V17.6745ZM41.879 15.8485H42.379C42.379 15.0834 42.1621 14.1256 41.6623 13.3434C41.1526 12.546 40.3249 11.904 39.14 11.904V12.404V12.904C39.9056 12.904 40.4474 13.2995 40.8196 13.8819C41.2016 14.4797 41.379 15.2441 41.379 15.8485H41.879ZM39.14 12.404V11.904C37.7127 11.904 36.7999 12.8495 36.2355 13.9C35.6719 14.9491 35.3915 16.2079 35.2438 17.0943L35.737 17.1765L36.2302 17.2587C36.373 16.4021 36.6322 15.2746 37.1164 14.3733C37.5999 13.4733 38.2433 12.904 39.14 12.904V12.404ZM44.1615 25.518L43.9646 25.9776C43.9796 25.984 43.9848 25.9893 43.9852 25.9897C43.9858 25.9904 43.985 25.9897 43.9841 25.9874C43.9833 25.9857 43.9826 25.983 43.9825 25.9788C43.9825 25.9748 43.9831 25.9666 43.9878 25.9548L44.452 26.1405L44.9163 26.3262C45.0985 25.8705 44.9022 25.2914 44.3585 25.0584L44.1615 25.518ZM44.452 26.1405L43.9947 25.9384C43.6159 26.7957 42.9915 27.8815 42.1575 28.7448C41.3226 29.6089 40.3235 30.2055 39.1815 30.2055V30.7055V31.2055C40.6956 31.2055 41.9374 30.4118 42.8767 29.4396C43.8168 28.4665 44.4996 27.2698 44.9094 26.3426L44.452 26.1405ZM39.1815 30.7055V30.2055C37.2026 30.2055 35.899 28.763 35.0656 26.8201C34.2373 24.8889 33.9545 22.6247 33.9545 21.368H33.4545H32.9545C32.9545 22.7258 33.2528 25.1304 34.1466 27.2143C35.0355 29.2865 36.5954 31.2055 39.1815 31.2055V30.7055ZM33.4545 21.368H33.9545C33.9545 19.9248 34.1596 17.3873 34.9656 15.2298C35.7762 13.0597 37.1147 11.4515 39.306 11.4515V10.9515V10.4515C36.4759 10.4515 34.8886 12.5783 34.0288 14.8798C33.1644 17.1939 32.9545 19.8647 32.9545 21.368H33.4545ZM39.306 10.9515V11.4515C40.9527 11.4515 42.0128 12.3923 42.6929 13.6711C43.3819 14.9665 43.6418 16.5532 43.6616 17.6421L44.1615 17.633L44.6614 17.6239C44.6397 16.4303 44.3602 14.6763 43.5758 13.2015C42.7827 11.7102 41.4358 10.4515 39.306 10.4515V10.9515ZM44.1615 17.633H43.6615C43.6615 17.751 43.6637 17.844 43.6569 17.9426C43.6502 18.0385 43.6364 18.1048 43.6187 18.1495C43.6035 18.188 43.5895 18.201 43.578 18.2091C43.5643 18.2186 43.5151 18.2475 43.3882 18.2542L43.4145 18.7535L43.4408 19.2528C43.7082 19.2387 43.9494 19.1691 44.1498 19.0295C44.3522 18.8884 44.4757 18.7017 44.5487 18.5171C44.6804 18.1841 44.6615 17.7978 44.6615 17.633H44.1615ZM43.4145 18.7535V18.2535H36.0275V18.7535V19.2535H43.4145V18.7535ZM36.0275 18.7535V18.2535C35.75 18.2535 35.4912 18.3441 35.2953 18.54C35.1083 18.727 35.0239 18.9646 34.993 19.1808L35.488 19.2515L35.983 19.3222C35.9936 19.2479 36.013 19.2365 36.0024 19.2471C35.9965 19.253 35.9899 19.2566 35.9872 19.2576C35.9856 19.2582 35.9968 19.2535 36.0275 19.2535V18.7535ZM35.488 19.2515L34.9889 19.2221C34.9454 19.9619 34.9892 20.6565 35.0303 21.3957L35.5295 21.368L36.0287 21.3403C35.9868 20.5855 35.9477 19.9521 35.9871 19.2809L35.488 19.2515ZM35.5295 21.368L35.03 21.3907C35.073 22.3372 35.2971 24.0939 35.9571 25.6322C36.6118 27.158 37.7771 28.6325 39.7625 28.6325V28.1325V27.6325C38.3865 27.6325 37.4767 26.6377 36.8761 25.2378C36.2807 23.8503 36.069 22.2248 36.029 21.3453L35.5295 21.368ZM39.7625 28.1325V28.6325C41.767 28.6325 43.0599 27.2433 43.8351 26.0374L43.4145 25.767L42.9939 25.4966C42.2752 26.6147 41.244 27.6325 39.7625 27.6325V28.1325ZM43.4145 25.767L43.8305 26.0443C43.8723 25.9817 43.9001 25.971 43.9013 25.9706C43.9022 25.9703 43.9054 25.9689 43.9147 25.9692C43.9249 25.9695 43.9479 25.9719 43.986 25.9862L44.1615 25.518L44.3371 25.0498C44.0764 24.9521 43.8051 24.9387 43.5502 25.0343C43.3024 25.1272 43.1227 25.3033 42.9985 25.4897L43.4145 25.767ZM51.2953 19.8325L51.5873 19.4266L51.5851 19.425L51.2953 19.8325ZM46.6473 29.668L46.3272 30.0521L46.3477 30.0692L46.3699 30.084L46.6473 29.668ZM46.1908 28.8795L45.6924 28.919L45.6936 28.9347L45.6958 28.9502L46.1908 28.8795ZM45.8588 24.688H45.3588V24.7078L45.3604 24.7275L45.8588 24.688ZM46.8548 24.605L47.3507 24.5414L47.3485 24.5241L47.3451 24.5069L46.8548 24.605ZM49.5938 21.866L49.8978 21.4691L49.895 21.4669L49.5938 21.866ZM53.8268 12.57H53.3268V12.5815L53.3273 12.593L53.8268 12.57ZM53.9928 16.1805L53.4933 16.2035L53.4951 16.2414L53.5025 16.2786L53.9928 16.1805ZM53.0383 16.222L52.5419 16.2822L52.5442 16.3012L52.548 16.3201L53.0383 16.222ZM51.2953 19.8325L51.0033 20.2384C52.1896 21.0917 52.964 21.7227 53.4544 22.4186C53.9258 23.0876 54.1568 23.8511 54.1568 25.02H54.6568H55.1568C55.1568 23.6989 54.8898 22.7194 54.2718 21.8425C53.6728 20.9925 52.7665 20.2748 51.5873 19.4266L51.2953 19.8325ZM54.6568 25.02H54.1568C54.1568 26.1128 53.8812 27.4299 53.1978 28.4573C52.5306 29.4604 51.4673 30.2055 49.8013 30.2055V30.7055V31.2055C51.8288 31.2055 53.1932 30.2698 54.0304 29.0112C54.8514 27.7768 55.1568 26.2512 55.1568 25.02H54.6568ZM49.8013 30.7055V30.2055C48.7654 30.2055 47.7402 29.7957 46.9246 29.252L46.6473 29.668L46.3699 30.084C47.2974 30.7023 48.5132 31.2055 49.8013 31.2055V30.7055ZM46.6473 29.668L46.9674 29.2839C46.8055 29.149 46.7084 28.9669 46.6858 28.8088L46.1908 28.8795L45.6958 28.9502C45.7562 29.3731 45.9911 29.772 46.3272 30.0521L46.6473 29.668ZM46.1908 28.8795L46.6892 28.84L46.3572 24.6485L45.8588 24.688L45.3604 24.7275L45.6924 28.919L46.1908 28.8795ZM45.8588 24.688H46.3588C46.3588 24.7017 46.3563 24.7094 46.3549 24.7128C46.3534 24.7168 46.3511 24.7207 46.3474 24.7246C46.3431 24.7291 46.3384 24.7321 46.3353 24.7335C46.332 24.7349 46.3374 24.7315 46.3568 24.7315V24.2315V23.7315C45.7205 23.7315 45.3588 24.2333 45.3588 24.688H45.8588ZM46.3568 24.2315V24.7315C46.3817 24.7315 46.3932 24.735 46.3948 24.7356C46.3961 24.736 46.3912 24.7344 46.3839 24.7285C46.3767 24.7227 46.3712 24.7158 46.3678 24.7099C46.3645 24.7042 46.3642 24.7014 46.3645 24.7031L46.8548 24.605L47.3451 24.5069C47.304 24.3016 47.1972 24.1008 47.0145 23.9524C46.8302 23.8027 46.6002 23.7315 46.3568 23.7315V24.2315ZM46.8548 24.605L46.3589 24.6686C46.4641 25.4893 46.6793 26.729 47.1885 27.7755C47.6993 28.8251 48.5706 29.7945 50.0088 29.7945V29.2945V28.7945C49.123 28.7945 48.521 28.2284 48.0877 27.3379C47.6528 26.4443 47.453 25.3392 47.3507 24.5414L46.8548 24.605ZM50.0088 29.2945V29.7945C51.1643 29.7945 51.9745 29.361 52.4791 28.6861C52.9656 28.0353 53.1233 27.2205 53.1233 26.514H52.6233H52.1233C52.1233 27.094 51.9905 27.6694 51.6781 28.0873C51.3838 28.481 50.8867 28.7945 50.0088 28.7945V29.2945ZM52.6233 26.514H53.1233C53.1233 25.3562 52.8236 24.4641 52.2452 23.6637C51.6837 22.8866 50.8709 22.2144 49.8978 21.4691L49.5938 21.866L49.2898 22.2629C50.2672 23.0116 50.9691 23.6051 51.4347 24.2494C51.8835 24.8704 52.1233 25.5553 52.1233 26.514H52.6233ZM49.5938 21.866L49.895 21.4669C47.7316 19.8342 46.6078 18.4698 46.6078 16.305H46.1078H45.6078C45.6078 18.9542 47.057 20.5778 49.2926 22.2651L49.5938 21.866ZM46.1078 16.305H46.6078C46.6078 15.3697 46.8884 14.1294 47.5333 13.1384C48.1665 12.1653 49.1326 11.4515 50.5483 11.4515V10.9515V10.4515C48.727 10.4515 47.4729 11.3977 46.6951 12.593C45.929 13.7703 45.6078 15.2068 45.6078 16.305H46.1078ZM50.5483 10.9515V11.4515C50.8516 11.4515 51.612 11.5717 52.2936 11.8248C52.6322 11.9506 52.9152 12.0963 53.1043 12.25C53.2965 12.4061 53.3268 12.5141 53.3268 12.57H53.8268H54.3268C54.3268 12.0864 54.0407 11.7223 53.7349 11.4738C53.426 11.2229 53.0294 11.0314 52.6418 10.8874C51.8709 10.6011 50.992 10.4515 50.5483 10.4515V10.9515ZM53.8268 12.57L53.3273 12.593L53.4933 16.2035L53.9928 16.1805L54.4923 16.1575L54.3263 12.547L53.8268 12.57ZM53.9928 16.1805L53.5025 16.2786C53.4826 16.179 53.5313 16.1158 53.5471 16.101C53.5635 16.0857 53.564 16.0955 53.5363 16.0955V16.5955V17.0955C53.7991 17.0955 54.0486 17.0016 54.231 16.8306C54.4128 16.6602 54.5445 16.3895 54.4831 16.0824L53.9928 16.1805ZM53.5363 16.5955V16.0955C53.5114 16.0955 53.4999 16.092 53.4983 16.0914C53.497 16.091 53.5019 16.0926 53.5092 16.0985C53.5164 16.1043 53.5219 16.1112 53.5253 16.1171C53.5286 16.1228 53.5289 16.1256 53.5286 16.1239L53.0383 16.222L52.548 16.3201C52.5891 16.5254 52.6959 16.7262 52.8786 16.8746C53.0629 17.0243 53.2929 17.0955 53.5363 17.0955V16.5955ZM53.0383 16.222L53.5347 16.1618C53.4509 15.4709 53.288 14.4387 52.8393 13.57C52.378 12.6769 51.5798 11.904 50.2578 11.904V12.404V12.904C51.0938 12.904 51.6029 13.3554 51.9508 14.0289C52.3113 14.7268 52.4597 15.6036 52.5419 16.2822L53.0383 16.222ZM50.2578 12.404V11.904C49.2057 11.904 48.4484 12.3534 47.9673 12.982C47.5004 13.5921 47.3093 14.3474 47.3093 14.977H47.8093H48.3093C48.3093 14.5276 48.4502 13.9964 48.7614 13.5898C49.0585 13.2016 49.5254 12.904 50.2578 12.904V12.404ZM47.8093 14.977H47.3093C47.3093 17.4215 49.16 18.9276 51.0055 20.24L51.2953 19.8325L51.5851 19.425C49.6956 18.0814 48.3093 16.8485 48.3093 14.977H47.8093ZM64.4498 27.261L64.7071 26.8323L64.6906 26.8224L64.6734 26.8138L64.4498 27.261ZM64.6158 27.842L64.2623 27.4884L64.2301 27.5206L64.2042 27.5581L64.6158 27.842ZM56.2328 12.0305L56.0717 11.5572L56.0396 11.5681L56.0092 11.5833L56.2328 12.0305ZM58.8473 7.756L59.345 7.80455L59.3473 7.78033V7.756H58.8473ZM63.7028 27.3855L63.3905 26.9951L63.3756 27.007L63.3617 27.02L63.7028 27.3855ZM64.4498 27.261L64.1926 27.6897C64.1909 27.6887 64.1938 27.6904 64.1978 27.6953C64.2019 27.7003 64.201 27.7013 64.1985 27.694C64.1963 27.6872 64.1888 27.6608 64.1954 27.6195C64.2028 27.5732 64.2258 27.5249 64.2623 27.4884L64.6158 27.842L64.9694 28.1956C65.2242 27.9408 65.2244 27.6093 65.1472 27.3778C65.0723 27.1532 64.9109 26.9546 64.7071 26.8323L64.4498 27.261ZM64.6158 27.842L64.2042 27.5581C63.8067 28.1346 63.2461 28.8106 62.5988 29.3372C61.9449 29.8691 61.2559 30.2055 60.5903 30.2055V30.7055V31.2055C61.5848 31.2055 62.4935 30.7119 63.2298 30.1129C63.9728 29.5086 64.595 28.7529 65.0274 28.1259L64.6158 27.842ZM60.5903 30.7055V30.2055C60.0832 30.2055 59.7072 30.0718 59.4195 29.8717C59.1273 29.6683 58.8992 29.3771 58.7245 29.0253C58.3692 28.3103 58.2683 27.4134 58.2683 26.763H57.7683H57.2683C57.2683 27.4821 57.3749 28.5565 57.8289 29.4703C58.0588 29.933 58.3858 30.3706 58.8483 30.6925C59.3155 31.0176 59.894 31.2055 60.5903 31.2055V30.7055ZM57.7683 26.763H58.2683V13.566H57.7683H57.2683V26.763H57.7683ZM57.7683 13.566H58.2683C58.2683 13.3648 58.2184 13.1308 58.0546 12.9397C57.8807 12.7369 57.6376 12.651 57.3948 12.651V13.151V13.651C57.4016 13.651 57.3892 13.6521 57.3659 13.6424C57.3411 13.632 57.3156 13.6142 57.2953 13.5905C57.256 13.5447 57.2683 13.5182 57.2683 13.566H57.7683ZM57.3948 13.151V12.651H56.5648V13.151V13.651H57.3948V13.151ZM56.5648 13.151V12.651C56.425 12.651 56.3756 12.6135 56.369 12.6077C56.3652 12.6044 56.3645 12.6028 56.3638 12.6013C56.3629 12.5993 56.3593 12.5901 56.3593 12.57H55.8593H55.3593C55.3593 12.868 55.475 13.1555 55.7128 13.3623C55.9448 13.564 56.2482 13.651 56.5648 13.651V13.151ZM55.8593 12.57H56.3593C56.3593 12.5497 56.3618 12.5411 56.3621 12.5402C56.3622 12.5396 56.3622 12.54 56.3618 12.5408C56.3613 12.5417 56.361 12.5421 56.3612 12.5419C56.3612 12.5419 56.379 12.5164 56.4564 12.4777L56.2328 12.0305L56.0092 11.5833C55.8377 11.6691 55.6687 11.7888 55.5442 11.9652C55.4149 12.1484 55.3593 12.3561 55.3593 12.57H55.8593ZM56.2328 12.0305L56.394 12.5038C58.6581 11.7331 59.1779 9.51646 59.345 7.80455L58.8473 7.756L58.3497 7.70745C58.1847 9.39854 57.7086 10.9999 56.0717 11.5572L56.2328 12.0305ZM58.8473 7.756H59.3473C59.3473 7.77864 59.3414 7.79663 59.3358 7.80746C59.3308 7.81741 59.3271 7.81942 59.3302 7.81683C59.3332 7.81432 59.34 7.80964 59.3508 7.80571C59.3614 7.80187 59.3737 7.7995 59.3868 7.7995V7.2995V6.7995C58.9041 6.7995 58.3473 7.15378 58.3473 7.756H58.8473ZM59.3868 7.2995V7.7995C59.4005 7.7995 59.4171 7.80207 59.434 7.80804C59.451 7.81404 59.4638 7.82183 59.4717 7.82818C59.4795 7.83449 59.4788 7.83635 59.4755 7.8302C59.4716 7.82265 59.4678 7.8105 59.4678 7.7975H59.9678H60.4678C60.4678 7.47322 60.3033 7.2148 60.1009 7.05094C59.9021 6.89004 59.6456 6.7995 59.3868 6.7995V7.2995ZM59.9678 7.7975H59.4678V11.657H59.9678H60.4678V7.7975H59.9678ZM59.9678 11.657H59.4678C59.4678 11.8547 59.5267 12.083 59.6885 12.2698C59.8606 12.4683 60.1079 12.572 60.3828 12.572V12.072V11.572C60.3703 11.572 60.3766 11.57 60.3938 11.5774C60.4115 11.585 60.4297 11.5981 60.4442 11.6148C60.4712 11.646 60.4678 11.6667 60.4678 11.657H59.9678ZM60.3828 12.072V12.572H63.7028V12.072V11.572H60.3828V12.072ZM63.7028 12.072V12.572C63.809 12.572 63.8323 12.6019 63.8253 12.5953C63.8187 12.589 63.8253 12.5873 63.8253 12.6115H64.3253H64.8253C64.8253 12.3452 64.7282 12.0738 64.5141 11.8703C64.2996 11.6666 64.0117 11.572 63.7028 11.572V12.072ZM64.3253 12.6115H63.8253C63.8253 12.6313 63.8218 12.637 63.8231 12.634C63.8246 12.6306 63.8274 12.6272 63.8287 12.6261C63.831 12.6242 63.8004 12.651 63.7028 12.651V13.151V13.651C63.9788 13.651 64.2594 13.574 64.4795 13.3854C64.7078 13.1897 64.8253 12.9118 64.8253 12.6115H64.3253ZM63.7028 13.151V12.651H60.3828V13.151V13.651H63.7028V13.151ZM60.3828 13.151V12.651C60.1423 12.651 59.8882 12.7222 59.7 12.9249C59.518 13.1208 59.4678 13.3649 59.4678 13.566H59.9678H60.4678C60.4678 13.5181 60.4799 13.5547 60.4328 13.6054C60.4097 13.6302 60.3851 13.6438 60.3691 13.6497C60.3553 13.6548 60.3569 13.651 60.3828 13.651V13.151ZM59.9678 13.566H59.4678V24.8125H59.9678H60.4678V13.566H59.9678ZM59.9678 24.8125H59.4678C59.4678 25.1889 59.4448 26.1704 59.6287 27.0565C59.7204 27.4982 59.8726 27.9666 60.142 28.3349C60.4257 28.7229 60.8479 29.006 61.4203 29.006V28.506V28.006C61.225 28.006 61.0818 27.926 60.9492 27.7446C60.8022 27.5437 60.6873 27.2364 60.6078 26.8533C60.4494 26.0898 60.4678 25.2246 60.4678 24.8125H59.9678ZM61.4203 28.506V29.006C61.867 29.006 62.3648 28.8316 62.803 28.6097C63.2519 28.3824 63.696 28.0758 64.044 27.751L63.7028 27.3855L63.3617 27.02C63.0872 27.2762 62.722 27.5298 62.3513 27.7175C61.9699 27.9107 61.6377 28.006 61.4203 28.006V28.506ZM63.7028 27.3855L64.0152 27.7759C64.0646 27.7364 64.117 27.713 64.1588 27.7046C64.1971 27.6969 64.2161 27.7032 64.2262 27.7082L64.4498 27.261L64.6734 26.8138C64.1897 26.5719 63.6895 26.7558 63.3905 26.9951L63.7028 27.3855ZM71.6005 28.672L71.6985 28.1817L71.687 28.1794L71.6754 28.1776L71.6005 28.672ZM71.393 30.0415L71.3636 30.5406L71.3783 30.5415H71.393V30.0415ZM66.994 30.0415V30.5415H67.0087L67.0233 30.5406L66.994 30.0415ZM66.7035 28.672L66.6307 28.1773L66.6127 28.18L66.595 28.1839L66.7035 28.672ZM66.745 13.6075L66.6743 14.1025L66.6789 14.1031L66.745 13.6075ZM66.164 13.1925L66.6282 13.0068L66.164 13.1925ZM66.33 12.57L66.6423 12.9604L66.6762 12.9333L66.7049 12.9008L66.33 12.57ZM69.401 10.9515L69.463 11.4476L69.548 11.437L69.6246 11.3987L69.401 10.9515ZM69.899 10.993L70.0745 10.5248L70.0479 10.5148L70.0202 10.5079L69.899 10.993ZM70.3555 11.74L70.8552 11.7556L70.8555 11.7478V11.74H70.3555ZM70.48 2.9005H69.98C69.98 3.71037 69.3254 4.351 68.571 4.351V4.851V5.351C69.8916 5.351 70.98 4.24863 70.98 2.9005H70.48ZM68.571 4.851V4.351C67.7681 4.351 67.1205 3.70336 67.1205 2.9005H66.6205H66.1205C66.1205 4.25564 67.2158 5.351 68.571 5.351V4.851ZM66.6205 2.9005H67.1205C67.1205 2.1461 67.7611 1.4915 68.571 1.4915V0.991498V0.491498C67.2228 0.491498 66.1205 1.5799 66.1205 2.9005H66.6205ZM68.571 0.991498V1.4915C69.3323 1.4915 69.98 2.13914 69.98 2.9005H70.48H70.98C70.98 1.58686 69.8846 0.491498 68.571 0.491498V0.991498ZM71.6005 28.672L71.5024 29.1623C71.633 29.1884 71.6825 29.2306 71.6974 29.247C71.708 29.2587 71.723 29.2796 71.723 29.336H72.223H72.723C72.723 29.0604 72.6342 28.7908 72.4373 28.5743C72.2447 28.3624 71.9829 28.2386 71.6985 28.1817L71.6005 28.672ZM72.223 29.336H71.723C71.723 29.3816 71.7064 29.4211 71.6604 29.4592C71.6092 29.5015 71.5179 29.5415 71.393 29.5415V30.0415V30.5415C72.0329 30.5415 72.723 30.1115 72.723 29.336H72.223ZM71.393 30.0415L71.4223 29.5424C70.6995 29.4998 69.8957 29.5 69.1935 29.5V30V30.5C69.9022 30.5 70.6755 30.5002 71.3636 30.5406L71.393 30.0415ZM69.1935 30V29.5C68.4912 29.5 67.6875 29.4998 66.9646 29.5424L66.994 30.0415L67.0233 30.5406C67.7115 30.5002 68.4847 30.5 69.1935 30.5V30ZM66.994 30.0415V29.5415C66.867 29.5415 66.759 29.5 66.6931 29.449C66.6318 29.4015 66.6225 29.362 66.6225 29.336H66.1225H65.6225C65.6225 30.1386 66.3879 30.5415 66.994 30.5415V30.0415ZM66.1225 29.336H66.6225C66.6225 29.292 66.6551 29.1949 66.8119 29.1601L66.7035 28.672L66.595 28.1839C66.0048 28.3151 65.6225 28.799 65.6225 29.336H66.1225ZM66.7035 28.672L66.7762 29.1667C67.1963 29.1049 67.5477 28.9658 67.8266 28.7408C68.107 28.5147 68.2812 28.2282 68.3885 27.9265C68.5902 27.3591 68.573 26.6638 68.573 26.099H68.073H67.573C67.573 26.7377 67.5765 27.2252 67.4462 27.5915C67.3875 27.7566 67.3075 27.8748 67.1988 27.9625C67.0886 28.0514 66.9161 28.1353 66.6307 28.1773L66.7035 28.672ZM68.073 26.099H68.573V16.4295H68.073H67.573V26.099H68.073ZM68.073 16.4295H68.573C68.573 15.6788 68.5573 14.9251 68.3466 14.3365C68.2363 14.0283 68.0654 13.7414 67.7978 13.5184C67.5291 13.2945 67.1968 13.1633 66.8111 13.1119L66.745 13.6075L66.6789 14.1031C66.9156 14.1347 67.0606 14.2058 67.1576 14.2866C67.2558 14.3684 67.339 14.4888 67.4051 14.6734C67.5472 15.0704 67.573 15.6447 67.573 16.4295H68.073ZM66.745 13.6075L66.8157 13.1125C66.6779 13.0928 66.6361 13.0266 66.6282 13.0068L66.164 13.1925L65.6997 13.3782C65.8578 13.7734 66.231 14.0392 66.6743 14.1025L66.745 13.6075ZM66.164 13.1925L66.6282 13.0068C66.6227 12.9931 66.6238 12.9842 66.6244 12.9815C66.6247 12.9803 66.6252 12.9788 66.6266 12.9766C66.628 12.9744 66.6321 12.9686 66.6423 12.9604L66.33 12.57L66.0176 12.1796C65.6228 12.4954 65.5424 12.985 65.6997 13.3782L66.164 13.1925ZM66.33 12.57L66.7049 12.9008C66.9617 12.6098 67.4236 12.2698 67.9603 11.9843C68.4965 11.6989 69.048 11.4995 69.463 11.4476L69.401 10.9515L69.339 10.4554C68.7579 10.528 68.0852 10.7851 67.4905 11.1015C66.8963 11.4176 66.3208 11.8247 65.955 12.2392L66.33 12.57ZM69.401 10.9515L69.6246 11.3987C69.5788 11.4216 69.5424 11.4291 69.5293 11.4315C69.5139 11.4343 69.5057 11.4344 69.5077 11.4343C69.5124 11.4342 69.5304 11.4344 69.5636 11.4381C69.6291 11.4453 69.7101 11.4612 69.7777 11.4781L69.899 10.993L70.0202 10.5079C69.9219 10.4833 69.7954 10.4577 69.6741 10.4442C69.6139 10.4375 69.5437 10.4325 69.4732 10.4349C69.4176 10.4369 69.2974 10.4442 69.1774 10.5043L69.401 10.9515ZM69.899 10.993L69.7234 11.4612C69.7995 11.4897 69.8141 11.5153 69.8198 11.5251C69.8319 11.5457 69.8555 11.6035 69.8555 11.74H70.3555H70.8555C70.8555 11.503 70.8168 11.2495 70.6836 11.0212C70.544 10.7819 70.3305 10.6208 70.0745 10.5248L69.899 10.993ZM70.3555 11.74L69.8557 11.7244C69.8152 13.0203 69.731 14.0574 69.731 15.392H70.231H70.731C70.731 14.0706 70.8127 13.1157 70.8552 11.7556L70.3555 11.74ZM70.231 15.392H69.731V26.099H70.231H70.731V15.392H70.231ZM70.231 26.099H69.731C69.731 26.6921 69.7244 27.3848 69.9333 27.9484C70.0441 28.247 70.2199 28.5273 70.4969 28.7483C70.7724 28.9682 71.1167 29.1044 71.5256 29.1664L71.6005 28.672L71.6754 28.1776C71.3995 28.1358 71.2303 28.0542 71.1206 27.9667C71.0124 27.8804 70.9314 27.7639 70.871 27.6007C70.7376 27.241 70.731 26.7509 70.731 26.099H70.231Z" fill="black"/>
</svg>
