<svg width="327" height="62" viewBox="0 0 327 62" fill="none" xmlns="http://www.w3.org/2000/svg">
<g style="mix-blend-mode:color-burn" filter="url(#filter0_g_17_25)">
<rect x="1" y="1" width="325" height="60" rx="29" fill="#988E86" fill-opacity="0.5"/>
<rect x="2.5" y="2.5" width="322" height="57" rx="27.5" stroke="black" stroke-width="3"/>
<path d="M88.0083 38.2C88.3283 38.2 88.4883 38.4 88.5283 38.6C88.8883 40.6 89.5683 44.28 92.4483 44.28C95.6083 44.28 96.7283 41.32 96.7283 38.96C96.7283 34.72 94.3683 33.76 91.1283 30.88C88.9683 29 87.8883 26.72 87.8883 24.2C87.8883 21.24 88.9283 16.28 93.8883 16.28C94.5283 16.28 97.1283 16.44 97.2483 17.32L97.6483 21.76C97.6483 22.04 97.4483 22.24 97.1683 22.24C96.8883 22.24 96.7283 22.04 96.6883 21.88C96.4883 20.28 96.0083 17.64 93.4883 17.64C90.3683 17.64 89.4883 20.64 89.4883 22.8C89.4883 26.52 91.8883 28.2 94.8083 30.44C97.4483 32.56 98.7283 34.36 98.7283 37.44C98.7283 40.48 97.2883 45.68 92.2083 45.68C91.4083 45.68 87.9683 45.28 87.9683 44.08L87.4883 38.72C87.4483 38.44 87.6483 38.2 88.0083 38.2ZM111.411 40.92C111.691 41.12 111.691 41.36 111.571 41.6C110.571 43.24 108.571 45.68 106.011 45.68C101.971 45.68 100.491 39.64 100.491 37.2C100.491 33.52 101.931 26.64 107.371 26.64C109.571 26.64 111.211 28.56 111.211 30.36C111.211 31.36 110.571 32 109.771 32C108.811 32 108.251 31.16 108.451 30.68C108.931 29.4 108.531 27.88 106.651 27.88C103.651 27.88 102.491 32.56 102.491 35.4C102.491 37.72 103.091 43.12 107.171 43.12C108.611 43.12 109.811 42.04 110.571 41.08C110.771 40.8 111.131 40.72 111.411 40.92ZM123.75 36.4C123.63 34.32 122.71 27.8 119.03 27.88C115.51 28 115.31 33.96 115.43 36C115.55 38.04 116.55 44.56 120.11 44.44C123.59 44.36 123.83 38.44 123.75 36.4ZM126.15 36.12C126.15 39 124.59 45.72 119.75 45.72C114.43 45.72 112.99 39.4 112.99 36.28C112.99 33.36 114.43 26.68 119.39 26.68C124.79 26.68 126.15 32.96 126.15 36.12ZM131.519 31.52V40.52C131.519 42 132.199 44.16 134.639 44.16C138.359 44.16 139.039 39.44 139.039 36.32C139.039 34.04 138.239 28.92 134.639 28.92C133.199 28.92 131.519 30.32 131.519 31.52ZM131.519 45.2V50.44C131.519 51.92 131.559 52.76 133.159 52.92C133.599 52.96 133.839 53.24 133.839 53.56C133.839 53.96 133.519 54.24 133.039 54.24C132.279 54.2 131.439 54.16 130.679 54.16C129.919 54.16 129.039 54.2 128.279 54.2C127.799 54.24 127.439 53.92 127.439 53.56C127.439 53.24 127.679 52.96 128.079 52.92C129.399 52.72 129.439 51.72 129.439 50.44V31.96C129.439 30.48 129.359 29.4 128.119 29.24C127.839 29.2 127.639 29.04 127.559 28.84C127.479 28.64 127.559 28.4 127.719 28.24C128.319 27.56 129.719 26.8 130.679 26.68C130.799 26.64 130.999 26.68 131.159 26.72C131.479 26.84 131.639 27.08 131.599 27.44C131.599 27.96 131.599 28.4 131.559 28.88C131.559 29.04 131.799 29.12 131.919 29C132.799 27.84 134.239 26.68 135.759 26.68C140.079 26.68 141.159 33.2 141.159 35.56C141.159 38.72 139.519 45.68 134.279 45.68C133.399 45.68 132.719 45.48 131.999 45C131.799 44.88 131.519 44.96 131.519 45.2ZM150.248 26.68C151.648 26.68 152.048 27.84 152.048 28.64C152.048 29.24 151.688 30.6 150.728 30.6C149.768 30.6 149.768 29.32 148.808 29.32C147.488 29.32 146.448 31.6 146.448 33V41.04C146.448 42.88 146.528 43.64 148.688 43.76C149.128 43.8 149.408 44.08 149.408 44.44C149.368 44.8 149.048 45.04 148.608 45.04C147.808 45 146.928 45 146.128 45C145.128 45 144.048 45 143.008 45.04C142.528 45.04 142.248 44.76 142.248 44.4C142.248 44 142.528 43.8 142.888 43.72C144.368 43.56 144.368 42.44 144.368 41.04V32.08C144.368 30.56 144.288 29.36 143.088 29.2C142.808 29.16 142.568 29 142.528 28.8C142.408 28.6 142.488 28.36 142.648 28.2C143.248 27.52 144.648 26.8 145.608 26.64C145.728 26.64 145.928 26.64 146.088 26.68C146.408 26.8 146.568 27.04 146.568 27.44C146.528 28.24 146.488 28.84 146.488 29.6C146.448 29.84 146.768 29.92 146.848 29.76C147.608 28.48 149.048 26.68 150.248 26.68ZM157.585 18.88C157.585 19.92 156.745 20.76 155.745 20.76C154.705 20.76 153.865 19.92 153.865 18.88C153.865 17.88 154.705 17.04 155.745 17.04C156.745 17.04 157.585 17.88 157.585 18.88ZM158.665 43.72C159.065 43.8 159.265 44.04 159.265 44.36C159.265 44.76 158.905 45.04 158.465 45.04C157.785 45 157.025 45 156.345 45C155.665 45 154.905 45 154.225 45.04C153.785 45.04 153.385 44.76 153.385 44.36C153.385 44.08 153.585 43.8 153.945 43.72C155.305 43.52 155.265 42.4 155.265 41.24V31.92C155.265 30.44 155.185 29.36 153.985 29.2C153.705 29.16 153.505 29 153.425 28.8C153.345 28.6 153.385 28.36 153.585 28.2C154.185 27.52 155.585 26.76 156.545 26.64C156.625 26.6 156.865 26.64 157.025 26.68C157.345 26.8 157.465 27.04 157.465 27.4C157.425 28.68 157.345 29.64 157.345 30.92V41.24C157.345 42.44 157.345 43.52 158.665 43.72ZM177.311 18.88C177.311 19.92 176.471 20.76 175.471 20.76C174.431 20.76 173.591 19.92 173.591 18.88C173.591 17.88 174.431 17.04 175.471 17.04C176.471 17.04 177.311 17.88 177.311 18.88ZM178.391 43.72C178.791 43.8 178.991 44.04 178.991 44.36C178.991 44.76 178.631 45.04 178.191 45.04C177.511 45 176.751 45 176.071 45C175.391 45 174.631 45 173.951 45.04C173.511 45.04 173.111 44.76 173.111 44.36C173.111 44.08 173.311 43.8 173.671 43.72C175.031 43.52 174.991 42.4 174.991 41.24V31.92C174.991 30.44 174.911 29.36 173.711 29.2C173.431 29.16 173.231 29 173.151 28.8C173.071 28.6 173.111 28.36 173.311 28.2C173.911 27.52 175.311 26.76 176.271 26.64C176.351 26.6 176.591 26.64 176.751 26.68C177.071 26.8 177.191 27.04 177.191 27.4C177.151 28.68 177.071 29.64 177.071 30.92V41.24C177.071 42.44 177.071 43.52 178.391 43.72ZM200.718 42.36C200.918 42.48 201.038 42.76 200.878 42.92C200.078 44.08 198.598 45.68 196.998 45.68C194.678 45.68 194.278 43.2 194.278 41.88V29.16C194.278 28.92 194.158 28.76 193.918 28.76H193.118C192.678 28.76 192.438 28.52 192.438 28.2C192.438 27.96 192.558 27.8 192.798 27.68C194.678 27.04 195.158 25.2 195.318 23.56C195.318 23.32 195.558 23.12 195.838 23.12C196.118 23.12 196.398 23.32 196.398 23.6V27.32C196.398 27.52 196.518 27.72 196.798 27.72H199.998C200.398 27.72 200.598 27.96 200.598 28.24C200.598 28.56 200.358 28.76 199.998 28.76H196.798C196.518 28.76 196.398 28.92 196.398 29.16V40C196.398 40.76 196.318 43.56 197.798 43.56C198.438 43.56 199.398 43.04 199.998 42.48C200.198 42.32 200.478 42.24 200.718 42.36ZM204.41 32.64C204.37 32.88 204.49 33.12 204.81 33.12H207.37C209.53 33.12 210.33 32.64 210.33 31.36C210.33 30.04 209.57 28.04 207.69 28.04C205.45 28.04 204.69 30.96 204.41 32.64ZM212.53 40.68C212.81 40.8 212.89 41.08 212.81 41.28C212.05 43 210.29 45.68 207.73 45.68C203.33 45.68 202.21 39.2 202.21 36.68C202.21 33.84 203.01 26.64 207.85 26.64C211.49 26.64 212.49 30.88 212.53 33.08C212.53 33.48 212.57 34.12 211.81 34.16H204.69C204.37 34.16 204.21 34.36 204.17 34.64C204.13 35.32 204.17 35.96 204.21 36.68C204.29 38.44 205.05 43.2 208.29 43.2C209.97 43.2 211.09 42.04 211.81 40.92C211.97 40.68 212.21 40.56 212.53 40.68ZM219.406 35.2C221.686 36.84 222.646 37.8 222.646 40.2C222.646 42.44 221.526 45.68 217.966 45.68C216.846 45.68 215.766 45.24 214.926 44.68C214.686 44.48 214.526 44.2 214.486 43.92L214.166 39.88C214.166 39.68 214.326 39.44 214.646 39.44C214.926 39.44 215.086 39.6 215.126 39.8C215.326 41.36 215.926 44.32 218.166 44.32C220.126 44.32 220.686 42.88 220.686 41.64C220.686 39.6 219.646 38.6 217.766 37.16C215.646 35.56 214.406 34.12 214.406 31.8C214.406 29.84 215.566 26.64 218.686 26.64C219.406 26.64 221.846 27.16 221.846 28.2L222.006 31.68C222.046 31.88 221.846 32.08 221.566 32.08C221.286 32.08 221.126 31.92 221.086 31.72C220.926 30.4 220.486 28.04 218.406 28.04C216.686 28.04 216.046 29.48 216.046 30.52C216.046 32.6 217.606 33.92 219.406 35.2ZM232.085 42.36C232.285 42.48 232.405 42.76 232.245 42.92C231.445 44.08 229.965 45.68 228.365 45.68C226.045 45.68 225.645 43.2 225.645 41.88V29.16C225.645 28.92 225.525 28.76 225.285 28.76H224.485C224.045 28.76 223.805 28.52 223.805 28.2C223.805 27.96 223.925 27.8 224.165 27.68C226.045 27.04 226.525 25.2 226.685 23.56C226.685 23.32 226.925 23.12 227.205 23.12C227.485 23.12 227.765 23.32 227.765 23.6V27.32C227.765 27.52 227.885 27.72 228.165 27.72H231.365C231.765 27.72 231.965 27.96 231.965 28.24C231.965 28.56 231.725 28.76 231.365 28.76H228.165C227.885 28.76 227.765 28.92 227.765 29.16V40C227.765 40.76 227.685 43.56 229.165 43.56C229.805 43.56 230.765 43.04 231.365 42.48C231.565 42.32 231.845 42.24 232.085 42.36ZM237.897 18.88C237.897 19.92 237.057 20.76 236.057 20.76C235.017 20.76 234.177 19.92 234.177 18.88C234.177 17.88 235.017 17.04 236.057 17.04C237.057 17.04 237.897 17.88 237.897 18.88ZM238.977 43.72C239.377 43.8 239.577 44.04 239.577 44.36C239.577 44.76 239.217 45.04 238.777 45.04C238.097 45 237.337 45 236.657 45C235.977 45 235.217 45 234.537 45.04C234.097 45.04 233.697 44.76 233.697 44.36C233.697 44.08 233.897 43.8 234.257 43.72C235.617 43.52 235.577 42.4 235.577 41.24V31.92C235.577 30.44 235.497 29.36 234.297 29.2C234.017 29.16 233.817 29 233.737 28.8C233.657 28.6 233.697 28.36 233.897 28.2C234.497 27.52 235.897 26.76 236.857 26.64C236.937 26.6 237.177 26.64 237.337 26.68C237.657 26.8 237.777 27.04 237.777 27.4C237.737 28.68 237.657 29.64 237.657 30.92V41.24C237.657 42.44 237.657 43.52 238.977 43.72Z" fill="black"/>
</g>
<defs>
<filter id="filter0_g_17_25" x="0.2" y="0.2" width="326.6" height="61.6" filterUnits="userSpaceOnUse" color-interpolation-filters="sRGB">
<feFlood flood-opacity="0" result="BackgroundImageFix"/>
<feBlend mode="normal" in="SourceGraphic" in2="BackgroundImageFix" result="shape"/>
<feTurbulence type="fractalNoise" baseFrequency="1.1111111640930176 1.1111111640930176" numOctaves="3" seed="8928" />
<feDisplacementMap in="shape" scale="1.6000000238418579" xChannelSelector="R" yChannelSelector="G" result="displacedImage" width="100%" height="100%" />
<feMerge result="effect1_texture_17_25">
<feMergeNode in="displacedImage"/>
</feMerge>
</filter>
</defs>
</svg>
