<svg width="37" height="19" viewBox="0 0 37 19" fill="none" xmlns="http://www.w3.org/2000/svg">
<path d="M9.86718 0.499995C10.1072 0.499995 10.2512 0.643996 10.2032 0.835995L9.57918 3.572C9.55518 3.71599 9.41118 3.788 9.26718 3.788C9.07518 3.788 9.00318 3.692 9.02718 3.572C9.19518 2.61199 9.50718 1.22 7.87518 1.22H6.89118C6.53118 1.22 6.29118 1.46 6.21918 1.748L3.89118 14.468C3.72318 15.452 3.45918 16.46 4.68318 16.652C4.92318 16.676 5.01918 16.844 4.99518 17.012C4.94718 17.276 4.68318 17.42 4.41918 17.42C3.96318 17.396 3.31518 17.396 2.73918 17.396C2.01918 17.396 1.37118 17.396 0.963176 17.42C0.651176 17.444 0.459176 17.276 0.507176 17.036C0.555176 16.844 0.699176 16.676 0.939176 16.628C2.23518 16.46 2.37918 15.428 2.54718 14.468L4.87518 1.748C4.94718 1.46 4.75518 1.22 4.39518 1.22H3.65118C1.92318 1.22 1.56318 2.54 1.22718 3.572C1.17918 3.692 1.05918 3.788 0.891176 3.788C0.699176 3.788 0.627176 3.668 0.651176 3.524L1.32318 0.811995C1.37118 0.619995 1.53918 0.499995 1.75518 0.499995C3.26718 0.595995 4.27518 0.595995 5.83518 0.595995C7.39518 0.595995 8.33118 0.595995 9.86718 0.499995ZM12.9486 7.22C11.2446 7.22 10.4046 9.86 10.0926 11.276C10.0686 11.42 10.1886 11.54 10.3566 11.516C12.3726 11.156 14.1246 10.316 14.0526 8.492C14.0046 7.844 13.7646 7.22 12.9486 7.22ZM14.4366 14.804C14.6046 14.876 14.6286 15.044 14.5566 15.164C13.9086 16.196 12.5646 17.804 11.0286 17.804C8.36455 17.804 8.41255 13.916 8.70055 12.404C9.01255 10.7 10.2846 6.38 13.1886 6.38C14.6526 6.38 15.3726 7.388 15.4206 8.468C15.5406 10.892 12.7326 11.756 10.1406 11.996C9.92455 12.044 9.90055 12.212 9.90055 12.404C9.75655 13.46 9.66055 16.316 11.6046 16.316C12.6366 16.316 13.4286 15.62 13.9806 14.948C14.1006 14.828 14.2686 14.732 14.4366 14.804ZM16.176 14.06C16.344 14.06 16.44 14.156 16.44 14.3C16.392 15.236 16.416 16.988 17.76 16.988C18.936 16.988 19.416 16.124 19.56 15.38C19.776 14.156 19.272 13.556 18.312 12.692C17.184 11.732 16.608 10.868 16.872 9.476C17.088 8.3 18.144 6.38 20.016 6.38C20.64 6.38 21.168 6.62 21.576 6.908C21.72 7.004 21.768 7.148 21.744 7.316L21.456 9.404C21.456 9.548 21.312 9.644 21.144 9.644C21 9.644 20.904 9.548 20.904 9.428C20.952 8.636 20.952 7.22 19.704 7.22C18.672 7.22 18.12 8.084 18 8.708C17.784 9.956 18.576 10.748 19.512 11.516C20.712 12.5 21.168 13.076 20.904 14.516C20.64 15.86 19.632 17.804 17.496 17.804C16.824 17.804 16.224 17.54 15.792 17.204C15.648 17.084 15.576 16.916 15.6 16.748L15.84 14.324C15.864 14.204 15.96 14.06 16.176 14.06ZM25.8206 7.028H27.7166C27.9326 7.028 28.0526 7.172 28.0286 7.34C28.0046 7.508 27.8366 7.652 27.5966 7.652H25.7006C25.5326 7.652 25.4126 7.796 25.3886 7.916L23.8286 16.46C23.7806 16.652 24.0446 16.7 24.1406 16.58L25.8206 14.516C25.9166 14.396 26.0846 14.348 26.2286 14.42C26.3726 14.492 26.4206 14.66 26.3486 14.756L25.4366 16.148C25.0286 16.748 24.0926 17.804 23.3006 17.804C22.8686 17.804 22.6046 17.3 22.5566 16.796C22.5086 16.532 22.5326 16.268 22.5566 16.028C22.5806 15.836 24.0446 7.916 24.0446 7.916C24.0686 7.796 23.9966 7.652 23.8046 7.652H23.3966C23.1566 7.652 23.0126 7.508 23.0366 7.316C23.0606 7.172 23.1566 7.076 23.3246 7.004C24.5006 6.62 25.0046 5.516 25.2686 4.532C25.2926 4.412 25.4366 4.26799 25.6526 4.26799C25.8926 4.26799 25.9886 4.412 25.9646 4.556L25.6046 6.764C25.5806 6.884 25.6526 7.028 25.8206 7.028ZM35.4877 12.068C35.1517 13.796 33.4717 17.828 30.5677 17.828C27.3757 17.828 27.2077 14.036 27.5677 12.164C27.8797 10.412 29.4637 6.404 32.4397 6.404C35.6797 6.404 35.8237 10.172 35.4877 12.068ZM33.9997 12.236C34.1677 10.988 34.3357 7.076 32.1277 7.124C29.9917 7.196 29.2237 10.772 29.0557 11.996C28.8877 13.22 28.7437 17.132 30.9277 17.06C33.0157 17.012 33.8317 13.46 33.9997 12.236Z" fill="black"/>
<path d="M9.86718 0.499995V-5.24521e-06H9.85157L9.83599 0.000968456L9.86718 0.499995ZM10.2032 0.835995L9.718 0.714698L9.71569 0.724815L10.2032 0.835995ZM9.57918 3.57199L9.09169 3.46082L9.08841 3.47522L9.08598 3.48979L9.57918 3.57199ZM9.02718 3.57199L9.51761 3.67008L9.51969 3.65819L9.02718 3.57199ZM6.21918 1.748L5.73411 1.62673L5.73023 1.64225L5.72735 1.65798L6.21918 1.748ZM3.89118 14.468L3.39931 14.378L3.39831 14.3838L3.89118 14.468ZM4.68318 16.652L4.60569 17.146L4.61951 17.1481L4.63342 17.1495L4.68318 16.652ZM4.99518 17.012L5.48711 17.1014L5.48881 17.0921L5.49015 17.0827L4.99518 17.012ZM4.41918 17.42L4.3929 17.9193L4.40603 17.92H4.41918V17.42ZM0.963176 17.42L0.93381 16.9208L0.924828 16.9215L0.963176 17.42ZM0.507176 17.036L0.0221045 16.9147L0.0192189 16.9263L0.0168855 16.9379L0.507176 17.036ZM0.939176 16.628L0.874899 16.1321L0.857913 16.1343L0.841118 16.1377L0.939176 16.628ZM2.54718 14.468L2.05533 14.378L2.05466 14.3818L2.54718 14.468ZM4.87518 1.748L4.3901 1.62673L4.38623 1.64225L4.38335 1.65798L4.87518 1.748ZM1.22718 3.57199L1.69141 3.75769L1.69752 3.74242L1.70261 3.72679L1.22718 3.57199ZM0.651176 3.524L0.165853 3.40374L0.161176 3.42261L0.157979 3.4418L0.651176 3.524ZM1.32318 0.811995L0.838104 0.690727L0.837853 0.691738L1.32318 0.811995ZM1.75518 0.499995L1.78686 0.000999451L1.77103 -5.24521e-06H1.75518V0.499995ZM9.86718 0.499995V0.999995C9.8942 0.999995 9.84812 1.00805 9.78962 0.949549C9.75918 0.919107 9.73345 0.877254 9.72068 0.827976C9.70807 0.779329 9.71202 0.73905 9.71811 0.714725L10.2032 0.835995L10.6882 0.957265C10.7517 0.703344 10.6897 0.435458 10.4967 0.242442C10.3182 0.0639429 10.0802 -5.24521e-06 9.86718 -5.24521e-06V0.499995ZM10.2032 0.835995L9.71569 0.724815L9.09169 3.46082L9.57918 3.57199L10.0667 3.68318L10.6907 0.947175L10.2032 0.835995ZM9.57918 3.57199L9.08598 3.48979C9.10089 3.40035 9.15683 3.33926 9.20118 3.31125C9.23747 3.28833 9.26185 3.288 9.26718 3.288V3.788V4.288C9.52408 4.288 9.98986 4.14925 10.0724 3.6542L9.57918 3.57199ZM9.26718 3.788V3.288C9.24251 3.288 9.32907 3.28078 9.41973 3.37144C9.52559 3.4773 9.5301 3.60689 9.51747 3.67005L9.02718 3.57199L8.53689 3.47394C8.50025 3.6571 8.52876 3.89469 8.71262 4.07855C8.88128 4.24721 9.09984 4.288 9.26718 4.288V3.788ZM9.02718 3.57199L9.51969 3.65819C9.55974 3.42931 9.61522 3.13875 9.64491 2.85078C9.67456 2.56324 9.68377 2.23728 9.61405 1.92654C9.54217 1.60617 9.38144 1.28375 9.06374 1.04985C8.75289 0.820988 8.35 0.719995 7.87518 0.719995V1.22V1.72C8.21636 1.72 8.38646 1.793 8.47086 1.85514C8.54842 1.91224 8.60518 1.99782 8.6383 2.14545C8.67359 2.30271 8.67529 2.50476 8.65019 2.74821C8.62513 2.99124 8.57861 3.23468 8.53466 3.48581L9.02718 3.57199ZM7.87518 1.22V0.719995H6.89118V1.22V1.72H7.87518V1.22ZM6.89118 1.22V0.719995C6.27121 0.719995 5.85399 1.1472 5.73411 1.62673L6.21918 1.748L6.70425 1.86926C6.71687 1.81879 6.74216 1.78126 6.76924 1.75845C6.79246 1.7389 6.82819 1.72 6.89118 1.72V1.22ZM6.21918 1.748L5.72735 1.65798L3.39934 14.378L3.89118 14.468L4.38301 14.558L6.71101 1.83801L6.21918 1.748ZM3.89118 14.468L3.39831 14.3838C3.35898 14.6142 3.30685 14.8848 3.27573 15.1358C3.24432 15.3891 3.22728 15.669 3.27188 15.9386C3.31792 16.217 3.43289 16.5016 3.67589 16.7314C3.91515 16.9577 4.23294 17.0875 4.60569 17.146L4.68318 16.652L4.76066 16.158C4.52141 16.1205 4.4132 16.0523 4.36296 16.0048C4.31647 15.9609 4.27843 15.896 4.25847 15.7754C4.23707 15.646 4.24103 15.4774 4.26813 15.2589C4.2955 15.0382 4.33937 14.8138 4.38404 14.5521L3.89118 14.468ZM4.68318 16.652L4.63342 17.1495C4.64069 17.1502 4.58927 17.1442 4.54253 17.0837C4.49962 17.0282 4.49588 16.9715 4.5002 16.9413L4.99518 17.012L5.49015 17.0827C5.51847 16.8845 5.47874 16.6598 5.33382 16.4723C5.18508 16.2798 4.96566 16.1777 4.73293 16.1545L4.68318 16.652ZM4.99518 17.012L4.50324 16.9226C4.50457 16.9153 4.5082 16.9064 4.51315 16.8994C4.51743 16.8933 4.51922 16.8934 4.51359 16.8971C4.50769 16.901 4.49613 16.9071 4.47834 16.9121C4.46065 16.917 4.44027 16.92 4.41918 16.92V17.42V17.92C4.8192 17.92 5.37941 17.6938 5.48711 17.1014L4.99518 17.012ZM4.41918 17.42L4.44546 16.9207C3.97329 16.8958 3.31004 16.896 2.73918 16.896V17.396V17.896C3.32031 17.896 3.95306 17.8962 4.3929 17.9193L4.41918 17.42ZM2.73918 17.396V16.896C2.02668 16.896 1.36026 16.8958 0.933815 16.9209L0.963176 17.42L0.992537 17.9191C1.38209 17.8962 2.01167 17.896 2.73918 17.896V17.396ZM0.963176 17.42L0.924828 16.9215C0.857157 16.9267 0.876004 16.9051 0.924409 16.9464C0.950435 16.9685 0.97544 17.0023 0.989363 17.0447C1.00305 17.0864 1.00045 17.1192 0.997466 17.1341L0.507176 17.036L0.0168855 16.9379C-0.0401115 17.2229 0.0471394 17.5127 0.275943 17.7076C0.486348 17.8869 0.757195 17.9373 1.00152 17.9185L0.963176 17.42ZM0.507176 17.036L0.992247 17.1573C0.996154 17.1416 1.00209 17.1342 1.00473 17.1315C1.00608 17.1302 1.00809 17.1285 1.01175 17.1266C1.01539 17.1246 1.02321 17.1211 1.03723 17.1183L0.939176 16.628L0.841118 16.1377C0.393589 16.2272 0.11233 16.5538 0.0221045 16.9147L0.507176 17.036ZM0.939176 16.628L1.00345 17.1238C1.8097 17.0193 2.30869 16.6245 2.60449 16.0856C2.87226 15.5977 2.96091 15.0044 3.03969 14.5542L2.54718 14.468L2.05466 14.3818C1.96545 14.8916 1.89809 15.2943 1.72786 15.6044C1.58567 15.8635 1.36465 16.0687 0.874899 16.1321L0.939176 16.628ZM2.54718 14.468L3.03901 14.558L5.36701 1.83801L4.87518 1.748L4.38335 1.65798L2.05535 14.378L2.54718 14.468ZM4.87518 1.748L5.36025 1.86926C5.43115 1.58566 5.37782 1.28029 5.17346 1.04674C4.9737 0.818444 4.68441 0.719995 4.39518 0.719995V1.22V1.72C4.46594 1.72 4.45265 1.74155 4.42089 1.70525C4.40627 1.68854 4.39641 1.66806 4.39227 1.64876C4.3883 1.63023 4.39138 1.62165 4.3901 1.62673L4.87518 1.748ZM4.39518 1.22V0.719995H3.65118V1.22V1.72H4.39518V1.22ZM3.65118 1.22V0.719995C2.63115 0.719995 1.96154 1.12289 1.51874 1.70692C1.1084 2.24814 0.909984 2.93117 0.75174 3.4172L1.22718 3.57199L1.70261 3.72679C1.88037 3.18082 2.02995 2.68785 2.31561 2.31107C2.56881 1.97711 2.9432 1.72 3.65118 1.72V1.22ZM1.22718 3.57199L0.762938 3.3863C0.77505 3.35602 0.795531 3.33034 0.821834 3.31234C0.850141 3.29297 0.877041 3.288 0.891176 3.288V3.788V4.288C1.26756 4.288 1.56895 4.06384 1.69141 3.75769L1.22718 3.57199ZM0.891176 3.788V3.288C0.898787 3.288 0.996185 3.29372 1.07823 3.3947C1.15503 3.48922 1.14841 3.58199 1.14437 3.6062L0.651176 3.524L0.157979 3.4418C0.129945 3.61 0.14732 3.83477 0.302119 4.02529C0.462168 4.22227 0.691565 4.288 0.891176 4.288V3.788ZM0.651176 3.524L1.1365 3.64425L1.8085 0.932252L1.32318 0.811995L0.837853 0.691738L0.165853 3.40374L0.651176 3.524ZM1.32318 0.811995L1.80825 0.933263C1.80644 0.940478 1.80241 0.950988 1.79469 0.962399C1.787 0.973768 1.77768 0.983032 1.76833 0.989762C1.74889 1.00376 1.73989 0.999995 1.75518 0.999995V0.499995V-5.24521e-06C1.34344 -5.24521e-06 0.949527 0.245038 0.838105 0.690727L1.32318 0.811995ZM1.75518 0.499995L1.72349 0.99899C3.25286 1.09609 4.2749 1.09599 5.83518 1.09599V0.595995V0.0959949C4.27545 0.0959949 3.2815 0.0958972 1.78686 0.000999451L1.75518 0.499995ZM5.83518 0.595995V1.09599C7.39614 1.09599 8.34558 1.09607 9.89837 0.999021L9.86718 0.499995L9.83599 0.000968456C8.31678 0.0959191 7.39421 0.0959949 5.83518 0.0959949V0.595995ZM10.0926 11.276L9.60426 11.1684L9.60148 11.181L9.59935 11.1938L10.0926 11.276ZM10.3566 11.516L10.4273 12.011L10.4359 12.0097L10.4444 12.0082L10.3566 11.516ZM14.0526 8.492L14.5522 8.47227L14.5518 8.46366L14.5512 8.45506L14.0526 8.492ZM14.4366 14.804L14.2396 15.2636L14.4366 14.804ZM14.5566 15.164L14.9801 15.4299L14.9853 15.4212L14.5566 15.164ZM8.70055 12.404L9.19173 12.4976L9.19237 12.494L8.70055 12.404ZM15.4206 8.468L14.921 8.4902L14.9212 8.49272L15.4206 8.468ZM10.1406 11.996L10.0945 11.4981L10.063 11.501L10.0321 11.5079L10.1406 11.996ZM9.90055 12.404L10.396 12.4716L10.4006 12.4379V12.404H9.90055ZM13.9806 14.948L13.627 14.5944L13.6097 14.6117L13.5942 14.6306L13.9806 14.948ZM12.9486 7.22V6.72C11.8068 6.72 11.0422 7.6033 10.5608 8.47537C10.0648 9.3739 9.76434 10.4419 9.60426 11.1684L10.0926 11.276L10.5808 11.3836C10.7328 10.6941 11.0083 9.73409 11.4363 8.95862C11.8789 8.15669 12.3863 7.72 12.9486 7.72V7.22ZM10.0926 11.276L9.59935 11.1938C9.55998 11.43 9.64013 11.664 9.81058 11.8238C9.97991 11.9825 10.2081 12.0423 10.4273 12.011L10.3566 11.516L10.2858 11.021C10.337 11.0137 10.4212 11.0255 10.4945 11.0942C10.569 11.164 10.6011 11.266 10.5857 11.3582L10.0926 11.276ZM10.3566 11.516L10.4444 12.0082C11.4817 11.823 12.508 11.5061 13.2768 10.9608C14.0691 10.3989 14.596 9.58337 14.5522 8.47227L14.0526 8.492L13.5529 8.51172C13.5811 9.22462 13.268 9.74109 12.6983 10.1452C12.1051 10.5659 11.2474 10.849 10.2687 11.0238L10.3566 11.516ZM14.0526 8.492L14.5512 8.45506C14.5246 8.09605 14.442 7.67029 14.1965 7.32384C13.928 6.94518 13.5068 6.72 12.9486 6.72V7.22V7.72C13.2063 7.72 13.3131 7.80681 13.3806 7.90215C13.4711 8.0297 13.5325 8.23994 13.5539 8.52893L14.0526 8.492ZM14.4366 14.804L14.2396 15.2636C14.1918 15.2431 14.1287 15.1873 14.1042 15.0976C14.0831 15.0203 14.1002 14.9527 14.1278 14.9067L14.5566 15.164L14.9853 15.4212C15.0849 15.2553 15.126 15.0437 15.0689 14.8344C15.0084 14.6127 14.8493 14.4369 14.6335 14.3444L14.4366 14.804ZM14.5566 15.164L14.1331 14.8981C13.8261 15.3871 13.3581 16.0048 12.797 16.4941C12.2289 16.9894 11.6227 17.304 11.0286 17.304V17.804V18.304C11.9704 18.304 12.8042 17.8146 13.4541 17.2479C14.111 16.6752 14.639 15.9729 14.98 15.4299L14.5566 15.164ZM11.0286 17.804V17.304C10.5003 17.304 10.1355 17.1178 9.86437 16.83C9.57941 16.5275 9.37412 16.0854 9.24313 15.5518C8.98008 14.4802 9.05675 13.2061 9.19172 12.4976L8.70055 12.404L8.20938 12.3104C8.05635 13.1138 7.96502 14.5398 8.27197 15.7902C8.42598 16.4176 8.69019 17.042 9.13648 17.5157C9.59661 18.0042 10.2248 18.304 11.0286 18.304V17.804ZM8.70055 12.404L9.19237 12.494C9.34277 11.6726 9.7254 10.2246 10.4094 8.99625C11.1044 7.74804 12.0186 6.88 13.1886 6.88V6.38V5.88C11.4545 5.88 10.2807 7.17195 9.53571 8.50974C8.7797 9.86741 8.37033 11.4314 8.20873 12.3139L8.70055 12.404ZM13.1886 6.38V6.88C13.7977 6.88 14.2082 7.08559 14.4737 7.36403C14.7463 7.64994 14.9015 8.05063 14.921 8.4902L15.4206 8.468L15.9201 8.4458C15.8916 7.80536 15.6628 7.16205 15.1974 6.67396C14.7249 6.1784 14.0434 5.88 13.1886 5.88V6.38ZM15.4206 8.468L14.9212 8.49272C14.9687 9.45311 14.4608 10.1219 13.5589 10.6116C12.6363 11.1126 11.3658 11.3804 10.0945 11.4981L10.1406 11.996L10.1867 12.4939C11.5073 12.3716 12.9368 12.0874 14.0362 11.4904C15.1563 10.8821 15.9924 9.90688 15.9199 8.44327L15.4206 8.468ZM10.1406 11.996L10.0321 11.5079C9.78343 11.5632 9.58824 11.7125 9.48502 11.9377C9.4024 12.1179 9.40055 12.3065 9.40055 12.404H9.90055H10.4006C10.4006 12.3641 10.402 12.3423 10.4035 12.3301C10.4051 12.3181 10.4051 12.3303 10.3941 12.3543C10.3813 12.3823 10.3574 12.4176 10.3198 12.4469C10.2837 12.4752 10.2541 12.483 10.249 12.4841L10.1406 11.996ZM9.90055 12.404L9.40514 12.3364C9.32956 12.8907 9.26151 13.9389 9.48309 14.8716C9.59423 15.3393 9.78808 15.821 10.1304 16.1922C10.4873 16.5793 10.9792 16.816 11.6046 16.816V16.316V15.816C11.2579 15.816 11.0328 15.6957 10.8655 15.5143C10.6835 15.317 10.5459 15.0187 10.456 14.6404C10.2756 13.8811 10.3275 12.9733 10.396 12.4716L9.90055 12.404ZM11.6046 16.316V16.816C12.8717 16.816 13.7925 15.9647 14.3669 15.2654L13.9806 14.948L13.5942 14.6306C13.0646 15.2753 12.4014 15.816 11.6046 15.816V16.316ZM13.9806 14.948L14.3341 15.3015C14.3469 15.2888 14.358 15.2797 14.3661 15.274C14.3745 15.2681 14.376 15.2684 14.37 15.2707C14.3636 15.2732 14.3463 15.2787 14.3204 15.2792C14.2928 15.2797 14.2644 15.2742 14.2396 15.2636L14.4366 14.804L14.6335 14.3444C14.1644 14.1434 13.7782 14.4432 13.627 14.5944L13.9806 14.948ZM16.44 14.3L16.9393 14.3256L16.94 14.3128V14.3H16.44ZM19.56 15.38L20.0509 15.475L20.0524 15.4669L19.56 15.38ZM18.312 12.692L18.6466 12.3202L18.636 12.3112L18.312 12.692ZM16.872 9.476L17.3632 9.56916L17.3638 9.56632L16.872 9.476ZM21.576 6.908L21.2875 7.31662L21.2986 7.32402L21.576 6.908ZM21.744 7.316L21.249 7.24528L21.2487 7.24768L21.744 7.316ZM21.456 9.404L20.9607 9.33568L20.956 9.36968V9.404H21.456ZM20.904 9.428L20.4049 9.39775L20.404 9.41286V9.428H20.904ZM18 8.708L17.5089 8.61356L17.5073 8.62272L18 8.708ZM19.512 11.516L19.1948 11.9025L19.1949 11.9026L19.512 11.516ZM20.904 14.516L21.3947 14.6124L21.3958 14.6062L20.904 14.516ZM15.792 17.204L15.4719 17.5881L15.4784 17.5935L15.485 17.5987L15.792 17.204ZM15.6 16.748L16.095 16.8187L16.0965 16.808L16.0976 16.7973L15.6 16.748ZM15.84 14.324L15.3497 14.2259L15.3449 14.2502L15.3424 14.2747L15.84 14.324ZM16.176 14.06V14.56C16.1661 14.56 16.0989 14.556 16.0298 14.4915C15.9573 14.4238 15.94 14.3428 15.94 14.3H16.44H16.94C16.94 14.1132 16.8747 13.9121 16.7121 13.7605C16.5531 13.612 16.3538 13.56 16.176 13.56V14.06ZM16.44 14.3L15.9406 14.2744C15.9164 14.7473 15.9043 15.4952 16.0994 16.1399C16.1983 16.4666 16.3613 16.8045 16.6377 17.0641C16.9258 17.3346 17.3037 17.488 17.76 17.488V16.988V16.488C17.5443 16.488 17.4151 16.4224 17.3222 16.3351C17.2177 16.237 17.1257 16.0784 17.0565 15.8501C16.9157 15.3848 16.9156 14.7887 16.9393 14.3256L16.44 14.3ZM17.76 16.988V17.488C18.4861 17.488 19.0339 17.2147 19.4145 16.802C19.7819 16.4037 19.9676 15.9053 20.0509 15.475L19.56 15.38L19.0691 15.285C19.0084 15.5987 18.8821 15.9043 18.6794 16.124C18.4901 16.3293 18.2099 16.488 17.76 16.488V16.988ZM19.56 15.38L20.0524 15.4669C20.1764 14.7639 20.0982 14.1913 19.8183 13.6659C19.5533 13.1687 19.1249 12.7509 18.6465 12.3203L18.312 12.692L17.9775 13.0636C18.4591 13.4971 18.7626 13.8113 18.9357 14.1361C19.0938 14.4327 19.1595 14.7721 19.0676 15.2931L19.56 15.38ZM18.312 12.692L18.636 12.3112C18.0898 11.8463 17.7252 11.4433 17.5183 11.0245C17.3199 10.623 17.2491 10.1712 17.3632 9.56916L16.872 9.476L16.3807 9.38283C16.2309 10.1728 16.3161 10.849 16.6217 11.4675C16.9188 12.0687 17.4062 12.5776 17.9879 13.0728L18.312 12.692ZM16.872 9.476L17.3638 9.56632C17.4573 9.0572 17.7406 8.36417 18.2063 7.80799C18.6666 7.25828 19.2694 6.88 20.016 6.88V6.38V5.88C18.8906 5.88 18.0293 6.46171 17.4396 7.166C16.8553 7.86382 16.5027 8.71879 16.3802 9.38567L16.872 9.476ZM20.016 6.38V6.88C20.5074 6.88 20.9364 7.06854 21.2876 7.31648L21.576 6.908L21.8643 6.49951C21.3996 6.17145 20.7726 5.88 20.016 5.88V6.38ZM21.576 6.908L21.2986 7.32402C21.297 7.32291 21.2895 7.3175 21.2803 7.3063C21.2709 7.29489 21.2629 7.28134 21.2574 7.2672C21.2462 7.2386 21.2517 7.22629 21.249 7.24528L21.744 7.316L22.239 7.38671C22.2847 7.0665 22.1875 6.71473 21.8533 6.49197L21.576 6.908ZM21.744 7.316L21.2487 7.24768L20.9607 9.33568L21.456 9.404L21.9513 9.47231L22.2393 7.38431L21.744 7.316ZM21.456 9.404H20.956C20.956 9.29124 21.0179 9.21122 21.0664 9.17547C21.108 9.14481 21.1382 9.144 21.144 9.144V9.644V10.144C21.3178 10.144 21.504 10.0952 21.6596 9.98052C21.8221 9.86077 21.956 9.66075 21.956 9.404H21.456ZM21.144 9.644V9.144C21.1848 9.144 21.2504 9.15904 21.3102 9.2146C21.3707 9.27074 21.404 9.34975 21.404 9.428H20.904H20.404C20.404 9.85839 20.7594 10.144 21.144 10.144V9.644ZM20.904 9.428L21.4031 9.45824C21.4271 9.06176 21.4478 8.423 21.2646 7.86983C21.1704 7.58534 21.0124 7.29174 20.7442 7.06897C20.4685 6.84002 20.1173 6.72 19.704 6.72V7.22V7.72C19.9147 7.72 20.0315 7.77698 20.1053 7.83827C20.1866 7.90575 20.2595 8.01565 20.3153 8.18417C20.4322 8.53699 20.4289 9.00223 20.4049 9.39775L20.904 9.428ZM19.704 7.22V6.72C18.3393 6.72 17.6541 7.85917 17.509 8.61357L18 8.708L18.491 8.80242C18.5859 8.30882 19.0046 7.72 19.704 7.72V7.22ZM18 8.708L17.5073 8.62272C17.2379 10.1794 18.269 11.1429 19.1948 11.9025L19.512 11.516L19.8291 11.1295C18.883 10.3531 18.3301 9.73257 18.4927 8.79327L18 8.708ZM19.512 11.516L19.1949 11.9026C19.7978 12.397 20.1345 12.7295 20.3128 13.0745C20.4757 13.3898 20.5323 13.7708 20.4122 14.4258L20.904 14.516L21.3958 14.6062C21.5397 13.8212 21.5003 13.1942 21.2012 12.6154C20.9175 12.0665 20.4262 11.619 19.829 11.1294L19.512 11.516ZM20.904 14.516L20.4134 14.4196C20.2936 15.0291 20.0048 15.767 19.5199 16.3415C19.045 16.9041 18.3911 17.304 17.496 17.304V17.804V18.304C18.7369 18.304 19.6549 17.7319 20.2841 16.9865C20.9031 16.253 21.2503 15.3468 21.3946 14.6124L20.904 14.516ZM17.496 17.804V17.304C16.9543 17.304 16.4596 17.0898 16.099 16.8093L15.792 17.204L15.485 17.5987C15.9884 17.9902 16.6937 18.304 17.496 18.304V17.804ZM15.792 17.204L16.1121 16.8199C16.0966 16.807 16.0931 16.7984 16.0935 16.7992C16.0936 16.7996 16.0945 16.8018 16.095 16.8057C16.0956 16.8097 16.0956 16.8142 16.095 16.8187L15.6 16.748L15.105 16.6773C15.053 17.0413 15.2147 17.3738 15.4719 17.5881L15.792 17.204ZM15.6 16.748L16.0976 16.7973L16.3376 14.3733L15.84 14.324L15.3424 14.2747L15.1024 16.6987L15.6 16.748ZM15.84 14.324L16.3303 14.4221C16.3259 14.4441 16.3139 14.4778 16.2793 14.5105C16.2608 14.528 16.2389 14.5419 16.2161 14.5507C16.1936 14.5594 16.1784 14.56 16.176 14.56V14.06V13.56C15.9471 13.56 15.7443 13.6403 15.5927 13.7835C15.4501 13.9182 15.3781 14.0839 15.3497 14.2259L15.84 14.324ZM28.0286 7.34L27.5336 7.26928L27.5336 7.26929L28.0286 7.34ZM25.3886 7.916L24.8983 7.81792L24.8967 7.82619L25.3886 7.916ZM23.8286 16.46L24.3137 16.5813L24.3176 16.5656L24.3205 16.5498L23.8286 16.46ZM24.1406 16.58L23.7528 16.2643L23.7502 16.2676L24.1406 16.58ZM25.8206 14.516L26.2084 14.8316L26.211 14.8283L25.8206 14.516ZM26.3486 14.756L25.9486 14.456L25.9391 14.4687L25.9304 14.482L26.3486 14.756ZM25.4366 16.148L25.8501 16.4292L25.8548 16.422L25.4366 16.148ZM22.5566 16.796L23.0544 16.7486L23.0523 16.7274L23.0485 16.7066L22.5566 16.796ZM22.5566 16.028L22.0603 15.966L22.0591 15.9782L22.5566 16.028ZM24.0446 7.916L23.5543 7.81793L23.5529 7.82511L24.0446 7.916ZM23.0366 7.316L22.5434 7.2338L22.5417 7.24386L22.5405 7.25398L23.0366 7.316ZM23.3246 7.004L23.1694 6.52869L23.1482 6.53563L23.1277 6.54442L23.3246 7.004ZM25.2686 4.532L25.7515 4.66156L25.7557 4.64593L25.7589 4.63005L25.2686 4.532ZM25.9646 4.556L25.4714 4.4738L25.4711 4.47554L25.9646 4.556ZM25.6046 6.764L26.0949 6.86205L26.0967 6.85328L26.0981 6.84445L25.6046 6.764ZM25.8206 7.028V7.528H27.7166V7.028V6.528H25.8206V7.028ZM27.7166 7.028V7.528C27.7126 7.528 27.6562 7.52453 27.5996 7.46487C27.5416 7.40365 27.5255 7.32597 27.5336 7.26928L28.0286 7.34L28.5236 7.41071C28.5557 7.18602 28.4916 6.95234 28.3256 6.77712C28.1611 6.60346 27.9366 6.528 27.7166 6.528V7.028ZM28.0286 7.34L27.5336 7.26929C27.5423 7.20864 27.5736 7.17418 27.5911 7.16091C27.6098 7.14668 27.6161 7.152 27.5966 7.152V7.652V8.152C28.0264 8.152 28.4566 7.87931 28.5236 7.41071L28.0286 7.34ZM27.5966 7.652V7.152H25.7006V7.652V8.152H27.5966V7.652ZM25.7006 7.652V7.152C25.2364 7.152 24.9567 7.526 24.8983 7.81794L25.3886 7.916L25.8789 8.01405C25.8733 8.04199 25.8647 8.06038 25.8586 8.07103C25.8522 8.08232 25.8443 8.09271 25.8339 8.1025C25.813 8.1223 25.7669 8.152 25.7006 8.152V7.652ZM25.3886 7.916L24.8967 7.82619L23.3367 16.3702L23.8286 16.46L24.3205 16.5498L25.8805 8.0058L25.3886 7.916ZM23.8286 16.46L23.3435 16.3387C23.3022 16.5042 23.3199 16.6903 23.426 16.8515C23.5251 17.0021 23.6685 17.0814 23.7906 17.117C24.0078 17.1804 24.3273 17.147 24.531 16.8923L24.1406 16.58L23.7502 16.2676C23.807 16.1966 23.8758 16.1657 23.9233 16.1538C23.9702 16.1421 24.0199 16.1422 24.0706 16.157C24.1207 16.1716 24.2011 16.2104 24.2613 16.3017C24.3284 16.4037 24.3311 16.5117 24.3137 16.5813L23.8286 16.46ZM24.1406 16.58L24.5284 16.8956L26.2084 14.8316L25.8206 14.516L25.4328 14.2004L23.7528 16.2644L24.1406 16.58ZM25.8206 14.516L26.211 14.8283C26.1754 14.8728 26.0936 14.9115 26.005 14.8672L26.2286 14.42L26.4522 13.9728C26.0757 13.7845 25.6578 13.9191 25.4302 14.2036L25.8206 14.516ZM26.2286 14.42L26.005 14.8672C25.9568 14.8431 25.9156 14.7982 25.8953 14.7371C25.8769 14.682 25.8646 14.568 25.9486 14.456L26.3486 14.756L26.7486 15.056C26.9046 14.848 26.9043 14.602 26.844 14.4209C26.7816 14.2338 26.6444 14.0689 26.4522 13.9728L26.2286 14.42ZM26.3486 14.756L25.9304 14.482L25.0184 15.874L25.4366 16.148L25.8548 16.422L26.7668 15.03L26.3486 14.756ZM25.4366 16.148L25.0231 15.8668C24.8376 16.1397 24.5283 16.5202 24.1817 16.8262C23.8124 17.1522 23.5012 17.304 23.3006 17.304V17.804V18.304C23.892 18.304 24.4449 17.9278 24.8435 17.5758C25.2649 17.2038 25.6276 16.7563 25.8501 16.4292L25.4366 16.148ZM23.3006 17.804V17.304C23.2951 17.304 23.2901 17.3037 23.2781 17.2961C23.2625 17.2861 23.2342 17.262 23.2006 17.2116C23.1306 17.1067 23.0725 16.9388 23.0544 16.7486L22.5566 16.796L22.0589 16.8434C22.0887 17.1572 22.1866 17.4933 22.3686 17.7663C22.5526 18.0424 22.8633 18.304 23.3006 18.304V17.804ZM22.5566 16.796L23.0485 16.7066C23.0148 16.521 23.0296 16.3233 23.0541 16.0777L22.5566 16.028L22.0591 15.9782C22.0356 16.2127 22.0024 16.543 22.0647 16.8854L22.5566 16.796ZM22.5566 16.028L23.0528 16.09C23.0523 16.0938 23.0563 16.0681 23.0697 15.9918C23.0816 15.9243 23.0984 15.8302 23.1195 15.713C23.1617 15.4787 23.2208 15.154 23.2911 14.7694C23.4317 14.0002 23.6169 12.9925 23.8013 11.9905C23.9858 10.9886 24.1696 9.99272 24.3072 9.24727C24.376 8.87454 24.4333 8.56444 24.4733 8.34752C24.4934 8.23906 24.5091 8.1539 24.5198 8.09585C24.5252 8.06683 24.5293 8.04458 24.5321 8.02959C24.5335 8.0221 24.5345 8.01642 24.5352 8.01262C24.5356 8.01071 24.5358 8.00928 24.536 8.00832C24.5361 8.00784 24.5362 8.00748 24.5362 8.00724C24.5362 8.00712 24.5363 8.00703 24.5363 8.00697C24.5363 8.00691 24.5363 8.00688 24.0446 7.916C23.5529 7.82511 23.5529 7.82514 23.5529 7.8252C23.5529 7.82526 23.5529 7.82535 23.5529 7.82547C23.5528 7.82572 23.5528 7.82608 23.5527 7.82656C23.5525 7.82752 23.5522 7.82895 23.5519 7.83086C23.5512 7.83467 23.5501 7.84035 23.5487 7.84785C23.546 7.86284 23.5419 7.88509 23.5365 7.91413C23.5258 7.97219 23.51 8.05737 23.49 8.16585C23.4499 8.3828 23.3926 8.69295 23.3238 9.06573C23.1862 9.81127 23.0024 10.8074 22.8179 11.8095C22.452 13.7963 22.0749 15.8509 22.0605 15.966L22.5566 16.028ZM24.0446 7.916L24.5349 8.01405C24.5721 7.82827 24.5382 7.6124 24.4028 7.43527C24.2572 7.24489 24.0355 7.152 23.8046 7.152V7.652V8.152C23.7657 8.152 23.676 8.1311 23.6084 8.04272C23.551 7.96759 23.5412 7.88372 23.5543 7.81794L24.0446 7.916ZM23.8046 7.652V7.152H23.3966V7.652V8.152H23.8046V7.652ZM23.3966 7.652V7.152C23.3732 7.152 23.4118 7.14566 23.4624 7.19393C23.4877 7.21803 23.5092 7.25017 23.522 7.28745C23.5346 7.32436 23.5354 7.35648 23.5328 7.37801L23.0366 7.316L22.5405 7.25398C22.51 7.49784 22.5882 7.74226 22.7728 7.91806C22.9495 8.08633 23.18 8.152 23.3966 8.152V7.652ZM23.0366 7.316L23.5298 7.39819C23.5283 7.40737 23.5245 7.42165 23.5164 7.43801C23.5083 7.45443 23.4987 7.46715 23.4907 7.47568C23.4765 7.49082 23.4766 7.48284 23.5216 7.46357L23.3246 7.004L23.1277 6.54442C22.8707 6.65456 22.6057 6.8602 22.5434 7.2338L23.0366 7.316ZM23.3246 7.004L23.4798 7.4793C24.9135 7.01116 25.4793 5.67638 25.7515 4.66156L25.2686 4.532L24.7857 4.40243C24.53 5.35561 24.0877 6.22883 23.1694 6.52869L23.3246 7.004ZM25.2686 4.532L25.7589 4.63005C25.7502 4.67356 25.7346 4.70216 25.7244 4.71747C25.7135 4.73381 25.7028 4.74412 25.6943 4.75064C25.6759 4.76492 25.6591 4.76799 25.6526 4.76799V4.26799V3.76799C25.2235 3.76799 24.8538 4.0563 24.7783 4.43394L25.2686 4.532ZM25.6526 4.26799V4.76799C25.6743 4.76799 25.6115 4.77269 25.5441 4.70131C25.4753 4.62844 25.4608 4.53738 25.4714 4.4738L25.9646 4.556L26.4578 4.63819C26.4924 4.43061 26.4419 4.19555 26.2711 4.01468C26.1017 3.8353 25.8709 3.76799 25.6526 3.76799V4.26799ZM25.9646 4.556L25.4711 4.47554L25.1111 6.68354L25.6046 6.764L26.0981 6.84445L26.4581 4.63645L25.9646 4.556ZM25.6046 6.764L25.1143 6.66594C25.0774 6.85067 25.1114 7.05828 25.2321 7.22934C25.3637 7.41579 25.5775 7.528 25.8206 7.528V7.028V6.528C25.8957 6.528 25.9895 6.5682 26.0491 6.65265C26.0978 6.72171 26.1078 6.79733 26.0949 6.86205L25.6046 6.764ZM35.4877 12.068L35.9786 12.1634L35.9801 12.1552L35.4877 12.068ZM27.5677 12.164L28.0588 12.2584L28.06 12.2517L27.5677 12.164ZM33.9997 12.236L34.4951 12.304L34.4953 12.3027L33.9997 12.236ZM32.1277 7.12399L32.1169 6.62408L32.1109 6.62428L32.1277 7.12399ZM29.0557 11.996L29.5511 12.064L29.0557 11.996ZM30.9277 17.06L30.9162 16.5601L30.9113 16.5603L30.9277 17.06ZM35.4877 12.068L34.9969 11.9726C34.8404 12.7773 34.3601 14.1535 33.5761 15.3165C32.7837 16.4922 31.7687 17.328 30.5677 17.328V17.828V18.328C32.2708 18.328 33.5478 17.1478 34.4053 15.8755C35.2714 14.5905 35.799 13.0867 35.9785 12.1634L35.4877 12.068ZM30.5677 17.828V17.328C29.8765 17.328 29.384 17.1257 29.0229 16.8231C28.6542 16.514 28.3879 16.0707 28.2098 15.5392C27.8497 14.4642 27.889 13.141 28.0587 12.2584L27.5677 12.164L27.0767 12.0696C26.8865 13.059 26.8298 14.5678 27.2616 15.8568C27.4796 16.5073 27.8312 17.129 28.3805 17.5894C28.9375 18.0563 29.663 18.328 30.5677 18.328V17.828ZM27.5677 12.164L28.06 12.2517C28.2057 11.4334 28.6574 10.0594 29.4219 8.90269C30.1922 7.73722 31.2005 6.904 32.4397 6.904V6.404V5.904C30.703 5.904 29.4313 7.07477 28.5876 8.3513C27.7381 9.63663 27.2418 11.1425 27.0755 12.0763L27.5677 12.164ZM32.4397 6.404V6.904C33.1457 6.904 33.6465 7.10642 34.0118 7.40798C34.3843 7.71543 34.652 8.15611 34.8311 8.68528C35.1935 9.75617 35.1551 11.0798 34.9954 11.9807L35.4877 12.068L35.9801 12.1552C36.1564 11.1602 36.2139 9.65182 35.7784 8.36471C35.5584 7.71488 35.2037 7.09506 34.6484 6.63676C34.086 6.17257 33.3538 5.904 32.4397 5.904V6.404ZM33.9997 12.236L34.4953 12.3027C34.5829 11.652 34.6729 10.3027 34.4461 9.10122C34.333 8.50256 34.1325 7.89085 33.7716 7.42201C33.3934 6.93067 32.8449 6.60829 32.1169 6.62411L32.1277 7.12399L32.1386 7.62388C32.5146 7.6157 32.7731 7.76432 32.9792 8.03198C33.2025 8.32214 33.3635 8.75743 33.4634 9.28677C33.6625 10.3413 33.5846 11.572 33.5042 12.1693L33.9997 12.236ZM32.1277 7.12399L32.1109 6.62428C30.7318 6.67076 29.8897 7.84067 29.3986 8.92109C28.8903 10.0392 28.6476 11.2926 28.5604 11.928L29.0557 11.996L29.5511 12.064C29.6319 11.4754 29.8571 10.3288 30.3089 9.3349C30.7778 8.30332 31.3876 7.64923 32.1446 7.62371L32.1277 7.12399ZM29.0557 11.996L28.5604 11.928C28.4722 12.5702 28.3887 13.9135 28.6188 15.1085C28.7334 15.7038 28.9349 16.3125 29.2949 16.7774C29.6726 17.2651 30.2199 17.5836 30.9442 17.5597L30.9277 17.06L30.9113 16.5603C30.5436 16.5724 30.2898 16.4289 30.0856 16.1651C29.8636 15.8785 29.7021 15.4462 29.6007 14.9195C29.3988 13.8705 29.4712 12.6458 29.5511 12.064L29.0557 11.996ZM30.9277 17.06L30.9392 17.5599C32.2975 17.5286 33.1417 16.3671 33.6373 15.2995C34.1516 14.1914 34.4072 12.9442 34.4951 12.304L33.9997 12.236L33.5044 12.168C33.4243 12.7518 33.1878 13.8926 32.7302 14.8785C32.2538 15.9049 31.646 16.5434 30.9162 16.5601L30.9277 17.06Z" fill="black"/>
</svg>
