<svg width="327" height="62" viewBox="0 0 327 62" fill="none" xmlns="http://www.w3.org/2000/svg">
<g style="mix-blend-mode:color-burn" filter="url(#filter0_g_8_35)">
<rect x="1" y="1" width="325" height="60" rx="29" fill="#988E86" fill-opacity="0.5"/>
<rect x="2.5" y="2.5" width="322" height="57" rx="27.5" stroke="black" stroke-width="3"/>
<path d="M127.705 16.84C128.105 16.84 128.345 17.08 128.345 17.4L128.145 21.96C128.145 22.2 127.905 22.32 127.705 22.32C127.385 22.32 127.225 22.16 127.225 21.96C127.225 20.36 127.305 18.04 124.585 18.04H122.945C122.345 18.04 122.025 18.44 122.025 18.92V40.12C122.025 41.76 121.905 43.44 123.985 43.76C124.385 43.8 124.625 44.08 124.625 44.36C124.625 44.8 124.225 45.04 123.785 45.04C122.985 45 121.905 45 120.985 45C119.785 45 118.705 45 118.025 45.04C117.505 45.08 117.145 44.8 117.145 44.4C117.145 44.08 117.345 43.8 117.745 43.72C119.865 43.44 119.785 41.72 119.785 40.12V18.92C119.785 18.44 119.385 18.04 118.785 18.04H117.545C114.665 18.04 114.465 20.24 114.225 21.96C114.185 22.16 114.025 22.32 113.745 22.32C113.425 22.32 113.265 22.12 113.265 21.88L113.545 17.36C113.545 17.04 113.825 16.84 114.185 16.84C116.745 17 118.425 17 121.025 17C123.625 17 125.145 17 127.705 16.84ZM137.905 26.68C139.305 26.68 139.705 27.84 139.705 28.64C139.705 29.24 139.345 30.6 138.385 30.6C137.425 30.6 137.425 29.32 136.465 29.32C135.145 29.32 134.105 31.6 134.105 33V41.04C134.105 42.88 134.185 43.64 136.345 43.76C136.785 43.8 137.065 44.08 137.065 44.44C137.025 44.8 136.705 45.04 136.265 45.04C135.465 45 134.585 45 133.785 45C132.785 45 131.705 45 130.665 45.04C130.185 45.04 129.905 44.76 129.905 44.4C129.905 44 130.185 43.8 130.545 43.72C132.025 43.56 132.025 42.44 132.025 41.04V32.08C132.025 30.56 131.945 29.36 130.745 29.2C130.465 29.16 130.225 29 130.185 28.8C130.065 28.6 130.145 28.36 130.305 28.2C130.905 27.52 132.305 26.8 133.265 26.64C133.385 26.64 133.585 26.64 133.745 26.68C134.065 26.8 134.225 27.04 134.225 27.44C134.185 28.24 134.145 28.84 134.145 29.6C134.105 29.84 134.425 29.92 134.505 29.76C135.265 28.48 136.705 26.68 137.905 26.68ZM148.169 40V38.8C148.169 38.68 148.089 38.56 147.889 38.56C145.169 38.56 142.929 38.6 142.929 40.8C142.929 42 143.009 43.52 145.009 43.52C146.689 43.52 148.169 41.56 148.169 40ZM152.929 42.8C153.129 42.92 153.209 43.2 153.089 43.36C152.409 44.32 151.049 45.68 149.849 45.68C148.849 45.68 148.449 44.44 148.289 43.56C148.249 43.36 147.929 43.24 147.769 43.48C146.889 44.56 145.529 45.68 143.809 45.68C141.489 45.68 140.809 42.88 140.809 41.52C140.809 38.12 142.729 37.52 147.889 37.48C148.089 37.48 148.169 37.36 148.169 37.2V32.32C148.169 31 148.089 28.56 145.769 28.56C144.409 28.56 142.929 30.52 143.729 32.44C143.889 32.84 143.209 33.6 142.449 33.6C141.529 33.6 141.129 32.84 141.129 32.12C141.129 30.44 142.609 29.08 144.129 27.96C144.889 27.4 145.769 26.64 146.889 26.64C149.569 26.64 150.289 29.4 150.289 31V41.08C150.289 42.44 150.489 43.2 151.049 43.32C151.449 43.44 151.809 43.28 152.209 42.88C152.409 42.68 152.689 42.64 152.929 42.8ZM164.497 40.92C164.777 41.12 164.777 41.36 164.657 41.6C163.657 43.24 161.657 45.68 159.097 45.68C155.057 45.68 153.577 39.64 153.577 37.2C153.577 33.52 155.017 26.64 160.457 26.64C162.657 26.64 164.297 28.56 164.297 30.36C164.297 31.36 163.657 32 162.857 32C161.897 32 161.337 31.16 161.537 30.68C162.017 29.4 161.617 27.88 159.737 27.88C156.737 27.88 155.577 32.56 155.577 35.4C155.577 37.72 156.177 43.12 160.257 43.12C161.697 43.12 162.897 42.04 163.657 41.08C163.857 40.8 164.217 40.72 164.497 40.92ZM179.804 44.32C179.884 44.68 179.564 45 179.084 45C178.684 45 178.204 45 177.804 45C177.364 45 176.844 45 176.324 45C176.044 45 175.804 44.88 175.684 44.68C175.484 44.28 175.244 43.84 174.884 43.32L170.844 36.8C170.764 36.68 170.564 36.68 170.484 36.76L169.964 37.36C169.884 37.48 169.844 37.6 169.844 37.72V41C169.844 42.2 169.804 43.48 171.164 43.72C171.564 43.8 171.764 44.08 171.764 44.4C171.764 44.76 171.444 45.04 170.964 45.04C170.324 45 169.484 45 168.804 45C168.124 45 167.404 45 166.724 45.04C166.204 45.04 165.924 44.8 165.884 44.44C165.844 44.04 166.084 43.8 166.444 43.72C167.804 43.48 167.724 42.12 167.724 41V20.2C167.724 19 167.924 17.64 166.044 17.48C165.764 17.44 165.524 17.28 165.484 17.08C165.404 16.88 165.444 16.64 165.604 16.44C166.364 15.68 167.844 14.8 168.964 14.6C169.164 14.6 169.364 14.64 169.564 14.72C169.804 14.84 169.964 15.04 169.964 15.28C169.884 16.52 169.844 17.6 169.844 18.92V35.12C169.844 35.32 170.084 35.36 170.204 35.24L173.764 31C174.524 30.08 174.964 29.48 174.964 29.12C174.964 28.84 174.604 28.68 174.164 28.6C173.804 28.52 173.604 28.28 173.604 27.96C173.604 27.52 173.964 27.28 174.444 27.28C175.124 27.32 175.924 27.32 176.444 27.32C176.884 27.32 177.684 27.32 178.284 27.28C178.804 27.28 179.124 27.56 179.124 27.96C179.084 28.32 178.844 28.56 178.484 28.64C177.244 28.88 176.364 29.76 175.604 30.72L172.284 34.64C172.124 34.84 172.124 35.08 172.244 35.32L176.604 42.04C177.284 43.08 177.924 43.6 179.204 43.76C179.564 43.8 179.764 44.04 179.804 44.32ZM186.166 43.72C186.566 43.8 186.766 44.04 186.766 44.4C186.766 44.8 186.366 45.04 185.966 45.04C185.326 45 184.486 45 183.806 45C183.126 45 182.366 45 181.686 45.04C181.206 45.04 180.886 44.76 180.846 44.4C180.846 44.08 181.046 43.8 181.406 43.72C182.806 43.48 182.726 42.12 182.726 41V20.2C182.726 19 182.846 17.64 181.046 17.48C180.766 17.44 180.526 17.28 180.486 17.08C180.366 16.88 180.446 16.64 180.606 16.44C181.366 15.68 182.846 14.8 183.966 14.6C184.166 14.56 184.446 14.64 184.606 14.76C184.846 14.88 184.966 15.08 184.966 15.28C184.886 16.52 184.846 17.6 184.846 18.92V41C184.846 42.2 184.766 43.48 186.166 43.72ZM192.702 18.88C192.702 19.92 191.862 20.76 190.862 20.76C189.822 20.76 188.982 19.92 188.982 18.88C188.982 17.88 189.822 17.04 190.862 17.04C191.862 17.04 192.702 17.88 192.702 18.88ZM193.782 43.72C194.182 43.8 194.382 44.04 194.382 44.36C194.382 44.76 194.022 45.04 193.582 45.04C192.902 45 192.142 45 191.462 45C190.782 45 190.022 45 189.342 45.04C188.902 45.04 188.502 44.76 188.502 44.36C188.502 44.08 188.702 43.8 189.062 43.72C190.422 43.52 190.382 42.4 190.382 41.24V31.92C190.382 30.44 190.302 29.36 189.102 29.2C188.822 29.16 188.622 29 188.542 28.8C188.462 28.6 188.502 28.36 188.702 28.2C189.302 27.52 190.702 26.76 191.662 26.64C191.742 26.6 191.982 26.64 192.142 26.68C192.462 26.8 192.582 27.04 192.582 27.4C192.542 28.68 192.462 29.64 192.462 30.92V41.24C192.462 42.44 192.462 43.52 193.782 43.72ZM201.164 35.2C203.444 36.84 204.404 37.8 204.404 40.2C204.404 42.44 203.284 45.68 199.724 45.68C198.604 45.68 197.524 45.24 196.684 44.68C196.444 44.48 196.284 44.2 196.244 43.92L195.924 39.88C195.924 39.68 196.084 39.44 196.404 39.44C196.684 39.44 196.844 39.6 196.884 39.8C197.084 41.36 197.684 44.32 199.924 44.32C201.884 44.32 202.444 42.88 202.444 41.64C202.444 39.6 201.404 38.6 199.524 37.16C197.404 35.56 196.164 34.12 196.164 31.8C196.164 29.84 197.324 26.64 200.444 26.64C201.164 26.64 203.604 27.16 203.604 28.2L203.764 31.68C203.804 31.88 203.604 32.08 203.324 32.08C203.044 32.08 202.884 31.92 202.844 31.72C202.684 30.4 202.244 28.04 200.164 28.04C198.444 28.04 197.804 29.48 197.804 30.52C197.804 32.6 199.364 33.92 201.164 35.2ZM213.843 42.36C214.043 42.48 214.163 42.76 214.003 42.92C213.203 44.08 211.723 45.68 210.123 45.68C207.803 45.68 207.403 43.2 207.403 41.88V29.16C207.403 28.92 207.283 28.76 207.043 28.76H206.243C205.803 28.76 205.563 28.52 205.563 28.2C205.563 27.96 205.683 27.8 205.923 27.68C207.803 27.04 208.283 25.2 208.443 23.56C208.443 23.32 208.683 23.12 208.963 23.12C209.243 23.12 209.523 23.32 209.523 23.6V27.32C209.523 27.52 209.643 27.72 209.923 27.72H213.123C213.523 27.72 213.723 27.96 213.723 28.24C213.723 28.56 213.483 28.76 213.123 28.76H209.923C209.643 28.76 209.523 28.92 209.523 29.16V40C209.523 40.76 209.443 43.56 210.923 43.56C211.563 43.56 212.523 43.04 213.123 42.48C213.323 42.32 213.603 42.24 213.843 42.36Z" fill="black"/>
</g>
<defs>
<filter id="filter0_g_8_35" x="0.2" y="0.2" width="326.6" height="61.6" filterUnits="userSpaceOnUse" color-interpolation-filters="sRGB">
<feFlood flood-opacity="0" result="BackgroundImageFix"/>
<feBlend mode="normal" in="SourceGraphic" in2="BackgroundImageFix" result="shape"/>
<feTurbulence type="fractalNoise" baseFrequency="1.1111111640930176 1.1111111640930176" numOctaves="3" seed="8928" />
<feDisplacementMap in="shape" scale="1.6000000238418579" xChannelSelector="R" yChannelSelector="G" result="displacedImage" width="100%" height="100%" />
<feMerge result="effect1_texture_8_35">
<feMergeNode in="displacedImage"/>
</feMerge>
</filter>
</defs>
</svg>
