<svg width="90" height="34" viewBox="0 0 90 34" fill="none" xmlns="http://www.w3.org/2000/svg">
<path d="M14.1534 25.483C14.5269 25.483 14.7344 25.7735 14.6929 26.064C14.4024 27.3505 13.8629 30.214 13.6139 31.5005C13.5724 31.874 13.1989 32.123 12.7424 32.123C10.5429 32.0815 9.83741 32.04 7.67941 32.04C5.56291 32.04 3.36341 32.0815 1.24691 32.123C0.83191 32.123 0.49991 31.8325 0.49991 31.459C0.49991 31.127 0.74891 30.8365 1.12241 30.795C2.94841 30.5045 3.03141 28.969 3.03141 27.226V7.76254C3.03141 6.14404 3.15591 4.48404 1.16391 4.27654C0.74891 4.23504 0.49991 3.94454 0.49991 3.61254C0.49991 3.19754 0.83191 2.90704 1.24691 2.90704C3.11441 2.99004 4.81591 2.99004 6.80791 2.99004C8.88291 2.99004 10.9994 2.94854 12.9499 2.90704C13.3649 2.90704 13.6139 3.15604 13.6139 3.48804V8.96604C13.6139 9.17354 13.4064 9.42254 13.0744 9.42254C12.7424 9.42254 12.5764 9.17354 12.5349 8.96604C12.3689 6.47604 12.4934 4.19354 8.71691 4.19354H6.26841C5.68741 4.19354 5.35541 4.52554 5.35541 5.02354V15.7305C5.35541 16.104 5.60441 16.3945 6.06091 16.3945H9.25641C11.2069 16.3945 11.2069 14.527 11.2069 13.2405C11.2069 13.033 11.4144 12.8255 11.7464 12.8255C12.1199 12.8255 12.2859 13.033 12.2859 13.2405V21.0425C12.2859 21.25 12.0784 21.4575 11.7464 21.4575C11.4144 21.4575 11.2069 21.25 11.2069 21.001C11.2484 19.6315 11.3729 17.4735 9.21491 17.4735H6.06091C5.60441 17.4735 5.35541 17.764 5.35541 18.1375V26.8525C5.35541 30.1725 6.14391 30.961 8.79991 30.961C12.6179 30.961 12.9914 28.471 13.5724 25.898C13.6139 25.6905 13.8214 25.483 14.1534 25.483ZM31.0352 29.799C31.2012 29.9235 31.2427 30.1725 31.1182 30.3385C30.4542 31.3345 29.0432 32.7455 27.7982 32.7455C26.7607 32.7455 26.3042 31.0855 26.1382 29.9235C26.1382 29.716 25.8062 29.633 25.6402 29.8405C24.5197 31.127 22.9012 32.7455 21.0752 32.7455C17.8382 32.7455 17.8382 28.72 17.8382 26.3545V18.511C17.8382 16.934 17.7552 15.8135 16.4687 15.689C16.1782 15.6475 15.9707 15.4815 15.9292 15.274C15.8047 15.025 15.8877 14.8175 16.0537 14.61C16.7177 13.946 18.1287 13.1575 19.1247 13.033C19.2492 12.9915 19.4982 12.9915 19.6227 13.0745C19.9547 13.1575 20.1207 13.448 20.1207 13.8215C20.0792 14.9005 20.0377 16.27 19.9962 17.349V23.906C19.9962 25.815 19.6642 30.4215 22.4447 30.4215C23.6067 30.4215 25.1007 29.0105 25.8062 28.1805C25.9722 27.9315 26.0967 27.6825 26.0967 27.4335V18.511C26.0967 16.934 26.0137 15.8135 24.7272 15.689C24.4367 15.6475 24.2292 15.4815 24.1462 15.274C24.0632 15.025 24.1462 14.8175 24.3122 14.61C24.9347 13.946 26.3872 13.1575 27.3832 13.033C27.5077 12.9915 27.7152 12.9915 27.8812 13.0745C28.2132 13.1575 28.3792 13.448 28.3377 13.8215C28.3377 14.9005 28.2547 16.27 28.2547 17.349V27.5995C28.2547 28.969 28.4622 30.1725 29.0432 30.297C29.4582 30.4215 29.7902 30.2555 30.2467 29.8405C30.4542 29.633 30.7862 29.5915 31.0352 29.799ZM38.3372 3.23904C36.8017 3.23904 36.3452 6.64204 36.3452 7.76254V13.697C36.3452 13.946 36.4697 14.112 36.8017 14.112H39.4577C39.8312 14.112 40.0802 14.361 40.0802 14.6515C40.0387 14.9835 39.8312 15.191 39.4577 15.191H36.8017C36.4697 15.191 36.3452 15.357 36.3452 15.606V28.305C36.3452 29.8405 36.5942 30.629 38.3372 30.7535C38.7937 30.795 39.0427 31.0855 39.0427 31.4175C39.0427 31.791 38.7107 32.123 38.2127 32.0815C37.3827 32.04 36.5527 32.04 35.4322 32.04C34.3117 32.04 33.4402 32.0815 32.6932 32.0815C32.1537 32.123 31.8217 31.791 31.8217 31.4175C31.8217 31.044 32.0707 30.795 32.4442 30.7535C33.9382 30.546 34.1872 29.467 34.1872 28.222V15.606C34.1872 15.357 34.0212 15.191 33.7307 15.191H32.8592C32.4857 15.191 32.2782 14.9835 32.2367 14.6515C32.2367 14.4025 32.4027 14.195 32.6517 14.112C33.6892 13.9045 34.1872 13.3235 34.1872 12.3275C34.1872 10.211 34.5607 7.59654 35.4737 5.18954C35.9302 3.94454 38.1297 0.500037 39.9557 0.500037C41.2422 0.500037 41.5327 1.49604 41.5327 2.28454C41.5327 2.86554 41.1177 3.86154 40.2047 3.86154C39.4577 3.86154 39.2502 3.23904 38.3372 3.23904ZM52.2274 23.1175C52.1029 20.9595 51.1484 14.195 47.3304 14.278C43.6784 14.4025 43.4709 20.586 43.5954 22.7025C43.7199 24.819 44.7574 31.5835 48.4509 31.459C52.0614 31.376 52.3104 25.234 52.2274 23.1175ZM54.7174 22.827C54.7174 25.815 53.0989 32.787 48.0774 32.787C42.5579 32.787 41.0639 26.23 41.0639 22.993C41.0639 19.9635 42.5579 13.033 47.7039 13.033C53.3064 13.033 54.7174 19.5485 54.7174 22.827ZM64.5616 13.033C66.0141 13.033 66.4291 14.2365 66.4291 15.0665C66.4291 15.689 66.0556 17.1 65.0596 17.1C64.0636 17.1 64.0636 15.772 63.0676 15.772C61.6981 15.772 60.6191 18.1375 60.6191 19.59V27.9315C60.6191 29.8405 60.7021 30.629 62.9431 30.7535C63.3996 30.795 63.6901 31.0855 63.6901 31.459C63.6486 31.8325 63.3166 32.0815 62.8601 32.0815C62.0301 32.04 61.1171 32.04 60.2871 32.04C59.2496 32.04 58.1291 32.04 57.0501 32.0815C56.5521 32.0815 56.2616 31.791 56.2616 31.4175C56.2616 31.0025 56.5521 30.795 56.9256 30.712C58.4611 30.546 58.4611 29.384 58.4611 27.9315V18.6355C58.4611 17.0585 58.3781 15.8135 57.1331 15.6475C56.8426 15.606 56.5936 15.44 56.5521 15.2325C56.4276 15.025 56.5106 14.776 56.6766 14.61C57.2991 13.9045 58.7516 13.1575 59.7476 12.9915C59.8721 12.9915 60.0796 12.9915 60.2456 13.033C60.5776 13.1575 60.7436 13.4065 60.7436 13.8215C60.7021 14.6515 60.6606 15.274 60.6606 16.0625C60.6191 16.3115 60.9511 16.3945 61.0341 16.2285C61.8226 14.9005 63.3166 13.033 64.5616 13.033ZM72.1733 4.94054C72.1733 6.01954 71.3018 6.89104 70.2643 6.89104C69.1853 6.89104 68.3138 6.01954 68.3138 4.94054C68.3138 3.90304 69.1853 3.03154 70.2643 3.03154C71.3018 3.03154 72.1733 3.90304 72.1733 4.94054ZM73.2938 30.712C73.7088 30.795 73.9163 31.044 73.9163 31.376C73.9163 31.791 73.5428 32.0815 73.0863 32.0815C72.3808 32.04 71.5923 32.04 70.8868 32.04C70.1813 32.04 69.3928 32.04 68.6873 32.0815C68.2308 32.0815 67.8158 31.791 67.8158 31.376C67.8158 31.0855 68.0233 30.795 68.3968 30.712C69.8078 30.5045 69.7663 29.3425 69.7663 28.139V18.4695C69.7663 16.934 69.6833 15.8135 68.4383 15.6475C68.1478 15.606 67.9403 15.44 67.8573 15.2325C67.7743 15.025 67.8158 14.776 68.0233 14.61C68.6458 13.9045 70.0983 13.116 71.0943 12.9915C71.1773 12.95 71.4263 12.9915 71.5923 13.033C71.9243 13.1575 72.0488 13.4065 72.0488 13.78C72.0073 15.108 71.9243 16.104 71.9243 17.432V28.139C71.9243 29.384 71.9243 30.5045 73.2938 30.712ZM83.5592 26.8525V25.6075C83.5592 25.483 83.4762 25.3585 83.2687 25.3585C80.4467 25.3585 78.1227 25.4 78.1227 27.6825C78.1227 28.9275 78.2057 30.5045 80.2807 30.5045C82.0237 30.5045 83.5592 28.471 83.5592 26.8525ZM88.4977 29.7575C88.7052 29.882 88.7882 30.1725 88.6637 30.3385C87.9582 31.3345 86.5472 32.7455 85.3022 32.7455C84.2647 32.7455 83.8497 31.459 83.6837 30.546C83.6422 30.3385 83.3102 30.214 83.1442 30.463C82.2312 31.5835 80.8202 32.7455 79.0357 32.7455C76.6287 32.7455 75.9232 29.8405 75.9232 28.4295C75.9232 24.902 77.9152 24.2795 83.2687 24.238C83.4762 24.238 83.5592 24.1135 83.5592 23.9475V18.8845C83.5592 17.515 83.4762 14.9835 81.0692 14.9835C79.6582 14.9835 78.1227 17.017 78.9527 19.009C79.1187 19.424 78.4132 20.2125 77.6247 20.2125C76.6702 20.2125 76.2552 19.424 76.2552 18.677C76.2552 16.934 77.7907 15.523 79.3677 14.361C80.1562 13.78 81.0692 12.9915 82.2312 12.9915C85.0117 12.9915 85.7587 15.855 85.7587 17.515V27.973C85.7587 29.384 85.9662 30.1725 86.5472 30.297C86.9622 30.4215 87.3357 30.2555 87.7507 29.8405C87.9582 29.633 88.2487 29.5915 88.4977 29.7575Z" fill="black"/>
<path d="M14.6929 26.064L15.1806 26.1742L15.185 26.1546L15.1879 26.1348L14.6929 26.064ZM13.6139 31.5005L13.123 31.4055L13.1192 31.4253L13.117 31.4453L13.6139 31.5005ZM12.7424 32.123L12.733 32.623H12.7424V32.123ZM1.24691 32.123V32.6231L1.25671 32.6229L1.24691 32.123ZM1.12241 30.795L1.17763 31.292L1.18933 31.2907L1.20097 31.2888L1.12241 30.795ZM1.16391 4.27654L1.21571 3.77922L1.21366 3.77902L1.16391 4.27654ZM1.24691 2.90704L1.26911 2.40753L1.25802 2.40704H1.24691V2.90704ZM12.9499 2.90704V2.40693L12.9393 2.40715L12.9499 2.90704ZM12.5349 8.96604L12.036 8.9993L12.0382 9.03198L12.0446 9.06409L12.5349 8.96604ZM11.2069 21.001L10.7071 20.9859L10.7069 20.9935V21.001H11.2069ZM13.5724 25.898L14.0603 26.0082L14.0627 25.9961L13.5724 25.898ZM14.1534 25.483V25.983C14.1812 25.983 14.1943 25.9882 14.1977 25.9897C14.2011 25.9912 14.2006 25.9917 14.1992 25.99C14.1965 25.9869 14.1989 25.9869 14.1979 25.9933L14.6929 26.064L15.1879 26.1348C15.2716 25.5489 14.8371 24.983 14.1534 24.983V25.483ZM14.6929 26.064L14.2052 25.9539C13.9124 27.2504 13.3704 30.1273 13.123 31.4055L13.6139 31.5005L14.1048 31.5956C14.3554 30.3007 14.8924 27.4507 15.1806 26.1742L14.6929 26.064ZM13.6139 31.5005L13.117 31.4453C13.1143 31.4691 13.1026 31.5033 13.0471 31.5422C12.9871 31.5842 12.8833 31.623 12.7424 31.623V32.123V32.623C13.3401 32.623 14.0302 32.2813 14.1109 31.5558L13.6139 31.5005ZM12.7424 32.123L12.7518 31.6231C10.5625 31.5818 9.84344 31.54 7.67941 31.54V32.04V32.54C9.83138 32.54 10.5233 32.5813 12.733 32.623L12.7424 32.123ZM7.67941 32.04V31.54C5.55729 31.54 3.35307 31.5816 1.23711 31.6231L1.24691 32.123L1.25671 32.6229C3.37375 32.5814 5.56853 32.54 7.67941 32.54V32.04ZM1.24691 32.123V31.623C1.1556 31.623 1.08824 31.5913 1.04907 31.5566C1.01179 31.5236 0.99991 31.4901 0.99991 31.459H0.49991H-8.97646e-05C-8.97646e-05 32.1645 0.615145 32.623 1.24691 32.623V32.123ZM0.49991 31.459H0.99991C0.99991 31.4199 1.01407 31.384 1.04034 31.3552C1.0657 31.3275 1.10886 31.2996 1.17763 31.292L1.12241 30.795L1.06719 30.2981C0.449335 30.3667 -8.97646e-05 30.8635 -8.97646e-05 31.459H0.49991ZM1.12241 30.795L1.20097 31.2888C1.72562 31.2054 2.1588 31.0265 2.50373 30.7501C2.84932 30.4731 3.07751 30.1212 3.22745 29.737C3.51643 28.9965 3.53141 28.0801 3.53141 27.226H3.03141H2.53141C2.53141 28.115 2.50489 28.8378 2.29587 29.3735C2.19681 29.6273 2.06187 29.8227 1.87834 29.9698C1.69415 30.1174 1.4322 30.2395 1.04385 30.3013L1.12241 30.795ZM3.03141 27.226H3.53141V7.76254H3.03141H2.53141V27.226H3.03141ZM3.03141 7.76254H3.53141C3.53141 7.00107 3.56966 6.07232 3.31823 5.33001C3.1855 4.93815 2.96582 4.57039 2.60424 4.28741C2.24447 4.00586 1.78265 3.83828 1.21571 3.77923L1.16391 4.27654L1.11211 4.77385C1.54117 4.81854 1.81078 4.93628 1.98793 5.07491C2.16325 5.21213 2.28594 5.39943 2.37109 5.65082C2.55541 6.19501 2.53141 6.9055 2.53141 7.76254H3.03141ZM1.16391 4.27654L1.21366 3.77902C1.11346 3.769 1.06176 3.73311 1.03761 3.70786C1.01302 3.68216 0.99991 3.65055 0.99991 3.61254H0.49991H-8.97646e-05C-8.97646e-05 4.22586 0.468637 4.70951 1.11416 4.77406L1.16391 4.27654ZM0.49991 3.61254H0.99991C0.99991 3.54554 1.02389 3.50206 1.05692 3.47156C1.09304 3.43822 1.15612 3.40704 1.24691 3.40704V2.90704V2.40704C0.594205 2.40704 -8.97646e-05 2.88446 -8.97646e-05 3.61254H0.49991ZM1.24691 2.90704L1.22471 3.40654C3.10504 3.49011 4.81744 3.49004 6.80791 3.49004V2.99004V2.49004C4.81438 2.49004 3.12378 2.48996 1.26911 2.40753L1.24691 2.90704ZM6.80791 2.99004V3.49004C8.8888 3.49004 11.0101 3.44842 12.9605 3.40693L12.9499 2.90704L12.9393 2.40715C10.9887 2.44865 8.87702 2.49004 6.80791 2.49004V2.99004ZM12.9499 2.90704V3.40704C13.0576 3.40704 13.0958 3.43809 13.1012 3.44301C13.105 3.44642 13.1069 3.4493 13.1085 3.45312C13.1103 3.45729 13.1139 3.46798 13.1139 3.48804H13.6139H14.1139C14.1139 3.19141 13.9996 2.90826 13.7739 2.70307C13.551 2.50049 13.2573 2.40704 12.9499 2.40704V2.90704ZM13.6139 3.48804H13.1139V8.96604H13.6139H14.1139V3.48804H13.6139ZM13.6139 8.96604H13.1139C13.1139 8.9356 13.1211 8.9179 13.1236 8.91255C13.1265 8.90652 13.1279 8.90623 13.1253 8.90859C13.1233 8.91054 13.1192 8.91369 13.1123 8.91647C13.1059 8.91902 13.0941 8.92254 13.0744 8.92254V9.42254V9.92254C13.6552 9.92254 14.1139 9.47622 14.1139 8.96604H13.6139ZM13.0744 9.42254V8.92254C13.0643 8.92254 13.058 8.92161 13.0548 8.92098C13.0532 8.92065 13.0521 8.92035 13.0515 8.92016C13.0509 8.91997 13.0506 8.91985 13.0506 8.91984C13.0505 8.91983 13.0506 8.91986 13.0507 8.91994C13.0509 8.92002 13.051 8.92008 13.051 8.9201C13.0511 8.92015 13.0505 8.91977 13.0493 8.91855C13.0466 8.91587 13.0415 8.90973 13.0361 8.8991C13.0306 8.88824 13.027 8.87689 13.0252 8.86798L12.5349 8.96604L12.0446 9.06409C12.1152 9.417 12.4242 9.92254 13.0744 9.92254V9.42254ZM12.5349 8.96604L13.0338 8.93278C12.9936 8.33043 12.9686 7.69106 12.8955 7.10771C12.8218 6.51921 12.694 5.93216 12.4228 5.41413C12.1451 4.88366 11.7251 4.44129 11.1013 4.13911C10.4889 3.84241 9.70682 3.69354 8.71691 3.69354V4.19354V4.69354C9.61526 4.69354 10.2338 4.82998 10.6653 5.03906C11.0856 5.24266 11.3529 5.52654 11.5369 5.87794C11.7274 6.24179 11.8356 6.69224 11.9033 7.23202C11.9715 7.77696 11.9932 8.35664 12.036 8.9993L12.5349 8.96604ZM8.71691 4.19354V3.69354H6.26841V4.19354V4.69354H8.71691V4.19354ZM6.26841 4.19354V3.69354C5.88407 3.69354 5.52257 3.80455 5.25288 4.05626C4.97973 4.31119 4.85541 4.65978 4.85541 5.02354H5.35541H5.85541C5.85541 4.8893 5.89709 4.82288 5.93519 4.78732C5.97675 4.74853 6.07175 4.69354 6.26841 4.69354V4.19354ZM5.35541 5.02354H4.85541V15.7305H5.35541H5.85541V5.02354H5.35541ZM5.35541 15.7305H4.85541C4.85541 16.0292 4.95668 16.3294 5.18342 16.5562C5.41196 16.7847 5.72364 16.8945 6.06091 16.8945V16.3945V15.8945C5.94168 15.8945 5.90061 15.8591 5.89053 15.849C5.87864 15.8372 5.85541 15.8053 5.85541 15.7305H5.35541ZM6.06091 16.3945V16.8945H9.25641V16.3945V15.8945H6.06091V16.3945ZM9.25641 16.3945V16.8945C9.82617 16.8945 10.2988 16.7569 10.6739 16.49C11.0472 16.2244 11.2817 15.8608 11.4292 15.481C11.7134 14.7494 11.7069 13.8601 11.7069 13.2405H11.2069H10.7069C10.7069 13.9075 10.7005 14.5952 10.497 15.1189C10.4007 15.3669 10.2694 15.5505 10.0942 15.6753C9.92068 15.7987 9.6619 15.8945 9.25641 15.8945V16.3945ZM11.2069 13.2405H11.7069C11.7069 13.3072 11.6748 13.3372 11.6723 13.3393C11.6668 13.3439 11.6852 13.3255 11.7464 13.3255V12.8255V12.3255C11.2275 12.3255 10.7069 12.6754 10.7069 13.2405H11.2069ZM11.7464 12.8255V13.3255C11.8411 13.3255 11.8487 13.3507 11.8254 13.3301C11.8151 13.3211 11.8043 13.3073 11.7965 13.2895C11.7889 13.2724 11.7859 13.2554 11.7859 13.2405H12.2859H12.7859C12.7859 13.0003 12.6879 12.7575 12.487 12.5803C12.2874 12.4041 12.0252 12.3255 11.7464 12.3255V12.8255ZM12.2859 13.2405H11.7859V21.0425H12.2859H12.7859V13.2405H12.2859ZM12.2859 21.0425H11.7859C11.7859 20.9759 11.818 20.9459 11.8206 20.9437C11.826 20.9392 11.8076 20.9575 11.7464 20.9575V21.4575V21.9575C12.2653 21.9575 12.7859 21.6077 12.7859 21.0425H12.2859ZM11.7464 21.4575V20.9575C11.6852 20.9575 11.6738 20.9396 11.6843 20.949C11.6888 20.9529 11.6951 20.9603 11.7001 20.9713C11.7051 20.9824 11.7069 20.9931 11.7069 21.001H11.2069H10.7069C10.7069 21.5799 11.1953 21.9575 11.7464 21.9575V21.4575ZM11.2069 21.001L11.7067 21.0162C11.7265 20.3628 11.7776 19.3801 11.5108 18.5677C11.3726 18.1469 11.1397 17.7374 10.747 17.4356C10.3512 17.1315 9.8405 16.9735 9.21491 16.9735V17.4735V17.9735C9.66832 17.9735 9.95133 18.0854 10.1378 18.2286C10.3274 18.3743 10.4655 18.5898 10.5607 18.8798C10.7607 19.4887 10.7288 20.2698 10.7071 20.9859L11.2069 21.001ZM9.21491 17.4735V16.9735H6.06091V17.4735V17.9735H9.21491V17.4735ZM6.06091 17.4735V16.9735C5.72364 16.9735 5.41196 17.0834 5.18342 17.3119C4.95668 17.5387 4.85541 17.8388 4.85541 18.1375H5.35541H5.85541C5.85541 18.0627 5.87864 18.0309 5.89053 18.019C5.90061 18.0089 5.94168 17.9735 6.06091 17.9735V17.4735ZM5.35541 18.1375H4.85541V26.8525H5.35541H5.85541V18.1375H5.35541ZM5.35541 26.8525H4.85541C4.85541 28.5087 5.04133 29.7128 5.70339 30.4788C6.38891 31.2718 7.45898 31.461 8.79991 31.461V30.961V30.461C7.48484 30.461 6.83266 30.256 6.45993 29.8248C6.06374 29.3665 5.85541 28.5164 5.85541 26.8525H5.35541ZM8.79991 30.961V31.461C10.838 31.461 12.0581 30.7843 12.8132 29.6759C13.5235 28.6335 13.7798 27.2495 14.0601 26.0082L13.5724 25.898L13.0847 25.7879C12.784 27.1195 12.5631 28.267 11.9868 29.1129C11.4555 29.8928 10.5799 30.461 8.79991 30.461V30.961ZM13.5724 25.898L14.0627 25.9961C14.0588 26.0156 14.0529 26.0138 14.0638 26.0052C14.0705 25.9999 14.0952 25.983 14.1534 25.983V25.483V24.983C13.5991 24.983 13.1734 25.3434 13.0821 25.8L13.5724 25.898ZM31.0352 29.799L30.7151 30.1832L30.7249 30.1914L30.7352 30.199L31.0352 29.799ZM31.1182 30.3385L30.7182 30.0385L30.7098 30.0496L30.7021 30.0612L31.1182 30.3385ZM26.1382 29.9235H25.6382V29.9591L25.6432 29.9943L26.1382 29.9235ZM25.6402 29.8405L26.0172 30.1689L26.0241 30.161L26.0306 30.1529L25.6402 29.8405ZM16.4687 15.689L16.3979 16.184L16.4092 16.1856L16.4205 16.1867L16.4687 15.689ZM15.9292 15.274L16.4194 15.176L16.4063 15.1103L16.3764 15.0504L15.9292 15.274ZM16.0537 14.61L15.7001 14.2565L15.6805 14.2761L15.6632 14.2977L16.0537 14.61ZM19.1247 13.033L19.1867 13.5292L19.2358 13.523L19.2828 13.5074L19.1247 13.033ZM19.6227 13.0745L19.3453 13.4906L19.4174 13.5386L19.5014 13.5596L19.6227 13.0745ZM20.1207 13.8215L20.6203 13.8408L20.6207 13.8312V13.8215H20.1207ZM19.9962 17.349L19.4965 17.3298L19.4962 17.3394V17.349H19.9962ZM25.8062 28.1805L26.1871 28.5044L26.206 28.4821L26.2222 28.4579L25.8062 28.1805ZM24.7272 15.689L24.6564 16.184L24.6677 16.1856L24.679 16.1867L24.7272 15.689ZM24.1462 15.274L23.6718 15.4322L23.6765 15.4461L23.6819 15.4597L24.1462 15.274ZM24.3122 14.61L23.9474 14.2681L23.934 14.2824L23.9217 14.2977L24.3122 14.61ZM27.3832 13.033L27.4452 13.5292L27.4943 13.523L27.5413 13.5074L27.3832 13.033ZM27.8812 13.0745L27.6576 13.5218L27.7066 13.5463L27.7599 13.5596L27.8812 13.0745ZM28.3377 13.8215L27.8407 13.7663L27.8377 13.7938V13.8215H28.3377ZM29.0432 30.297L29.1868 29.8181L29.1676 29.8124L29.1479 29.8081L29.0432 30.297ZM30.2467 29.8405L30.583 30.2105L30.5918 30.2025L30.6002 30.1941L30.2467 29.8405ZM31.0352 29.799L30.7352 30.199C30.7057 30.177 30.6947 30.1504 30.6917 30.1312C30.6886 30.1113 30.6906 30.0753 30.7182 30.0385L31.1182 30.3385L31.5182 30.6385C31.8166 30.2406 31.7109 29.6808 31.3352 29.399L31.0352 29.799ZM31.1182 30.3385L30.7021 30.0612C30.3956 30.521 29.9103 31.084 29.362 31.5264C28.7997 31.9803 28.2478 32.2455 27.7982 32.2455V32.7455V33.2455C28.5935 33.2455 29.3697 32.8053 29.99 32.3046C30.6245 31.7926 31.1768 31.152 31.5342 30.6159L31.1182 30.3385ZM27.7982 32.7455V32.2455C27.5899 32.2455 27.3412 32.0815 27.0935 31.5568C26.86 31.0624 26.7133 30.4137 26.6331 29.8528L26.1382 29.9235L25.6432 29.9943C25.7291 30.5954 25.8936 31.3577 26.1892 31.9838C26.4706 32.5796 26.9689 33.2455 27.7982 33.2455V32.7455ZM26.1382 29.9235H26.6382C26.6382 29.5016 26.2986 29.286 26.0495 29.2361C25.784 29.183 25.4626 29.2621 25.2497 29.5282L25.6402 29.8405L26.0306 30.1529C25.9837 30.2115 25.9113 30.2283 25.8533 30.2167C25.824 30.2108 25.7766 30.1939 25.7301 30.1474C25.6783 30.0956 25.6382 30.0154 25.6382 29.9235H26.1382ZM25.6402 29.8405L25.2631 29.5121C24.7096 30.1477 24.0541 30.84 23.327 31.3719C22.5975 31.9056 21.8395 32.2455 21.0752 32.2455V32.7455V33.2455C22.1368 33.2455 23.101 32.7763 23.9174 32.179C24.7362 31.58 25.4502 30.8199 26.0172 30.1689L25.6402 29.8405ZM21.0752 32.7455V32.2455C20.3797 32.2455 19.8959 32.0335 19.5403 31.7098C19.1737 31.3761 18.9071 30.89 18.7203 30.2887C18.3423 29.0725 18.3382 27.5546 18.3382 26.3545H17.8382H17.3382C17.3382 27.52 17.334 29.1976 17.7653 30.5855C17.9831 31.2863 18.3234 31.9543 18.8672 32.4493C19.4221 32.9544 20.1521 33.2455 21.0752 33.2455V32.7455ZM17.8382 26.3545H18.3382V18.511H17.8382H17.3382V26.3545H17.8382ZM17.8382 18.511H18.3382C18.3382 17.7417 18.3229 16.9739 18.105 16.3825C17.9904 16.0715 17.8121 15.7843 17.5329 15.5665C17.2536 15.3486 16.9108 15.2295 16.5168 15.1914L16.4687 15.689L16.4205 16.1867C16.6697 16.2108 16.8198 16.2785 16.9179 16.355C17.016 16.4316 17.0997 16.5464 17.1667 16.7282C17.3119 17.1224 17.3382 17.7034 17.3382 18.511H17.8382ZM16.4687 15.689L16.5394 15.1941C16.4681 15.1839 16.4281 15.1612 16.4125 15.1491C16.3977 15.1376 16.4129 15.1434 16.4194 15.176L15.9292 15.274L15.4389 15.3721C15.5363 15.8594 15.9809 16.1244 16.3979 16.184L16.4687 15.689ZM15.9292 15.274L16.3764 15.0504C16.368 15.0336 16.3684 15.0286 16.369 15.0331C16.3696 15.0381 16.3688 15.0424 16.3689 15.0423C16.3703 15.0361 16.382 15 16.4441 14.9224L16.0537 14.61L15.6632 14.2977C15.5593 14.4276 15.4465 14.599 15.3961 14.8107C15.3416 15.0393 15.3698 15.2733 15.4819 15.4976L15.9292 15.274ZM16.0537 14.61L16.4072 14.9636C16.6934 14.6774 17.1668 14.3418 17.698 14.0614C18.232 13.7796 18.7729 13.5809 19.1867 13.5292L19.1247 13.033L19.0626 12.5369C18.4804 12.6097 17.8179 12.8675 17.2313 13.177C16.642 13.488 16.0779 13.8787 15.7001 14.2565L16.0537 14.61ZM19.1247 13.033L19.2828 13.5074C19.2753 13.5099 19.2725 13.5103 19.2752 13.5097C19.2775 13.5092 19.2825 13.5084 19.2902 13.5076C19.3061 13.5059 19.3259 13.5052 19.3459 13.5063C19.3665 13.5075 19.3799 13.5101 19.3851 13.5114C19.3873 13.512 19.385 13.5115 19.3792 13.5091C19.3735 13.5068 19.3613 13.5012 19.3453 13.4906L19.6227 13.0745L19.9 12.6585C19.7286 12.5442 19.5298 12.515 19.4014 12.5079C19.265 12.5003 19.105 12.5125 18.9665 12.5587L19.1247 13.033ZM19.6227 13.0745L19.5014 13.5596C19.5436 13.5702 19.5608 13.5864 19.575 13.6086C19.5945 13.6391 19.6207 13.7053 19.6207 13.8215H20.1207H20.6207C20.6207 13.3024 20.3706 12.7461 19.7439 12.5895L19.6227 13.0745ZM20.1207 13.8215L19.621 13.8023C19.6002 14.3432 19.5794 14.9565 19.5587 15.5683C19.5379 16.1808 19.5172 16.7917 19.4965 17.3298L19.9962 17.349L20.4958 17.3683C20.5166 16.8274 20.5374 16.2141 20.5581 15.6022C20.5789 14.9898 20.5996 14.3789 20.6203 13.8408L20.1207 13.8215ZM19.9962 17.349H19.4962V23.906H19.9962H20.4962V17.349H19.9962ZM19.9962 23.906H19.4962C19.4962 24.82 19.4104 26.5222 19.6865 27.9731C19.8252 28.7016 20.0642 29.427 20.4947 29.9793C20.9433 30.5549 21.5859 30.9215 22.4447 30.9215V30.4215V29.9215C21.9131 29.9215 21.5545 29.7124 21.2834 29.3646C20.9942 28.9935 20.7948 28.448 20.6689 27.7862C20.4159 26.4566 20.4962 24.901 20.4962 23.906H19.9962ZM22.4447 30.4215V30.9215C23.1986 30.9215 23.9756 30.4794 24.5971 30.0119C25.2402 29.5282 25.8165 28.9404 26.1871 28.5044L25.8062 28.1805L25.4252 27.8567C25.0903 28.2507 24.5668 28.7834 23.996 29.2127C23.4038 29.6582 22.8527 29.9215 22.4447 29.9215V30.4215ZM25.8062 28.1805L26.2222 28.4579C26.3976 28.1948 26.5967 27.8397 26.5967 27.4335H26.0967H25.5967C25.5967 27.5254 25.5467 27.6683 25.3901 27.9032L25.8062 28.1805ZM26.0967 27.4335H26.5967V18.511H26.0967H25.5967V27.4335H26.0967ZM26.0967 18.511H26.5967C26.5967 17.7417 26.5814 16.9739 26.3635 16.3825C26.2489 16.0715 26.0706 15.7843 25.7914 15.5665C25.5121 15.3486 25.1693 15.2295 24.7753 15.1914L24.7272 15.689L24.679 16.1867C24.9282 16.2108 25.0783 16.2785 25.1763 16.355C25.2745 16.4316 25.3582 16.5464 25.4252 16.7282C25.5704 17.1224 25.5967 17.7034 25.5967 18.511H26.0967ZM24.7272 15.689L24.7979 15.1941C24.6601 15.1744 24.6183 15.1082 24.6104 15.0883L24.1462 15.274L23.6819 15.4597C23.84 15.8549 24.2132 16.1207 24.6564 16.184L24.7272 15.689ZM24.1462 15.274L24.6205 15.1159C24.6145 15.0979 24.6137 15.0877 24.6136 15.0832C24.6135 15.0788 24.6139 15.0731 24.6165 15.0638C24.6227 15.0422 24.6423 14.9977 24.7026 14.9224L24.3122 14.61L23.9217 14.2977C23.7025 14.5718 23.5131 14.9559 23.6718 15.4322L24.1462 15.274ZM24.3122 14.61L24.6769 14.952C24.9356 14.6761 25.4011 14.3438 25.9393 14.0623C26.4777 13.7808 27.0298 13.5811 27.4452 13.5292L27.3832 13.033L27.3211 12.5369C26.7405 12.6095 26.0684 12.8663 25.4759 13.1762C24.8832 13.4861 24.3112 13.88 23.9474 14.2681L24.3122 14.61ZM27.3832 13.033L27.5413 13.5074C27.5344 13.5097 27.5361 13.5083 27.5472 13.5071C27.5574 13.5059 27.5713 13.5053 27.5872 13.5062C27.6218 13.5083 27.6465 13.5162 27.6576 13.5218L27.8812 13.0745L28.1048 12.6273C27.8124 12.4811 27.4669 12.4781 27.225 12.5587L27.3832 13.033ZM27.8812 13.0745L27.7599 13.5596C27.7851 13.5659 27.7983 13.5738 27.8046 13.5783C27.8106 13.5827 27.8157 13.5879 27.8207 13.5963C27.8309 13.6133 27.8521 13.6642 27.8407 13.7663L28.3377 13.8215L28.8346 13.8768C28.8648 13.6053 28.8237 13.3243 28.6782 13.0819C28.5287 12.8326 28.2903 12.6614 28.0024 12.5895L27.8812 13.0745ZM28.3377 13.8215H27.8377C27.8377 14.3509 27.8173 14.954 27.7964 15.5683C27.7758 16.1783 27.7547 16.7994 27.7547 17.349H28.2547H28.7547C28.7547 16.8197 28.775 16.2166 28.7959 15.6022C28.8165 14.9923 28.8377 14.3712 28.8377 13.8215H28.3377ZM28.2547 17.349H27.7547V27.5995H28.2547H28.7547V17.349H28.2547ZM28.2547 27.5995H27.7547C27.7547 28.3014 27.8071 28.9924 27.9466 29.5389C28.0161 29.8111 28.1142 30.076 28.2588 30.293C28.4054 30.5128 28.6253 30.7188 28.9384 30.7859L29.0432 30.297L29.1479 29.8081C29.1706 29.813 29.1466 29.8219 29.0909 29.7383C29.0332 29.6518 28.9705 29.5069 28.9155 29.2915C28.806 28.8627 28.7547 28.2672 28.7547 27.5995H28.2547ZM29.0432 30.297L28.8995 30.776C29.2161 30.8709 29.5198 30.855 29.8172 30.7345C30.0925 30.6229 30.3422 30.4294 30.583 30.2105L30.2467 29.8405L29.9103 29.4706C29.6946 29.6667 29.5501 29.7637 29.4415 29.8077C29.355 29.8428 29.2852 29.8476 29.1868 29.8181L29.0432 30.297ZM30.2467 29.8405L30.6002 30.1941C30.6219 30.1724 30.6455 30.164 30.6623 30.1628C30.6703 30.1622 30.6776 30.1631 30.6847 30.1653C30.6914 30.1675 30.7017 30.172 30.7151 30.1832L31.0352 29.799L31.3552 29.4149C30.8881 29.0256 30.2649 29.1152 29.8931 29.487L30.2467 29.8405ZM40.0802 14.6515L40.5764 14.7136L40.5802 14.6827V14.6515H40.0802ZM38.3372 30.7535L38.3825 30.2555L38.3728 30.2548L38.3372 30.7535ZM38.2127 32.0815L38.2542 31.5833L38.246 31.5826L38.2377 31.5822L38.2127 32.0815ZM32.6932 32.0815V31.5815H32.674L32.6549 31.583L32.6932 32.0815ZM32.4442 30.7535L32.4994 31.2507L32.513 31.2488L32.4442 30.7535ZM32.2367 14.6515H31.7367V14.6827L31.7406 14.7136L32.2367 14.6515ZM32.6517 14.112L32.5537 13.6217L32.5231 13.6279L32.4936 13.6377L32.6517 14.112ZM35.4737 5.18954L35.9412 5.36688L35.9431 5.36167L35.4737 5.18954ZM38.3372 3.23904V2.73904C37.743 2.73904 37.2956 3.07532 36.9818 3.48352C36.6712 3.88745 36.4487 4.41182 36.2877 4.93303C35.9648 5.97821 35.8452 7.15964 35.8452 7.76254H36.3452H36.8452C36.8452 7.24494 36.9539 6.16461 37.2431 5.22817C37.3882 4.75857 37.5677 4.36216 37.7746 4.09301C37.9782 3.82813 38.1637 3.73904 38.3372 3.73904V3.23904ZM36.3452 7.76254H35.8452V13.697H36.3452H36.8452V7.76254H36.3452ZM36.3452 13.697H35.8452C35.8452 13.8986 35.8959 14.152 36.0954 14.3515C36.2949 14.5509 36.5586 14.612 36.8017 14.612V14.112V13.612C36.7589 13.612 36.7444 13.6065 36.7484 13.6079C36.7549 13.61 36.7777 13.6196 36.8025 13.6444C36.8273 13.6691 36.8394 13.6945 36.8442 13.7088C36.8481 13.7207 36.8452 13.7191 36.8452 13.697H36.3452ZM36.8017 14.112V14.612H39.4577V14.112V13.612H36.8017V14.112ZM39.4577 14.112V14.612C39.5318 14.612 39.5646 14.6355 39.5736 14.6436C39.5789 14.6484 39.5802 14.6515 39.5803 14.6516C39.5804 14.6518 39.5803 14.6516 39.5802 14.6514C39.5802 14.651 39.5802 14.651 39.5802 14.6515H40.0802H40.5802C40.5802 14.039 40.0591 13.612 39.4577 13.612V14.112ZM40.0802 14.6515L39.5841 14.5895C39.5744 14.667 39.5527 14.6798 39.559 14.6741C39.5668 14.6671 39.5504 14.691 39.4577 14.691V15.191V15.691C39.7385 15.691 40.0126 15.6113 40.2279 15.4174C40.4417 15.2251 40.5445 14.9681 40.5764 14.7136L40.0802 14.6515ZM39.4577 15.191V14.691H36.8017V15.191V15.691H39.4577V15.191ZM36.8017 15.191V14.691C36.5586 14.691 36.2949 14.7521 36.0954 14.9516C35.8959 15.1511 35.8452 15.4045 35.8452 15.606H36.3452H36.8452C36.8452 15.584 36.8481 15.5824 36.8442 15.5943C36.8394 15.6085 36.8273 15.6339 36.8025 15.6587C36.7777 15.6835 36.7549 15.693 36.7484 15.6952C36.7444 15.6966 36.7589 15.691 36.8017 15.691V15.191ZM36.3452 15.606H35.8452V28.305H36.3452H36.8452V15.606H36.3452ZM36.3452 28.305H35.8452C35.8452 29.064 35.8974 29.7955 36.2765 30.343C36.6845 30.9323 37.3712 31.1858 38.3016 31.2523L38.3372 30.7535L38.3728 30.2548C37.5602 30.1968 37.251 29.9938 37.0987 29.7738C36.9175 29.5121 36.8452 29.0816 36.8452 28.305H36.3452ZM38.3372 30.7535L38.2919 31.2515C38.4227 31.2634 38.4836 31.3061 38.5076 31.3302C38.5307 31.3533 38.5427 31.3807 38.5427 31.4175H39.0427H39.5427C39.5427 30.787 39.0548 30.3167 38.3825 30.2556L38.3372 30.7535ZM39.0427 31.4175H38.5427C38.5427 31.453 38.5276 31.4925 38.4891 31.5255C38.453 31.5564 38.3804 31.5938 38.2542 31.5833L38.2127 32.0815L38.1712 32.5798C38.9256 32.6427 39.5427 32.1176 39.5427 31.4175H39.0427ZM38.2127 32.0815L38.2377 31.5822C37.3928 31.5399 36.5496 31.54 35.4322 31.54V32.04V32.54C36.5558 32.54 37.3726 32.5402 38.1877 32.5809L38.2127 32.0815ZM35.4322 32.04V31.54C34.8659 31.54 34.3632 31.5505 33.9112 31.5609C33.457 31.5714 33.0595 31.5815 32.6932 31.5815V32.0815V32.5815C33.0739 32.5815 33.4857 32.571 33.9341 32.5607C34.3848 32.5503 34.878 32.54 35.4322 32.54V32.04ZM32.6932 32.0815L32.6549 31.583C32.4965 31.5952 32.4115 31.5511 32.3739 31.52C32.3354 31.4881 32.3217 31.4516 32.3217 31.4175H31.8217H31.3217C31.3217 32.1355 31.9575 32.6396 32.7316 32.5801L32.6932 32.0815ZM31.8217 31.4175H32.3217C32.3217 31.3471 32.3426 31.3189 32.3546 31.3063C32.3695 31.2906 32.4096 31.2605 32.4994 31.2505L32.4442 30.7535L32.389 30.2566C32.1054 30.2881 31.8342 30.4032 31.6312 30.6158C31.4254 30.8315 31.3217 31.1145 31.3217 31.4175H31.8217ZM32.4442 30.7535L32.513 31.2488C33.3919 31.1267 33.9775 30.7278 34.3138 30.1184C34.6275 29.5498 34.6872 28.8595 34.6872 28.222H34.1872H33.6872C33.6872 28.8296 33.6224 29.3013 33.4382 29.6353C33.2764 29.9285 32.9906 30.1729 32.3754 30.2583L32.4442 30.7535ZM34.1872 28.222H34.6872V15.606H34.1872H33.6872V28.222H34.1872ZM34.1872 15.606H34.6872C34.6872 15.3668 34.6044 15.1219 34.4091 14.9396C34.2172 14.7605 33.9698 14.691 33.7307 14.691V15.191V15.691C33.7821 15.691 33.763 15.7045 33.7267 15.6707C33.7099 15.655 33.6984 15.6367 33.6921 15.6208C33.6861 15.6059 33.6872 15.5993 33.6872 15.606H34.1872ZM33.7307 15.191V14.691H32.8592V15.191V15.691H33.7307V15.191ZM32.8592 15.191V14.691C32.7665 14.691 32.7501 14.6671 32.7579 14.6741C32.7642 14.6798 32.7425 14.667 32.7328 14.5895L32.2367 14.6515L31.7406 14.7136C31.7724 14.9681 31.8752 15.2251 32.089 15.4174C32.3043 15.6113 32.5784 15.691 32.8592 15.691V15.191ZM32.2367 14.6515H32.7367C32.7367 14.6418 32.7389 14.635 32.7455 14.6265C32.7532 14.6166 32.7721 14.599 32.8098 14.5864L32.6517 14.112L32.4936 13.6377C32.0696 13.779 31.7367 14.1581 31.7367 14.6515H32.2367ZM32.6517 14.112L32.7498 14.6023C33.3382 14.4846 33.8381 14.248 34.1877 13.8414C34.5403 13.4313 34.6872 12.9095 34.6872 12.3275H34.1872H33.6872C33.6872 12.7416 33.5851 13.0083 33.4294 13.1895C33.2705 13.3743 33.0027 13.5319 32.5537 13.6217L32.6517 14.112ZM34.1872 12.3275H34.6872C34.6872 10.2627 35.0526 7.70946 35.9412 5.36687L35.4737 5.18954L35.0062 5.01221C34.0688 7.48362 33.6872 10.1593 33.6872 12.3275H34.1872ZM35.4737 5.18954L35.9431 5.36167C36.1475 4.80444 36.7784 3.68031 37.5875 2.69528C37.9894 2.20606 38.4195 1.77076 38.8436 1.46187C39.275 1.1477 39.651 1.00004 39.9557 1.00004V0.500037V3.71933e-05C39.3474 3.71933e-05 38.7637 0.282938 38.2549 0.653518C37.7388 1.02938 37.2481 1.53302 36.8148 2.06054C35.9535 3.10901 35.2565 4.32964 35.0043 5.01741L35.4737 5.18954ZM39.9557 0.500037V1.00004C40.4476 1.00004 40.6792 1.17829 40.8116 1.37538C40.9662 1.60559 41.0327 1.93695 41.0327 2.28454H41.5327H42.0327C42.0327 1.84363 41.954 1.28273 41.6417 0.817822C41.3072 0.319787 40.7503 3.71933e-05 39.9557 3.71933e-05V0.500037ZM41.5327 2.28454H41.0327C41.0327 2.47706 40.9578 2.77327 40.7971 3.01049C40.6446 3.23562 40.4515 3.36154 40.2047 3.36154V3.86154V4.36154C40.871 4.36154 41.3418 3.98945 41.625 3.57134C41.9001 3.1653 42.0327 2.67301 42.0327 2.28454H41.5327ZM40.2047 3.86154V3.36154C39.9897 3.36154 39.8653 3.28643 39.5905 3.12154C39.308 2.95208 38.9319 2.73904 38.3372 2.73904V3.23904V3.73904C38.6555 3.73904 38.8396 3.83724 39.076 3.97904C39.3199 4.12539 39.6728 4.36154 40.2047 4.36154V3.86154ZM52.2274 23.1175L52.7271 23.0979L52.7266 23.0887L52.2274 23.1175ZM47.3304 14.278L47.3195 13.7781L47.3134 13.7783L47.3304 14.278ZM43.5954 22.7025L43.0963 22.7319L43.5954 22.7025ZM48.4509 31.459L48.4394 30.9591L48.434 30.9593L48.4509 31.459ZM52.2274 23.1175L52.7266 23.0887C52.6628 21.9834 52.388 19.6975 51.6321 17.6819C51.2544 16.6745 50.7437 15.6995 50.0499 14.9749C49.3461 14.2398 48.4424 13.7537 47.3195 13.7782L47.3304 14.278L47.3413 14.7779C48.1274 14.7608 48.7748 15.0892 49.3276 15.6665C49.8905 16.2544 50.3421 17.0898 50.6958 18.033C51.4028 19.9183 51.6675 22.0937 51.7282 23.1463L52.2274 23.1175ZM47.3304 14.278L47.3134 13.7783C45.1256 13.8529 44.0653 15.7555 43.564 17.613C43.0516 19.5116 43.0324 21.6464 43.0963 22.7319L43.5954 22.7025L44.0945 22.6732C44.0339 21.6422 44.0562 19.627 44.5294 17.8736C45.0137 16.0791 45.8832 14.8277 47.3474 14.7777L47.3304 14.278ZM43.5954 22.7025L43.0963 22.7319C43.1603 23.8207 43.4567 26.0953 44.2173 28.0986C44.5974 29.0996 45.1064 30.0684 45.7894 30.7858C46.482 31.5132 47.3698 31.9958 48.4677 31.9588L48.4509 31.459L48.434 30.9593C47.6852 30.9846 47.0583 30.6682 46.5137 30.0962C45.9595 29.5141 45.5088 28.6829 45.1522 27.7437C44.4396 25.8668 44.155 23.7008 44.0945 22.6732L43.5954 22.7025ZM48.4509 31.459L48.4624 31.9589C49.5277 31.9344 50.3481 31.4551 50.9561 30.7429C51.552 30.0449 51.9445 29.1254 52.2059 28.1847C52.7291 26.3025 52.7694 24.179 52.727 23.0979L52.2274 23.1175L51.7278 23.1371C51.7684 24.1726 51.7257 26.1783 51.2425 27.917C51.0007 28.7867 50.6591 29.5506 50.1955 30.0937C49.744 30.6226 49.1793 30.9422 48.4394 30.9592L48.4509 31.459ZM54.7174 22.827H54.2174C54.2174 24.2562 53.8255 26.6695 52.8311 28.7083C51.8348 30.7509 50.3081 32.287 48.0774 32.287V32.787V33.287C50.8682 33.287 52.6615 31.3372 53.7298 29.1467C54.8 26.9526 55.2174 24.3859 55.2174 22.827H54.7174ZM48.0774 32.787V32.287C45.564 32.287 43.9534 30.8125 42.9444 28.8731C41.9273 26.9184 41.5639 24.5542 41.5639 22.993H41.0639H40.5639C40.5639 24.6689 40.9474 27.2016 42.0573 29.3347C43.1751 31.4831 45.0712 33.287 48.0774 33.287V32.787ZM41.0639 22.993H41.5639C41.5639 21.5374 41.9267 19.1245 42.9046 17.0939C43.8821 15.0643 45.407 13.533 47.7039 13.533V13.033V12.533C44.8548 12.533 43.0597 14.4671 42.0037 16.66C40.948 18.8521 40.5639 21.4191 40.5639 22.993H41.0639ZM47.7039 13.033V13.533C50.2621 13.533 51.8709 15.001 52.8673 16.9301C53.8732 18.8774 54.2174 21.241 54.2174 22.827H54.7174H55.2174C55.2174 21.1346 54.856 18.6011 53.7558 16.4711C52.6461 14.3228 50.7482 12.533 47.7039 12.533V13.033ZM62.9431 30.7535L62.9884 30.2556L62.9797 30.2548L62.9709 30.2543L62.9431 30.7535ZM63.6901 31.459L64.1871 31.5143L64.1901 31.4867V31.459H63.6901ZM62.8601 32.0815L62.8352 32.5809L62.8477 32.5815H62.8601V32.0815ZM57.0501 32.0815V32.5815H57.0598L57.0694 32.5812L57.0501 32.0815ZM56.9256 30.712L56.8719 30.2149L56.8443 30.2179L56.8172 30.2239L56.9256 30.712ZM57.1331 15.6475L57.0624 16.1425L57.0671 16.1432L57.1331 15.6475ZM56.5521 15.2325L57.0424 15.1345L57.0255 15.0496L56.9809 14.9753L56.5521 15.2325ZM56.6766 14.61L57.0302 14.9636L57.0412 14.9526L57.0516 14.9408L56.6766 14.61ZM59.7476 12.9915V12.4915H59.7063L59.6654 12.4983L59.7476 12.9915ZM60.2456 13.033L60.4212 12.5649L60.3945 12.5549L60.3669 12.548L60.2456 13.033ZM60.7436 13.8215L61.243 13.8465L61.2436 13.834V13.8215H60.7436ZM60.6606 16.0625L61.1538 16.1447L61.1606 16.1039V16.0625H60.6606ZM61.0341 16.2285L60.6042 15.9733L60.595 15.9888L60.5869 16.0049L61.0341 16.2285ZM64.5616 13.033V13.533C65.126 13.533 65.4402 13.7554 65.6315 14.0267C65.8405 14.3231 65.9291 14.7211 65.9291 15.0665H66.4291H66.9291C66.9291 14.582 66.8103 13.9632 66.4487 13.4504C66.0693 12.9124 65.4498 12.533 64.5616 12.533V13.033ZM66.4291 15.0665H65.9291C65.9291 15.305 65.8518 15.7352 65.6718 16.091C65.4882 16.4537 65.2782 16.6 65.0596 16.6V17.1V17.6C65.8371 17.6 66.3118 17.0409 66.564 16.5425C66.8198 16.0371 66.9291 15.4506 66.9291 15.0665H66.4291ZM65.0596 17.1V16.6C64.8421 16.6 64.7318 16.4935 64.4636 16.136C64.2338 15.8295 63.8461 15.272 63.0676 15.272V15.772V16.272C63.2852 16.272 63.3955 16.3785 63.6636 16.736C63.8935 17.0425 64.2812 17.6 65.0596 17.6V17.1ZM63.0676 15.772V15.272C62.5748 15.272 62.1413 15.4856 61.7875 15.78C61.4345 16.0737 61.1358 16.4674 60.8955 16.8886C60.419 17.724 60.1191 18.7631 60.1191 19.59H60.6191H61.1191C61.1191 18.9645 61.3588 18.0946 61.7641 17.3841C61.9648 17.0323 62.1926 16.7439 62.4272 16.5487C62.6608 16.3542 62.8757 16.272 63.0676 16.272V15.772ZM60.6191 19.59H60.1191V27.9315H60.6191H61.1191V19.59H60.6191ZM60.6191 27.9315H60.1191C60.1191 28.4052 60.1238 28.8424 60.1709 29.222C60.2184 29.6035 60.3133 29.972 60.5247 30.2891C60.9682 30.9543 61.7753 31.1894 62.9154 31.2528L62.9431 30.7535L62.9709 30.2543C61.87 30.1931 61.5151 29.9718 61.3568 29.7344C61.2673 29.6002 61.2015 29.4058 61.1633 29.0987C61.1249 28.7896 61.1191 28.4124 61.1191 27.9315H60.6191ZM62.9431 30.7535L62.8979 31.2515C63.0317 31.2637 63.1063 31.3086 63.1416 31.3425C63.1736 31.3732 63.1901 31.4092 63.1901 31.459H63.6901H64.1901C64.1901 30.7698 63.6413 30.3149 62.9884 30.2556L62.9431 30.7535ZM63.6901 31.459L63.1932 31.4038C63.1883 31.448 63.17 31.4809 63.1308 31.5104C63.0864 31.5436 62.9996 31.5815 62.8601 31.5815V32.0815V32.5815C63.4903 32.5815 64.1093 32.2141 64.1871 31.5143L63.6901 31.459ZM62.8601 32.0815L62.8851 31.5822C62.0404 31.5399 61.1145 31.54 60.2871 31.54V32.04V32.54C61.1198 32.54 62.0199 32.5402 62.8352 32.5809L62.8601 32.0815ZM60.2871 32.04V31.54C59.2513 31.54 58.1212 31.54 57.0309 31.5819L57.0501 32.0815L57.0694 32.5812C58.1371 32.5401 59.248 32.54 60.2871 32.54V32.04ZM57.0501 32.0815V31.5815C56.8976 31.5815 56.8264 31.5381 56.8004 31.5151C56.778 31.4953 56.7616 31.4681 56.7616 31.4175H56.2616H55.7616C55.7616 31.7404 55.8905 32.0453 56.1379 32.2641C56.3817 32.4798 56.7047 32.5815 57.0501 32.5815V32.0815ZM56.2616 31.4175H56.7616C56.7616 31.3731 56.7692 31.3487 56.7742 31.3367C56.7791 31.3251 56.7861 31.3141 56.7992 31.3016C56.8296 31.2725 56.8995 31.2301 57.0341 31.2001L56.9256 30.712L56.8172 30.2239C56.5783 30.277 56.3162 30.3798 56.108 30.579C55.886 30.7913 55.7616 31.0793 55.7616 31.4175H56.2616ZM56.9256 30.712L56.9794 31.2091C57.4241 31.1611 57.801 31.0361 58.1049 30.818C58.4128 30.597 58.6105 30.3057 58.7351 29.9857C58.9687 29.386 58.9611 28.6237 58.9611 27.9315H58.4611H57.9611C57.9611 28.6919 57.9536 29.2368 57.8033 29.6228C57.736 29.7956 57.6457 29.9167 57.5218 30.0056C57.3938 30.0975 57.1949 30.18 56.8719 30.2149L56.9256 30.712ZM58.4611 27.9315H58.9611V18.6355H58.4611H57.9611V27.9315H58.4611ZM58.4611 18.6355H58.9611C58.9611 17.8618 58.9447 17.0734 58.7384 16.4543C58.6314 16.1333 58.4651 15.8294 58.2005 15.5912C57.9321 15.3494 57.5953 15.2047 57.1992 15.1519L57.1331 15.6475L57.0671 16.1432C57.2935 16.1733 57.434 16.2466 57.5312 16.3342C57.6324 16.4253 57.7203 16.5624 57.7897 16.7705C57.9361 17.2097 57.9611 17.8323 57.9611 18.6355H58.4611ZM57.1331 15.6475L57.2039 15.1526C57.1271 15.1416 57.0683 15.1152 57.036 15.0927C56.9996 15.0672 57.0301 15.0729 57.0424 15.1345L56.5521 15.2325L56.0619 15.3306C56.1157 15.5997 56.2914 15.7921 56.4625 15.9119C56.6378 16.0346 56.8487 16.112 57.0624 16.1425L57.1331 15.6475ZM56.5521 15.2325L56.9809 14.9753C56.9859 14.9836 56.9901 14.9951 56.9916 15.0069C56.993 15.0177 56.9915 15.0231 56.9919 15.0215C56.9923 15.0196 56.9945 15.0121 57.0013 15.0004C57.0081 14.9889 57.0178 14.976 57.0302 14.9636L56.6766 14.61L56.3231 14.2565C56.066 14.5136 55.836 15.0108 56.1234 15.4898L56.5521 15.2325ZM56.6766 14.61L57.0516 14.9408C57.3056 14.6529 57.7645 14.3236 58.3038 14.0416C58.8396 13.7614 59.4002 13.5563 59.8298 13.4847L59.7476 12.9915L59.6654 12.4983C59.0991 12.5927 58.4355 12.8442 57.8404 13.1554C57.2488 13.4647 56.6701 13.8617 56.3017 14.2792L56.6766 14.61ZM59.7476 12.9915V13.4915C59.8107 13.4915 59.88 13.4916 59.9517 13.4959C60.0255 13.5002 60.0842 13.5081 60.1244 13.5181L60.2456 13.033L60.3669 12.548C60.1305 12.4889 59.8592 12.4915 59.7476 12.4915V12.9915ZM60.2456 13.033L60.0701 13.5012C60.1555 13.5332 60.1841 13.5661 60.198 13.5879C60.2151 13.6145 60.2436 13.6787 60.2436 13.8215H60.7436H61.2436C61.2436 13.5494 61.1892 13.2815 61.0403 13.0488C60.8882 12.8112 60.6678 12.6573 60.4212 12.5649L60.2456 13.033ZM60.7436 13.8215L60.2443 13.7966C60.2032 14.618 60.1606 15.2579 60.1606 16.0625H60.6606H61.1606C61.1606 15.2901 61.2011 14.685 61.243 13.8465L60.7436 13.8215ZM60.6606 16.0625L60.1674 15.9803C60.0997 16.3868 60.3604 16.676 60.6343 16.7727C60.8589 16.8519 61.2849 16.8452 61.4814 16.4521L61.0341 16.2285L60.5869 16.0049C60.6387 15.9013 60.7285 15.846 60.8015 15.8258C60.868 15.8074 60.9249 15.8148 60.9671 15.8297C61.011 15.8451 61.0654 15.8783 61.1069 15.9411C61.1531 16.011 61.1633 16.088 61.1538 16.1447L60.6606 16.0625ZM61.0341 16.2285L61.4641 16.4838C61.8436 15.8447 62.3903 15.0812 62.9817 14.4849C63.2773 14.1869 63.5726 13.9422 63.8527 13.7747C64.1358 13.6054 64.3729 13.533 64.5616 13.533V13.033V12.533C64.1279 12.533 63.7113 12.6941 63.3395 12.9165C62.9647 13.1406 62.6038 13.4458 62.2717 13.7807C61.6078 14.4501 61.0132 15.2844 60.6042 15.9733L61.0341 16.2285ZM73.2938 30.712L73.3919 30.2217L73.3804 30.2194L73.3687 30.2177L73.2938 30.712ZM73.0863 32.0815L73.057 32.5807L73.0716 32.5815H73.0863V32.0815ZM68.6873 32.0815V32.5815H68.702L68.7167 32.5807L68.6873 32.0815ZM68.3968 30.712L68.3241 30.2174L68.3061 30.22L68.2884 30.2239L68.3968 30.712ZM68.4383 15.6475L68.3676 16.1425L68.3722 16.1432L68.4383 15.6475ZM67.8573 15.2325L68.3216 15.0468L67.8573 15.2325ZM68.0233 14.61L68.3357 15.0005L68.3695 14.9734L68.3982 14.9408L68.0233 14.61ZM71.0943 12.9915L71.1563 13.4877L71.2413 13.4771L71.3179 13.4388L71.0943 12.9915ZM71.5923 13.033L71.7679 12.5649L71.7412 12.5549L71.7136 12.548L71.5923 13.033ZM72.0488 13.78L72.5486 13.7957L72.5488 13.7878V13.78H72.0488ZM72.1733 4.94054H71.6733C71.6733 5.75041 71.0187 6.39104 70.2643 6.39104V6.89104V7.39104C71.5849 7.39104 72.6733 6.28867 72.6733 4.94054H72.1733ZM70.2643 6.89104V6.39104C69.4615 6.39104 68.8138 5.7434 68.8138 4.94054H68.3138H67.8138C67.8138 6.29568 68.9092 7.39104 70.2643 7.39104V6.89104ZM68.3138 4.94054H68.8138C68.8138 4.18614 69.4545 3.53154 70.2643 3.53154V3.03154V2.53154C68.9162 2.53154 67.8138 3.61994 67.8138 4.94054H68.3138ZM70.2643 3.03154V3.53154C71.0257 3.53154 71.6733 4.17918 71.6733 4.94054H72.1733H72.6733C72.6733 3.6269 71.578 2.53154 70.2643 2.53154V3.03154ZM73.2938 30.712L73.1958 31.2023C73.3264 31.2285 73.3759 31.2706 73.3907 31.287C73.4014 31.2987 73.4163 31.3197 73.4163 31.376H73.9163H74.4163C74.4163 31.1004 74.3275 30.8309 74.1307 30.6143C73.938 30.4024 73.6763 30.2786 73.3919 30.2217L73.2938 30.712ZM73.9163 31.376H73.4163C73.4163 31.4217 73.3997 31.4612 73.3537 31.4992C73.3026 31.5416 73.2113 31.5815 73.0863 31.5815V32.0815V32.5815C73.7262 32.5815 74.4163 32.1516 74.4163 31.376H73.9163ZM73.0863 32.0815L73.1157 31.5824C72.3928 31.5399 71.5891 31.54 70.8868 31.54V32.04V32.54C71.5956 32.54 72.3688 32.5402 73.057 32.5807L73.0863 32.0815ZM70.8868 32.04V31.54C70.1846 31.54 69.3808 31.5399 68.658 31.5824L68.6873 32.0815L68.7167 32.5807C69.4048 32.5402 70.1781 32.54 70.8868 32.54V32.04ZM68.6873 32.0815V31.5815C68.5603 31.5815 68.4524 31.5401 68.3865 31.4891C68.3251 31.4416 68.3158 31.4021 68.3158 31.376H67.8158H67.3158C67.3158 32.1787 68.0813 32.5815 68.6873 32.5815V32.0815ZM67.8158 31.376H68.3158C68.3158 31.3321 68.3485 31.235 68.5053 31.2001L68.3968 30.712L68.2884 30.2239C67.6982 30.3551 67.3158 30.839 67.3158 31.376H67.8158ZM68.3968 30.712L68.4696 31.2067C68.8897 31.1449 69.2411 31.0059 69.52 30.7809C69.8004 30.5547 69.9745 30.2683 70.0818 29.9665C70.2836 29.3991 70.2663 28.7039 70.2663 28.139H69.7663H69.2663C69.2663 28.7777 69.2698 29.2652 69.1396 29.6315C69.0809 29.7967 69.0008 29.9149 68.8922 30.0025C68.782 30.0914 68.6095 30.1754 68.3241 30.2174L68.3968 30.712ZM69.7663 28.139H70.2663V18.4695H69.7663H69.2663V28.139H69.7663ZM69.7663 18.4695H70.2663C70.2663 17.7188 70.2506 16.9651 70.04 16.3765C69.9297 16.0683 69.7587 15.7814 69.4912 15.5585C69.2224 15.3345 68.8902 15.2034 68.5044 15.1519L68.4383 15.6475L68.3722 16.1432C68.609 16.1747 68.754 16.2459 68.851 16.3267C68.9491 16.4085 69.0324 16.5288 69.0984 16.7135C69.2405 17.1105 69.2663 17.6848 69.2663 18.4695H69.7663ZM68.4383 15.6475L68.509 15.1526C68.3713 15.1329 68.3295 15.0667 68.3216 15.0468L67.8573 15.2325L67.3931 15.4182C67.5512 15.8134 67.9244 16.0792 68.3676 16.1425L68.4383 15.6475ZM67.8573 15.2325L68.3216 15.0468C68.3161 15.0331 68.3172 15.0242 68.3178 15.0215C68.3181 15.0203 68.3186 15.0189 68.32 15.0166C68.3214 15.0144 68.3255 15.0086 68.3357 15.0005L68.0233 14.61L67.711 14.2196C67.3161 14.5355 67.2358 15.025 67.3931 15.4182L67.8573 15.2325ZM68.0233 14.61L68.3982 14.9408C68.655 14.6498 69.117 14.3099 69.6536 14.0243C70.1899 13.739 70.7414 13.5395 71.1563 13.4877L71.0943 12.9915L71.0323 12.4954C70.4513 12.568 69.7785 12.8251 69.1839 13.1415C68.5897 13.4577 68.0141 13.8648 67.6484 14.2792L68.0233 14.61ZM71.0943 12.9915L71.3179 13.4388C71.2722 13.4616 71.2358 13.4692 71.2227 13.4716C71.2073 13.4744 71.1991 13.4745 71.201 13.4744C71.2058 13.4742 71.2238 13.4744 71.257 13.4781C71.3224 13.4854 71.4034 13.5012 71.4711 13.5181L71.5923 13.033L71.7136 12.548C71.6152 12.5234 71.4887 12.4977 71.3674 12.4842C71.3073 12.4775 71.2371 12.4725 71.1666 12.475C71.111 12.4769 70.9908 12.4843 70.8707 12.5443L71.0943 12.9915ZM71.5923 13.033L71.4168 13.5012C71.4928 13.5297 71.5075 13.5553 71.5132 13.5651C71.5252 13.5858 71.5488 13.6436 71.5488 13.78H72.0488H72.5488C72.5488 13.543 72.5102 13.2896 72.377 13.0612C72.2374 12.822 72.0238 12.6608 71.7679 12.5649L71.5923 13.033ZM72.0488 13.78L71.5491 13.7644C71.5086 15.0604 71.4243 16.0974 71.4243 17.432H71.9243H72.4243C72.4243 16.1106 72.5061 15.1557 72.5486 13.7957L72.0488 13.78ZM71.9243 17.432H71.4243V28.139H71.9243H72.4243V17.432H71.9243ZM71.9243 28.139H71.4243C71.4243 28.7321 71.4177 29.4248 71.6267 29.9884C71.7374 30.287 71.9132 30.5673 72.1902 30.7884C72.4657 31.0082 72.8101 31.1444 73.2189 31.2064L73.2938 30.712L73.3687 30.2177C73.0929 30.1759 72.9236 30.0942 72.8139 30.0067C72.7058 29.9204 72.6248 29.8039 72.5643 29.6408C72.4309 29.281 72.4243 28.791 72.4243 28.139H71.9243ZM88.4977 29.7575L88.2204 30.1736L88.2303 30.1802L88.2405 30.1863L88.4977 29.7575ZM88.6637 30.3385L88.2636 30.0384L88.2557 30.0495L88.6637 30.3385ZM83.6837 30.546L84.1758 30.4566L84.174 30.448L83.6837 30.546ZM83.1442 30.463L83.5319 30.7789L83.547 30.7603L83.5603 30.7404L83.1442 30.463ZM83.2687 24.238V23.738L83.2649 23.7381L83.2687 24.238ZM78.9527 19.009L79.417 18.8233L79.4143 18.8167L78.9527 19.009ZM86.5472 30.297L86.6909 29.8181L86.6717 29.8124L86.652 29.8081L86.5472 30.297ZM87.7507 29.8405L87.3972 29.487L87.7507 29.8405ZM83.5592 26.8525H84.0592V25.6075H83.5592H83.0592V26.8525H83.5592ZM83.5592 25.6075H84.0592C84.0592 25.4363 84.0013 25.2387 83.8454 25.0828C83.6856 24.9231 83.4751 24.8585 83.2687 24.8585V25.3585V25.8585C83.2699 25.8585 83.2046 25.8563 83.1383 25.7899C83.0757 25.7274 83.0592 25.6543 83.0592 25.6075H83.5592ZM83.2687 25.3585V24.8585C81.8839 24.8585 80.5098 24.8639 79.4865 25.1879C78.9615 25.3542 78.4843 25.6166 78.1407 26.0426C77.7925 26.4745 77.6227 27.0234 77.6227 27.6825H78.1227H78.6227C78.6227 27.2005 78.7435 26.8882 78.9192 26.6703C79.0996 26.4466 79.3797 26.2707 79.7884 26.1413C80.6327 25.8739 81.8316 25.8585 83.2687 25.8585V25.3585ZM78.1227 27.6825H77.6227C77.6227 28.2897 77.6355 29.115 77.9781 29.7874C78.1574 30.1393 78.4278 30.4538 78.8244 30.6752C79.2163 30.8941 79.6998 31.0045 80.2807 31.0045V30.5045V30.0045C79.8242 30.0045 79.5191 29.9178 79.312 29.8021C79.1093 29.689 78.97 29.5314 78.8691 29.3335C78.6514 28.9061 78.6227 28.3204 78.6227 27.6825H78.1227ZM80.2807 30.5045V31.0045C81.3484 31.0045 82.2956 30.3876 82.9552 29.6086C83.6155 28.8288 84.0592 27.8052 84.0592 26.8525H83.5592H83.0592C83.0592 27.5184 82.7353 28.3208 82.192 28.9624C81.6482 29.6047 80.9561 30.0045 80.2807 30.0045V30.5045ZM88.4977 29.7575L88.2405 30.1863C88.225 30.177 88.2247 30.1706 88.2245 30.1698C88.2237 30.1672 88.2206 30.1553 88.2233 30.134C88.226 30.1117 88.2358 30.0758 88.2637 30.0385L88.6637 30.3385L89.0637 30.6385C89.2449 30.397 89.2471 30.1091 89.186 29.8951C89.1235 29.6765 88.978 29.4626 88.755 29.3288L88.4977 29.7575ZM88.6637 30.3385L88.2557 30.0495C87.9253 30.5161 87.4272 31.0817 86.873 31.5251C86.304 31.9803 85.7521 32.2455 85.3022 32.2455V32.7455V33.2455C86.0974 33.2455 86.8735 32.8053 87.4977 32.306C88.1366 31.7949 88.6967 31.157 89.0718 30.6275L88.6637 30.3385ZM85.3022 32.7455V32.2455C85.033 32.2455 84.8058 32.0924 84.5981 31.7362C84.3875 31.3753 84.255 30.8928 84.1757 30.4566L83.6837 30.546L83.1918 30.6355C83.2785 31.1123 83.4365 31.7296 83.7343 32.2401C84.0349 32.7555 84.534 33.2455 85.3022 33.2455V32.7455ZM83.6837 30.546L84.174 30.448C84.1072 30.114 83.8337 29.9082 83.5765 29.8469C83.284 29.7773 82.9383 29.8706 82.7282 30.1857L83.1442 30.463L83.5603 30.7404C83.5459 30.7619 83.5142 30.7932 83.4641 30.8115C83.4176 30.8285 83.3752 30.827 83.3449 30.8198C83.3159 30.8129 83.2885 30.7988 83.2639 30.7758C83.2391 30.7527 83.2066 30.7097 83.1935 30.6441L83.6837 30.546ZM83.1442 30.463L82.7566 30.1472C81.879 31.2243 80.5958 32.2455 79.0357 32.2455V32.7455V33.2455C81.0446 33.2455 82.5835 31.9427 83.5319 30.7789L83.1442 30.463ZM79.0357 32.7455V32.2455C78.0801 32.2455 77.4433 31.6857 77.0189 30.883C76.5877 30.0674 76.4232 29.0726 76.4232 28.4295H75.9232H75.4232C75.4232 29.1975 75.6115 30.3606 76.1348 31.3504C76.6649 32.3529 77.5844 33.2455 79.0357 33.2455V32.7455ZM75.9232 28.4295H76.4232C76.4232 27.5893 76.5428 26.9728 76.7676 26.5113C76.9864 26.0622 77.3205 25.7272 77.8176 25.471C78.3272 25.2082 79.0128 25.0263 79.9255 24.9104C80.8354 24.7949 81.9403 24.7484 83.2726 24.738L83.2687 24.238L83.2649 23.7381C81.9205 23.7485 80.7688 23.7953 79.7995 23.9184C78.833 24.0411 78.0168 24.2431 77.3593 24.5821C76.6892 24.9276 76.1907 25.4123 75.8686 26.0733C75.5527 26.7219 75.4232 27.5061 75.4232 28.4295H75.9232ZM83.2687 24.238V24.738C83.4752 24.738 83.6986 24.6726 83.8634 24.4895C84.0197 24.3159 84.0592 24.1067 84.0592 23.9475H83.5592H83.0592C83.0592 23.9475 83.0592 23.9468 83.0593 23.9454C83.0594 23.944 83.0596 23.9419 83.06 23.939C83.0608 23.9334 83.0625 23.9244 83.0661 23.9128C83.0736 23.889 83.0894 23.8547 83.1202 23.8206C83.1916 23.7412 83.2698 23.738 83.2687 23.738V24.238ZM83.5592 23.9475H84.0592V18.8845H83.5592H83.0592V23.9475H83.5592ZM83.5592 18.8845H84.0592C84.0592 18.2066 84.043 17.1396 83.6811 16.2348C83.4964 15.773 83.2124 15.3282 82.773 14.9999C82.3289 14.6681 81.7636 14.4835 81.0692 14.4835V14.9835V15.4835C81.5784 15.4835 81.9261 15.6155 82.1745 15.801C82.4277 15.9902 82.6157 16.2639 82.7526 16.6062C83.0339 17.3095 83.0592 18.193 83.0592 18.8845H83.5592ZM81.0692 14.9835V14.4835C80.1327 14.4835 79.2563 15.1386 78.7424 15.9912C78.2159 16.8647 78.0065 18.0381 78.4912 19.2013L78.9527 19.009L79.4143 18.8167C79.069 17.988 79.2124 17.1486 79.5988 16.5074C79.9979 15.8452 80.5948 15.4835 81.0692 15.4835V14.9835ZM78.9527 19.009L78.4885 19.1947C78.4636 19.1324 78.4915 19.1153 78.4646 19.1799C78.4405 19.2376 78.3868 19.321 78.2968 19.4092C78.112 19.5903 77.858 19.7125 77.6247 19.7125V20.2125V20.7125C78.18 20.7125 78.673 20.4406 78.9966 20.1236C79.1607 19.9628 79.3015 19.7712 79.3877 19.5645C79.471 19.3645 79.5249 19.0932 79.417 18.8233L78.9527 19.009ZM77.6247 20.2125V19.7125C77.3037 19.7125 77.1076 19.5883 76.9786 19.4204C76.837 19.2359 76.7552 18.9665 76.7552 18.677H76.2552H75.7552C75.7552 19.1345 75.881 19.6329 76.1855 20.0294C76.5026 20.4425 76.9912 20.7125 77.6247 20.7125V20.2125ZM76.2552 18.677H76.7552C76.7552 17.9603 77.0696 17.2801 77.6083 16.6162C78.1487 15.9504 78.8859 15.3372 79.6643 14.7636L79.3677 14.361L79.0711 13.9585C78.2726 14.5469 77.4535 15.2202 76.8319 15.9861C76.2086 16.754 75.7552 17.6508 75.7552 18.677H76.2552ZM79.3677 14.361L79.6643 14.7636C80.0818 14.456 80.4687 14.1433 80.9075 13.8925C81.3353 13.6481 81.7673 13.4915 82.2312 13.4915V12.9915V12.4915C81.5331 12.4915 80.9277 12.7293 80.4114 13.0243C79.906 13.3131 79.4422 13.6851 79.0711 13.9585L79.3677 14.361ZM82.2312 12.9915V13.4915C83.4097 13.4915 84.1419 14.081 84.6049 14.8812C85.0824 15.7064 85.2587 16.7434 85.2587 17.515H85.7587H86.2587C86.2587 16.6267 86.0616 15.4019 85.4705 14.3804C84.8648 13.3338 83.8333 12.4915 82.2312 12.4915V12.9915ZM85.7587 17.515H85.2587V27.973H85.7587H86.2587V17.515H85.7587ZM85.7587 27.973H85.2587C85.2587 28.6901 85.3098 29.304 85.4589 29.7699C85.6107 30.2442 85.904 30.6706 86.4425 30.7859L86.5472 30.297L86.652 29.8081C86.6095 29.799 86.5085 29.7688 86.4113 29.4651C86.3114 29.1528 86.2587 28.667 86.2587 27.973H85.7587ZM86.5472 30.297L86.4036 30.776C87.0801 30.9789 87.6375 30.6609 88.1043 30.1941L87.7507 29.8405L87.3972 29.487C87.034 29.8502 86.8444 29.8642 86.6909 29.8181L86.5472 30.297ZM87.7507 29.8405L88.1043 30.1941C88.1367 30.1616 88.1604 30.1564 88.1683 30.1554C88.173 30.1548 88.1782 30.155 88.185 30.1567C88.1919 30.1583 88.2038 30.1625 88.2204 30.1736L88.4977 29.7575L88.7751 29.3415C88.3131 29.0335 87.7604 29.1237 87.3972 29.487L87.7507 29.8405Z" fill="black"/>
</svg>
