<svg width="111" height="43" viewBox="0 0 111 43" fill="none" xmlns="http://www.w3.org/2000/svg">
<path d="M14.1534 25.4525C14.5269 25.4525 14.7344 25.743 14.6929 26.0335C14.4024 27.32 13.8629 30.1835 13.6139 31.47C13.5724 31.8435 13.1989 32.0925 12.7424 32.0925C10.5429 32.051 9.83741 32.0095 7.67941 32.0095C5.56291 32.0095 3.36341 32.051 1.24691 32.0925C0.83191 32.0925 0.49991 31.802 0.49991 31.4285C0.49991 31.0965 0.74891 30.806 1.12241 30.7645C2.94841 30.474 3.03141 28.9385 3.03141 27.1955V7.73201C3.03141 6.11351 3.15591 4.45351 1.16391 4.24601C0.74891 4.20451 0.49991 3.91401 0.49991 3.58201C0.49991 3.16701 0.83191 2.87651 1.24691 2.87651C3.11441 2.95951 4.81591 2.95951 6.80791 2.95951C8.88291 2.95951 10.9994 2.91801 12.9499 2.87651C13.3649 2.87651 13.6139 3.12551 13.6139 3.45751V8.93551C13.6139 9.14301 13.4064 9.39201 13.0744 9.39201C12.7424 9.39201 12.5764 9.14301 12.5349 8.93551C12.3689 6.44551 12.4934 4.16301 8.71691 4.16301H6.26841C5.68741 4.16301 5.35541 4.49501 5.35541 4.99301V15.7C5.35541 16.0735 5.60441 16.364 6.06091 16.364H9.25641C11.2069 16.364 11.2069 14.4965 11.2069 13.21C11.2069 13.0025 11.4144 12.795 11.7464 12.795C12.1199 12.795 12.2859 13.0025 12.2859 13.21V21.012C12.2859 21.2195 12.0784 21.427 11.7464 21.427C11.4144 21.427 11.2069 21.2195 11.2069 20.9705C11.2484 19.601 11.3729 17.443 9.21491 17.443H6.06091C5.60441 17.443 5.35541 17.7335 5.35541 18.107V26.822C5.35541 30.142 6.14391 30.9305 8.79991 30.9305C12.6179 30.9305 12.9914 28.4405 13.5724 25.8675C13.6139 25.66 13.8214 25.4525 14.1534 25.4525ZM31.0352 29.7685C31.2012 29.893 31.2427 30.142 31.1182 30.308C30.4542 31.304 29.0432 32.715 27.7982 32.715C26.7607 32.715 26.3042 31.055 26.1382 29.893C26.1382 29.6855 25.8062 29.6025 25.6402 29.81C24.5197 31.0965 22.9012 32.715 21.0752 32.715C17.8382 32.715 17.8382 28.6895 17.8382 26.324V18.4805C17.8382 16.9035 17.7552 15.783 16.4687 15.6585C16.1782 15.617 15.9707 15.451 15.9292 15.2435C15.8047 14.9945 15.8877 14.787 16.0537 14.5795C16.7177 13.9155 18.1287 13.127 19.1247 13.0025C19.2492 12.961 19.4982 12.961 19.6227 13.044C19.9547 13.127 20.1207 13.4175 20.1207 13.791C20.0792 14.87 20.0377 16.2395 19.9962 17.3185V23.8755C19.9962 25.7845 19.6642 30.391 22.4447 30.391C23.6067 30.391 25.1007 28.98 25.8062 28.15C25.9722 27.901 26.0967 27.652 26.0967 27.403V18.4805C26.0967 16.9035 26.0137 15.783 24.7272 15.6585C24.4367 15.617 24.2292 15.451 24.1462 15.2435C24.0632 14.9945 24.1462 14.787 24.3122 14.5795C24.9347 13.9155 26.3872 13.127 27.3832 13.0025C27.5077 12.961 27.7152 12.961 27.8812 13.044C28.2132 13.127 28.3792 13.4175 28.3377 13.791C28.3377 14.87 28.2547 16.2395 28.2547 17.3185V27.569C28.2547 28.9385 28.4622 30.142 29.0432 30.2665C29.4582 30.391 29.7902 30.225 30.2467 29.81C30.4542 29.6025 30.7862 29.561 31.0352 29.7685ZM35.9302 18.024V27.3615C35.9302 28.897 36.6357 31.138 39.1672 31.138C43.0267 31.138 43.7322 26.241 43.7322 23.004C43.7322 20.6385 42.9022 15.3265 39.1672 15.3265C37.6732 15.3265 35.9302 16.779 35.9302 18.024ZM35.9302 32.217V37.6535C35.9302 39.189 35.9717 40.0605 37.6317 40.2265C38.0882 40.268 38.3372 40.5585 38.3372 40.8905C38.3372 41.3055 38.0052 41.596 37.5072 41.596C36.7187 41.5545 35.8472 41.513 35.0587 41.513C34.2702 41.513 33.3572 41.5545 32.5687 41.5545C32.0707 41.596 31.6972 41.264 31.6972 40.8905C31.6972 40.5585 31.9462 40.268 32.3612 40.2265C33.7307 40.019 33.7722 38.9815 33.7722 37.6535V18.4805C33.7722 16.945 33.6892 15.8245 32.4027 15.6585C32.1122 15.617 31.9047 15.451 31.8217 15.2435C31.7387 15.036 31.8217 14.787 31.9877 14.621C32.6102 13.9155 34.0627 13.127 35.0587 13.0025C35.1832 12.961 35.3907 13.0025 35.5567 13.044C35.8887 13.1685 36.0547 13.4175 36.0132 13.791C36.0132 14.3305 36.0132 14.787 35.9717 15.285C35.9717 15.451 36.2207 15.534 36.3452 15.4095C37.2582 14.206 38.7522 13.0025 40.3292 13.0025C44.8112 13.0025 45.9317 19.767 45.9317 22.2155C45.9317 25.494 44.2302 32.715 38.7937 32.715C37.8807 32.715 37.1752 32.5075 36.4282 32.0095C36.2207 31.885 35.9302 31.968 35.9302 32.217ZM61.0504 30.723C61.4654 30.806 61.6729 31.055 61.6729 31.387C61.6729 31.7605 61.3409 32.0925 60.8014 32.0925C60.1374 32.051 59.2244 32.051 58.5189 32.051C57.8134 32.051 56.9834 32.051 56.2779 32.0925C55.7384 32.0925 55.4479 31.802 55.4479 31.3455C55.4479 31.055 55.6969 30.806 56.1119 30.723C57.5229 30.5155 57.4399 29.1875 57.4399 27.901V21.842C57.4399 20.182 57.8134 15.5755 54.7839 15.5755C53.4974 15.5755 51.1734 17.775 51.1734 19.186V27.901C51.1734 29.146 51.1319 30.474 52.5844 30.723C52.9994 30.806 53.2069 31.055 53.2069 31.4285C53.1654 31.802 52.8749 32.0925 52.3769 32.0925C51.7129 32.051 50.7999 32.051 50.1359 32.051C49.4304 32.051 48.6419 32.051 47.9364 32.0925C47.4799 32.0925 47.1064 31.8435 47.0649 31.4285C47.0234 31.0965 47.2309 30.806 47.6044 30.723C49.0569 30.474 49.0154 29.063 49.0154 27.901V6.32101C49.0154 5.07601 49.0984 3.66501 47.2309 3.49901C46.9404 3.45751 46.7329 3.29151 46.6499 3.08401C46.5669 2.87651 46.6084 2.62751 46.8159 2.42001C47.6044 1.63151 49.1399 0.71851 50.3019 0.511007C50.5094 0.469508 50.7584 0.552509 50.9244 0.635508C51.1734 0.760009 51.3394 1.00901 51.2979 1.21651C51.2149 2.50301 51.1734 3.62351 51.1734 4.99301V16.115C51.1734 16.364 51.4639 16.364 51.5469 16.2395C52.5014 14.8285 53.9124 13.0025 55.7799 13.0025C59.0584 13.0025 59.5979 17.5675 59.5979 19.3935V27.901C59.5979 29.146 59.4734 30.474 61.0504 30.723ZM73.8285 23.087C73.704 20.929 72.7495 14.1645 68.9315 14.2475C65.2795 14.372 65.072 20.5555 65.1965 22.672C65.321 24.7885 66.3585 31.553 70.052 31.4285C73.6625 31.3455 73.9115 25.2035 73.8285 23.087ZM76.3185 22.7965C76.3185 25.7845 74.7 32.7565 69.6785 32.7565C64.159 32.7565 62.665 26.1995 62.665 22.9625C62.665 19.933 64.159 13.0025 69.305 13.0025C74.9075 13.0025 76.3185 19.518 76.3185 22.7965ZM86.1627 13.0025C87.6152 13.0025 88.0302 14.206 88.0302 15.036C88.0302 15.6585 87.6567 17.0695 86.6607 17.0695C85.6647 17.0695 85.6647 15.7415 84.6687 15.7415C83.2992 15.7415 82.2202 18.107 82.2202 19.5595V27.901C82.2202 29.81 82.3032 30.5985 84.5442 30.723C85.0007 30.7645 85.2912 31.055 85.2912 31.4285C85.2497 31.802 84.9177 32.051 84.4612 32.051C83.6312 32.0095 82.7182 32.0095 81.8882 32.0095C80.8507 32.0095 79.7302 32.0095 78.6512 32.051C78.1532 32.051 77.8627 31.7605 77.8627 31.387C77.8627 30.972 78.1532 30.7645 78.5267 30.6815C80.0622 30.5155 80.0622 29.3535 80.0622 27.901V18.605C80.0622 17.028 79.9792 15.783 78.7342 15.617C78.4437 15.5755 78.1947 15.4095 78.1532 15.202C78.0287 14.9945 78.1117 14.7455 78.2777 14.5795C78.9002 13.874 80.3527 13.127 81.3487 12.961C81.4732 12.961 81.6807 12.961 81.8467 13.0025C82.1787 13.127 82.3447 13.376 82.3447 13.791C82.3032 14.621 82.2617 15.2435 82.2617 16.032C82.2202 16.281 82.5522 16.364 82.6352 16.198C83.4237 14.87 84.9177 13.0025 86.1627 13.0025ZM93.7744 4.91001C93.7744 5.98901 92.9029 6.86051 91.8654 6.86051C90.7864 6.86051 89.9149 5.98901 89.9149 4.91001C89.9149 3.87251 90.7864 3.00101 91.8654 3.00101C92.9029 3.00101 93.7744 3.87251 93.7744 4.91001ZM94.8949 30.6815C95.3099 30.7645 95.5174 31.0135 95.5174 31.3455C95.5174 31.7605 95.1439 32.051 94.6874 32.051C93.9819 32.0095 93.1934 32.0095 92.4879 32.0095C91.7824 32.0095 90.9939 32.0095 90.2884 32.051C89.8319 32.051 89.4169 31.7605 89.4169 31.3455C89.4169 31.055 89.6244 30.7645 89.9979 30.6815C91.4089 30.474 91.3674 29.312 91.3674 28.1085V18.439C91.3674 16.9035 91.2844 15.783 90.0394 15.617C89.7489 15.5755 89.5414 15.4095 89.4584 15.202C89.3754 14.9945 89.4169 14.7455 89.6244 14.5795C90.2469 13.874 91.6994 13.0855 92.6954 12.961C92.7784 12.9195 93.0274 12.961 93.1934 13.0025C93.5254 13.127 93.6499 13.376 93.6499 13.7495C93.6084 15.0775 93.5254 16.0735 93.5254 17.4015V28.1085C93.5254 29.3535 93.5254 30.474 94.8949 30.6815ZM105.16 26.822V25.577C105.16 25.4525 105.077 25.328 104.87 25.328C102.048 25.328 99.7238 25.3695 99.7238 27.652C99.7238 28.897 99.8068 30.474 101.882 30.474C103.625 30.474 105.16 28.4405 105.16 26.822ZM110.099 29.727C110.306 29.8515 110.389 30.142 110.265 30.308C109.559 31.304 108.148 32.715 106.903 32.715C105.866 32.715 105.451 31.4285 105.285 30.5155C105.243 30.308 104.911 30.1835 104.745 30.4325C103.832 31.553 102.421 32.715 100.637 32.715C98.2298 32.715 97.5243 29.81 97.5243 28.399C97.5243 24.8715 99.5163 24.249 104.87 24.2075C105.077 24.2075 105.16 24.083 105.16 23.917V18.854C105.16 17.4845 105.077 14.953 102.67 14.953C101.259 14.953 99.7238 16.9865 100.554 18.9785C100.72 19.3935 100.014 20.182 99.2258 20.182C98.2713 20.182 97.8563 19.3935 97.8563 18.6465C97.8563 16.9035 99.3918 15.4925 100.969 14.3305C101.757 13.7495 102.67 12.961 103.832 12.961C106.613 12.961 107.36 15.8245 107.36 17.4845V27.9425C107.36 29.3535 107.567 30.142 108.148 30.2665C108.563 30.391 108.937 30.225 109.352 29.81C109.559 29.6025 109.85 29.561 110.099 29.727Z" fill="black"/>
<path d="M14.6929 26.0335L15.1806 26.1436L15.185 26.1241L15.1879 26.1042L14.6929 26.0335ZM13.6139 31.47L13.123 31.375L13.1192 31.3948L13.117 31.4148L13.6139 31.47ZM12.7424 32.0925L12.733 32.5925H12.7424V32.0925ZM1.24691 32.0925V32.5926L1.25671 32.5924L1.24691 32.0925ZM1.12241 30.7645L1.17763 31.2615L1.18933 31.2602L1.20097 31.2583L1.12241 30.7645ZM1.16391 4.24601L1.21571 3.7487L1.21366 3.74849L1.16391 4.24601ZM1.24691 2.87651L1.26911 2.377L1.25802 2.37651H1.24691V2.87651ZM12.9499 2.87651V2.3764L12.9393 2.37662L12.9499 2.87651ZM12.5349 8.93551L12.036 8.96877L12.0382 9.00145L12.0446 9.03356L12.5349 8.93551ZM11.2069 20.9705L10.7071 20.9554L10.7069 20.9629V20.9705H11.2069ZM13.5724 25.8675L14.0603 25.9777L14.0627 25.9656L13.5724 25.8675ZM14.1534 25.4525V25.9525C14.1812 25.9525 14.1943 25.9577 14.1977 25.9592C14.2011 25.9607 14.2006 25.9612 14.1992 25.9595C14.1965 25.9563 14.1989 25.9563 14.1979 25.9628L14.6929 26.0335L15.1879 26.1042C15.2716 25.5184 14.8371 24.9525 14.1534 24.9525V25.4525ZM14.6929 26.0335L14.2052 25.9234C13.9124 27.2199 13.3704 30.0968 13.123 31.375L13.6139 31.47L14.1048 31.565C14.3554 30.2702 14.8924 27.4201 15.1806 26.1436L14.6929 26.0335ZM13.6139 31.47L13.117 31.4148C13.1143 31.4386 13.1026 31.4728 13.0471 31.5117C12.9871 31.5536 12.8833 31.5925 12.7424 31.5925V32.0925V32.5925C13.3401 32.5925 14.0302 32.2507 14.1109 31.5252L13.6139 31.47ZM12.7424 32.0925L12.7518 31.5926C10.5625 31.5513 9.84344 31.5095 7.67941 31.5095V32.0095V32.5095C9.83138 32.5095 10.5233 32.5507 12.733 32.5924L12.7424 32.0925ZM7.67941 32.0095V31.5095C5.55729 31.5095 3.35307 31.5511 1.23711 31.5926L1.24691 32.0925L1.25671 32.5924C3.37375 32.5509 5.56853 32.5095 7.67941 32.5095V32.0095ZM1.24691 32.0925V31.5925C1.1556 31.5925 1.08824 31.5607 1.04907 31.5261C1.01179 31.4931 0.99991 31.4596 0.99991 31.4285H0.49991H-8.97646e-05C-8.97646e-05 32.134 0.615145 32.5925 1.24691 32.5925V32.0925ZM0.49991 31.4285H0.99991C0.99991 31.3894 1.01407 31.3535 1.04034 31.3247C1.0657 31.2969 1.10886 31.2691 1.17763 31.2615L1.12241 30.7645L1.06719 30.2676C0.449335 30.3362 -8.97646e-05 30.8329 -8.97646e-05 31.4285H0.49991ZM1.12241 30.7645L1.20097 31.2583C1.72562 31.1748 2.1588 30.996 2.50373 30.7196C2.84932 30.4426 3.07751 30.0907 3.22745 29.7065C3.51643 28.966 3.53141 28.0496 3.53141 27.1955H3.03141H2.53141C2.53141 28.0844 2.50489 28.8073 2.29587 29.3429C2.19681 29.5968 2.06187 29.7922 1.87834 29.9393C1.69415 30.0869 1.4322 30.2089 1.04385 30.2707L1.12241 30.7645ZM3.03141 27.1955H3.53141V7.73201H3.03141H2.53141V27.1955H3.03141ZM3.03141 7.73201H3.53141C3.53141 6.97055 3.56966 6.04179 3.31823 5.29948C3.1855 4.90762 2.96582 4.53986 2.60424 4.25688C2.24447 3.97533 1.78265 3.80776 1.21571 3.7487L1.16391 4.24601L1.11211 4.74332C1.54117 4.78801 1.81078 4.90575 1.98793 5.04439C2.16325 5.1816 2.28594 5.3689 2.37109 5.62029C2.55541 6.16448 2.53141 6.87497 2.53141 7.73201H3.03141ZM1.16391 4.24601L1.21366 3.74849C1.11346 3.73847 1.06176 3.70258 1.03761 3.67734C1.01302 3.65163 0.99991 3.62002 0.99991 3.58201H0.49991H-8.97646e-05C-8.97646e-05 4.19533 0.468637 4.67898 1.11416 4.74353L1.16391 4.24601ZM0.49991 3.58201H0.99991C0.99991 3.51501 1.02389 3.47153 1.05692 3.44104C1.09304 3.40769 1.15612 3.37651 1.24691 3.37651V2.87651V2.37651C0.594205 2.37651 -8.97646e-05 2.85394 -8.97646e-05 3.58201H0.49991ZM1.24691 2.87651L1.22471 3.37602C3.10504 3.45959 4.81744 3.45951 6.80791 3.45951V2.95951V2.45951C4.81438 2.45951 3.12378 2.45943 1.26911 2.377L1.24691 2.87651ZM6.80791 2.95951V3.45951C8.8888 3.45951 11.0101 3.41789 12.9605 3.3764L12.9499 2.87651L12.9393 2.37662C10.9887 2.41812 8.87702 2.45951 6.80791 2.45951V2.95951ZM12.9499 2.87651V3.37651C13.0576 3.37651 13.0958 3.40756 13.1012 3.41248C13.105 3.41589 13.1069 3.41877 13.1085 3.4226C13.1103 3.42676 13.1139 3.43745 13.1139 3.45751H13.6139H14.1139C14.1139 3.16088 13.9996 2.87773 13.7739 2.67254C13.551 2.46996 13.2573 2.37651 12.9499 2.37651V2.87651ZM13.6139 3.45751H13.1139V8.93551H13.6139H14.1139V3.45751H13.6139ZM13.6139 8.93551H13.1139C13.1139 8.90507 13.1211 8.88737 13.1236 8.88202C13.1265 8.87599 13.1279 8.8757 13.1253 8.87807C13.1233 8.88001 13.1192 8.88317 13.1123 8.88594C13.1059 8.88849 13.0941 8.89201 13.0744 8.89201V9.39201V9.89201C13.6552 9.89201 14.1139 9.44569 14.1139 8.93551H13.6139ZM13.0744 9.39201V8.89201C13.0643 8.89201 13.058 8.89108 13.0548 8.89045C13.0532 8.89012 13.0521 8.88982 13.0515 8.88963C13.0509 8.88944 13.0506 8.88932 13.0506 8.88931C13.0505 8.8893 13.0506 8.88933 13.0507 8.88941C13.0509 8.88949 13.051 8.88955 13.051 8.88957C13.0511 8.88962 13.0505 8.88924 13.0493 8.88802C13.0466 8.88534 13.0415 8.8792 13.0361 8.86857C13.0306 8.85771 13.027 8.84637 13.0252 8.83745L12.5349 8.93551L12.0446 9.03356C12.1152 9.38647 12.4242 9.89201 13.0744 9.89201V9.39201ZM12.5349 8.93551L13.0338 8.90225C12.9936 8.2999 12.9686 7.66053 12.8955 7.07718C12.8218 6.48868 12.694 5.90163 12.4228 5.3836C12.1451 4.85314 11.7251 4.41076 11.1013 4.10858C10.4889 3.81188 9.70682 3.66301 8.71691 3.66301V4.16301V4.66301C9.61526 4.66301 10.2338 4.79945 10.6653 5.00853C11.0856 5.21213 11.3529 5.49601 11.5369 5.84741C11.7274 6.21126 11.8356 6.66171 11.9033 7.20149C11.9715 7.74643 11.9932 8.32611 12.036 8.96877L12.5349 8.93551ZM8.71691 4.16301V3.66301H6.26841V4.16301V4.66301H8.71691V4.16301ZM6.26841 4.16301V3.66301C5.88407 3.66301 5.52257 3.77402 5.25288 4.02573C4.97973 4.28066 4.85541 4.62925 4.85541 4.99301H5.35541H5.85541C5.85541 4.85877 5.89709 4.79235 5.93519 4.75679C5.97675 4.718 6.07175 4.66301 6.26841 4.66301V4.16301ZM5.35541 4.99301H4.85541V15.7H5.35541H5.85541V4.99301H5.35541ZM5.35541 15.7H4.85541C4.85541 15.9987 4.95668 16.2989 5.18342 16.5256C5.41196 16.7542 5.72364 16.864 6.06091 16.864V16.364V15.864C5.94168 15.864 5.90061 15.8286 5.89053 15.8185C5.87864 15.8066 5.85541 15.7748 5.85541 15.7H5.35541ZM6.06091 16.364V16.864H9.25641V16.364V15.864H6.06091V16.364ZM9.25641 16.364V16.864C9.82617 16.864 10.2988 16.7264 10.6739 16.4595C11.0472 16.1939 11.2817 15.8302 11.4292 15.4505C11.7134 14.7189 11.7069 13.8295 11.7069 13.21H11.2069H10.7069C10.7069 13.877 10.7005 14.5647 10.497 15.0884C10.4007 15.3364 10.2694 15.52 10.0942 15.6447C9.92068 15.7682 9.6619 15.864 9.25641 15.864V16.364ZM11.2069 13.21H11.7069C11.7069 13.2767 11.6748 13.3067 11.6723 13.3088C11.6668 13.3133 11.6852 13.295 11.7464 13.295V12.795V12.295C11.2275 12.295 10.7069 12.6449 10.7069 13.21H11.2069ZM11.7464 12.795V13.295C11.8411 13.295 11.8487 13.3202 11.8254 13.2996C11.8151 13.2906 11.8043 13.2767 11.7965 13.259C11.7889 13.2418 11.7859 13.2249 11.7859 13.21H12.2859H12.7859C12.7859 12.9697 12.6879 12.727 12.487 12.5498C12.2874 12.3736 12.0252 12.295 11.7464 12.295V12.795ZM12.2859 13.21H11.7859V21.012H12.2859H12.7859V13.21H12.2859ZM12.2859 21.012H11.7859C11.7859 20.9454 11.818 20.9153 11.8206 20.9132C11.826 20.9087 11.8076 20.927 11.7464 20.927V21.427V21.927C12.2653 21.927 12.7859 21.5771 12.7859 21.012H12.2859ZM11.7464 21.427V20.927C11.6852 20.927 11.6738 20.909 11.6843 20.9184C11.6888 20.9224 11.6951 20.9298 11.7001 20.9408C11.7051 20.9519 11.7069 20.9626 11.7069 20.9705H11.2069H10.7069C10.7069 21.5494 11.1953 21.927 11.7464 21.927V21.427ZM11.2069 20.9705L11.7067 20.9857C11.7265 20.3323 11.7776 19.3496 11.5108 18.5372C11.3726 18.1164 11.1397 17.7068 10.747 17.4051C10.3512 17.1009 9.8405 16.943 9.21491 16.943V17.443V17.943C9.66832 17.943 9.95133 18.0548 10.1378 18.1981C10.3274 18.3438 10.4655 18.5593 10.5607 18.8492C10.7607 19.4581 10.7288 20.2392 10.7071 20.9554L11.2069 20.9705ZM9.21491 17.443V16.943H6.06091V17.443V17.943H9.21491V17.443ZM6.06091 17.443V16.943C5.72364 16.943 5.41196 17.0529 5.18342 17.2814C4.95668 17.5081 4.85541 17.8083 4.85541 18.107H5.35541H5.85541C5.85541 18.0322 5.87864 18.0004 5.89053 17.9885C5.90061 17.9784 5.94168 17.943 6.06091 17.943V17.443ZM5.35541 18.107H4.85541V26.822H5.35541H5.85541V18.107H5.35541ZM5.35541 26.822H4.85541C4.85541 28.4781 5.04133 29.6823 5.70339 30.4482C6.38891 31.2413 7.45898 31.4305 8.79991 31.4305V30.9305V30.4305C7.48484 30.4305 6.83266 30.2255 6.45993 29.7943C6.06374 29.336 5.85541 28.4859 5.85541 26.822H5.35541ZM8.79991 30.9305V31.4305C10.838 31.4305 12.0581 30.7537 12.8132 29.6454C13.5235 28.603 13.7798 27.219 14.0601 25.9776L13.5724 25.8675L13.0847 25.7574C12.784 27.089 12.5631 28.2365 11.9868 29.0824C11.4555 29.8623 10.5799 30.4305 8.79991 30.4305V30.9305ZM13.5724 25.8675L14.0627 25.9656C14.0588 25.985 14.0529 25.9833 14.0638 25.9746C14.0705 25.9693 14.0952 25.9525 14.1534 25.9525V25.4525V24.9525C13.5991 24.9525 13.1734 25.3129 13.0821 25.7695L13.5724 25.8675ZM31.0352 29.7685L30.7151 30.1526L30.7249 30.1608L30.7352 30.1685L31.0352 29.7685ZM31.1182 30.308L30.7182 30.008L30.7098 30.0191L30.7021 30.0307L31.1182 30.308ZM26.1382 29.893H25.6382V29.9285L25.6432 29.9637L26.1382 29.893ZM25.6402 29.81L26.0172 30.1384L26.0241 30.1305L26.0306 30.1224L25.6402 29.81ZM16.4687 15.6585L16.3979 16.1535L16.4092 16.1551L16.4205 16.1562L16.4687 15.6585ZM15.9292 15.2435L16.4194 15.1455L16.4063 15.0798L16.3764 15.0199L15.9292 15.2435ZM16.0537 14.5795L15.7001 14.226L15.6805 14.2455L15.6632 14.2672L16.0537 14.5795ZM19.1247 13.0025L19.1867 13.4986L19.2358 13.4925L19.2828 13.4769L19.1247 13.0025ZM19.6227 13.044L19.3453 13.46L19.4174 13.5081L19.5014 13.5291L19.6227 13.044ZM20.1207 13.791L20.6203 13.8102L20.6207 13.8006V13.791H20.1207ZM19.9962 17.3185L19.4965 17.2993L19.4962 17.3089V17.3185H19.9962ZM25.8062 28.15L26.1871 28.4738L26.206 28.4516L26.2222 28.4274L25.8062 28.15ZM24.7272 15.6585L24.6564 16.1535L24.6677 16.1551L24.679 16.1562L24.7272 15.6585ZM24.1462 15.2435L23.6718 15.4016L23.6765 15.4156L23.6819 15.4292L24.1462 15.2435ZM24.3122 14.5795L23.9474 14.2375L23.934 14.2518L23.9217 14.2672L24.3122 14.5795ZM27.3832 13.0025L27.4452 13.4986L27.4943 13.4925L27.5413 13.4769L27.3832 13.0025ZM27.8812 13.044L27.6576 13.4912L27.7066 13.5158L27.7599 13.5291L27.8812 13.044ZM28.3377 13.791L27.8407 13.7358L27.8377 13.7633V13.791H28.3377ZM29.0432 30.2665L29.1868 29.7876L29.1676 29.7818L29.1479 29.7776L29.0432 30.2665ZM30.2467 29.81L30.583 30.18L30.5918 30.172L30.6002 30.1636L30.2467 29.81ZM31.0352 29.7685L30.7352 30.1685C30.7057 30.1465 30.6947 30.1199 30.6917 30.1007C30.6886 30.0808 30.6906 30.0447 30.7182 30.008L31.1182 30.308L31.5182 30.608C31.8166 30.2101 31.7109 29.6503 31.3352 29.3685L31.0352 29.7685ZM31.1182 30.308L30.7021 30.0307C30.3956 30.4905 29.9103 31.0535 29.362 31.4959C28.7997 31.9498 28.2478 32.215 27.7982 32.215V32.715V33.215C28.5935 33.215 29.3697 32.7748 29.99 32.2741C30.6245 31.7621 31.1768 31.1215 31.5342 30.5854L31.1182 30.308ZM27.7982 32.715V32.215C27.5899 32.215 27.3412 32.051 27.0935 31.5263C26.86 31.0319 26.7133 30.3832 26.6331 29.8223L26.1382 29.893L25.6432 29.9637C25.7291 30.5649 25.8936 31.3272 26.1892 31.9533C26.4706 32.5491 26.9689 33.215 27.7982 33.215V32.715ZM26.1382 29.893H26.6382C26.6382 29.4711 26.2986 29.2554 26.0495 29.2056C25.784 29.1525 25.4626 29.2315 25.2497 29.4977L25.6402 29.81L26.0306 30.1224C25.9837 30.181 25.9113 30.1978 25.8533 30.1862C25.824 30.1803 25.7766 30.1634 25.7301 30.1169C25.6783 30.065 25.6382 29.9849 25.6382 29.893H26.1382ZM25.6402 29.81L25.2631 29.4816C24.7096 30.1172 24.0541 30.8095 23.327 31.3414C22.5975 31.875 21.8395 32.215 21.0752 32.215V32.715V33.215C22.1368 33.215 23.101 32.7457 23.9174 32.1485C24.7362 31.5495 25.4502 30.7894 26.0172 30.1384L25.6402 29.81ZM21.0752 32.715V32.215C20.3797 32.215 19.8959 32.0029 19.5403 31.6793C19.1737 31.3456 18.9071 30.8594 18.7203 30.2582C18.3423 29.0419 18.3382 27.5241 18.3382 26.324H17.8382H17.3382C17.3382 27.4895 17.334 29.1671 17.7653 30.555C17.9831 31.2558 18.3234 31.9238 18.8672 32.4188C19.4221 32.9239 20.1521 33.215 21.0752 33.215V32.715ZM17.8382 26.324H18.3382V18.4805H17.8382H17.3382V26.324H17.8382ZM17.8382 18.4805H18.3382C18.3382 17.7112 18.3229 16.9434 18.105 16.352C17.9904 16.0409 17.8121 15.7538 17.5329 15.536C17.2536 15.318 16.9108 15.199 16.5168 15.1608L16.4687 15.6585L16.4205 16.1562C16.6697 16.1803 16.8198 16.248 16.9179 16.3244C17.016 16.401 17.0997 16.5159 17.1667 16.6977C17.3119 17.0919 17.3382 17.6728 17.3382 18.4805H17.8382ZM16.4687 15.6585L16.5394 15.1635C16.4681 15.1533 16.4281 15.1307 16.4125 15.1186C16.3977 15.107 16.4129 15.1129 16.4194 15.1455L15.9292 15.2435L15.4389 15.3416C15.5363 15.8289 15.9809 16.0939 16.3979 16.1535L16.4687 15.6585ZM15.9292 15.2435L16.3764 15.0199C16.368 15.0031 16.3684 14.998 16.369 15.0026C16.3696 15.0076 16.3688 15.0119 16.3689 15.0118C16.3703 15.0056 16.382 14.9695 16.4441 14.8919L16.0537 14.5795L15.6632 14.2672C15.5593 14.397 15.4465 14.5684 15.3961 14.7801C15.3416 15.0088 15.3698 15.2427 15.4819 15.4671L15.9292 15.2435ZM16.0537 14.5795L16.4072 14.9331C16.6934 14.6469 17.1668 14.3113 17.698 14.0309C18.232 13.7491 18.7729 13.5504 19.1867 13.4986L19.1247 13.0025L19.0626 12.5064C18.4804 12.5791 17.8179 12.8369 17.2313 13.1465C16.642 13.4575 16.0779 13.8481 15.7001 14.226L16.0537 14.5795ZM19.1247 13.0025L19.2828 13.4769C19.2753 13.4793 19.2725 13.4797 19.2752 13.4792C19.2775 13.4787 19.2825 13.4778 19.2902 13.477C19.3061 13.4753 19.3259 13.4747 19.3459 13.4758C19.3665 13.4769 19.3799 13.4795 19.3851 13.4809C19.3873 13.4814 19.385 13.481 19.3792 13.4786C19.3735 13.4762 19.3613 13.4707 19.3453 13.46L19.6227 13.044L19.9 12.628C19.7286 12.5137 19.5298 12.4845 19.4014 12.4773C19.265 12.4698 19.105 12.482 18.9665 12.5282L19.1247 13.0025ZM19.6227 13.044L19.5014 13.5291C19.5436 13.5396 19.5608 13.5559 19.575 13.5781C19.5945 13.6086 19.6207 13.6748 19.6207 13.791H20.1207H20.6207C20.6207 13.2719 20.3706 12.7156 19.7439 12.5589L19.6227 13.044ZM20.1207 13.791L19.621 13.7718C19.6002 14.3127 19.5794 14.926 19.5587 15.5378C19.5379 16.1502 19.5172 16.7612 19.4965 17.2993L19.9962 17.3185L20.4958 17.3377C20.5166 16.7969 20.5374 16.1835 20.5581 15.5717C20.5789 14.9593 20.5996 14.3484 20.6203 13.8102L20.1207 13.791ZM19.9962 17.3185H19.4962V23.8755H19.9962H20.4962V17.3185H19.9962ZM19.9962 23.8755H19.4962C19.4962 24.7895 19.4104 26.4917 19.6865 27.9426C19.8252 28.6711 20.0642 29.3965 20.4947 29.9488C20.9433 30.5244 21.5859 30.891 22.4447 30.891V30.391V29.891C21.9131 29.891 21.5545 29.6819 21.2834 29.334C20.9942 28.963 20.7948 28.4174 20.6689 27.7557C20.4159 26.4261 20.4962 24.8705 20.4962 23.8755H19.9962ZM22.4447 30.391V30.891C23.1986 30.891 23.9756 30.4489 24.5971 29.9813C25.2402 29.4976 25.8165 28.9099 26.1871 28.4738L25.8062 28.15L25.4252 27.8262C25.0903 28.2202 24.5668 28.7529 23.996 29.1822C23.4038 29.6277 22.8527 29.891 22.4447 29.891V30.391ZM25.8062 28.15L26.2222 28.4274C26.3976 28.1643 26.5967 27.8091 26.5967 27.403H26.0967H25.5967C25.5967 27.4949 25.5467 27.6378 25.3901 27.8727L25.8062 28.15ZM26.0967 27.403H26.5967V18.4805H26.0967H25.5967V27.403H26.0967ZM26.0967 18.4805H26.5967C26.5967 17.7112 26.5814 16.9434 26.3635 16.352C26.2489 16.0409 26.0706 15.7538 25.7914 15.536C25.5121 15.318 25.1693 15.199 24.7753 15.1608L24.7272 15.6585L24.679 16.1562C24.9282 16.1803 25.0783 16.248 25.1763 16.3244C25.2745 16.401 25.3582 16.5159 25.4252 16.6977C25.5704 17.0919 25.5967 17.6728 25.5967 18.4805H26.0967ZM24.7272 15.6585L24.7979 15.1635C24.6601 15.1439 24.6183 15.0776 24.6104 15.0578L24.1462 15.2435L23.6819 15.4292C23.84 15.8244 24.2132 16.0902 24.6564 16.1535L24.7272 15.6585ZM24.1462 15.2435L24.6205 15.0854C24.6145 15.0674 24.6137 15.0572 24.6136 15.0527C24.6135 15.0482 24.6139 15.0425 24.6165 15.0333C24.6227 15.0116 24.6423 14.9672 24.7026 14.8919L24.3122 14.5795L23.9217 14.2672C23.7025 14.5412 23.5131 14.9254 23.6718 15.4016L24.1462 15.2435ZM24.3122 14.5795L24.6769 14.9215C24.9356 14.6455 25.4011 14.3132 25.9393 14.0318C26.4777 13.7502 27.0298 13.5506 27.4452 13.4986L27.3832 13.0025L27.3211 12.5064C26.7405 12.5789 26.0684 12.8358 25.4759 13.1456C24.8832 13.4555 24.3112 13.8495 23.9474 14.2375L24.3122 14.5795ZM27.3832 13.0025L27.5413 13.4769C27.5344 13.4791 27.5361 13.4778 27.5472 13.4766C27.5574 13.4754 27.5713 13.4748 27.5872 13.4757C27.6218 13.4777 27.6465 13.4857 27.6576 13.4912L27.8812 13.044L28.1048 12.5968C27.8124 12.4506 27.4669 12.4476 27.225 12.5282L27.3832 13.0025ZM27.8812 13.044L27.7599 13.5291C27.7851 13.5354 27.7983 13.5433 27.8046 13.5478C27.8106 13.5522 27.8157 13.5574 27.8207 13.5658C27.8309 13.5827 27.8521 13.6337 27.8407 13.7358L28.3377 13.791L28.8346 13.8462C28.8648 13.5748 28.8237 13.2938 28.6782 13.0513C28.5287 12.8021 28.2903 12.6309 28.0024 12.5589L27.8812 13.044ZM28.3377 13.791H27.8377C27.8377 14.3204 27.8173 14.9235 27.7964 15.5378C27.7758 16.1477 27.7547 16.7689 27.7547 17.3185H28.2547H28.7547C28.7547 16.7891 28.775 16.186 28.7959 15.5717C28.8165 14.9618 28.8377 14.3406 28.8377 13.791H28.3377ZM28.2547 17.3185H27.7547V27.569H28.2547H28.7547V17.3185H28.2547ZM28.2547 27.569H27.7547C27.7547 28.2709 27.8071 28.9619 27.9466 29.5083C28.0161 29.7806 28.1142 30.0455 28.2588 30.2624C28.4054 30.4823 28.6253 30.6883 28.9384 30.7554L29.0432 30.2665L29.1479 29.7776C29.1706 29.7825 29.1466 29.7913 29.0909 29.7077C29.0332 29.6212 28.9705 29.4763 28.9155 29.2609C28.806 28.8321 28.7547 28.2366 28.7547 27.569H28.2547ZM29.0432 30.2665L28.8995 30.7454C29.2161 30.8404 29.5198 30.8245 29.8172 30.7039C30.0925 30.5924 30.3422 30.3988 30.583 30.18L30.2467 29.81L29.9103 29.44C29.6946 29.6362 29.5501 29.7332 29.4415 29.7772C29.355 29.8123 29.2852 29.8171 29.1868 29.7876L29.0432 30.2665ZM30.2467 29.81L30.6002 30.1636C30.6219 30.1419 30.6455 30.1335 30.6623 30.1323C30.6703 30.1317 30.6776 30.1326 30.6847 30.1348C30.6914 30.1369 30.7017 30.1415 30.7151 30.1526L31.0352 29.7685L31.3552 29.3844C30.8881 28.9951 30.2649 29.0846 29.8931 29.4565L30.2467 29.81ZM37.6317 40.2265L37.582 40.724L37.5864 40.7245L37.6317 40.2265ZM37.5072 41.596L37.4809 42.0953L37.4941 42.096H37.5072V41.596ZM32.5687 41.5545V41.0545H32.5479L32.5272 41.0562L32.5687 41.5545ZM32.3612 40.2265L32.411 40.724L32.4236 40.7228L32.4361 40.7209L32.3612 40.2265ZM32.4027 15.6585L32.332 16.1535L32.3387 16.1544L32.4027 15.6585ZM31.9877 14.621L32.3413 14.9746L32.3523 14.9635L32.3626 14.9518L31.9877 14.621ZM35.0587 13.0025L35.1207 13.4986L35.1699 13.4925L35.2168 13.4769L35.0587 13.0025ZM35.5567 13.044L35.7323 12.5758L35.7056 12.5658L35.678 12.5589L35.5567 13.044ZM36.0132 13.791L35.5163 13.7358L35.5132 13.7633V13.791H36.0132ZM35.9717 15.285L35.4734 15.2435L35.4717 15.2642V15.285H35.9717ZM36.3452 15.4095L36.6988 15.7631L36.7229 15.7389L36.7436 15.7117L36.3452 15.4095ZM36.4282 32.0095L36.7056 31.5935L36.6957 31.5869L36.6855 31.5808L36.4282 32.0095ZM35.9302 18.024H35.4302V27.3615H35.9302H36.4302V18.024H35.9302ZM35.9302 27.3615H35.4302C35.4302 28.1915 35.6186 29.2409 36.1812 30.0996C36.7618 30.9858 37.7247 31.638 39.1672 31.638V31.138V30.638C38.0782 30.638 37.4226 30.1697 37.0176 29.5516C36.5946 28.9059 36.4302 28.067 36.4302 27.3615H35.9302ZM39.1672 31.138V31.638C40.2479 31.638 41.1296 31.2917 41.8297 30.7057C42.5208 30.1272 43.0115 29.3353 43.3605 28.4724C44.0554 26.7543 44.2322 24.6444 44.2322 23.004H43.7322H43.2322C43.2322 24.6006 43.0562 26.5577 42.4335 28.0974C42.1237 28.8633 41.7144 29.498 41.1878 29.9389C40.6701 30.3722 40.0163 30.638 39.1672 30.638V31.138ZM43.7322 23.004H44.2322C44.2322 21.7808 44.0199 19.7906 43.3121 18.0864C42.6065 16.3877 41.335 14.8265 39.1672 14.8265V15.3265V15.8265C40.7344 15.8265 41.7454 16.9213 42.3886 18.47C43.0295 20.0132 43.2322 21.8617 43.2322 23.004H43.7322ZM39.1672 15.3265V14.8265C38.2718 14.8265 37.3532 15.2536 36.6684 15.8243C35.996 16.3846 35.4302 17.1861 35.4302 18.024H35.9302H36.4302C36.4302 17.6169 36.7359 17.0697 37.3086 16.5925C37.8687 16.1257 38.5686 15.8265 39.1672 15.8265V15.3265ZM35.9302 32.217H35.4302V37.6535H35.9302H36.4302V32.217H35.9302ZM35.9302 37.6535H35.4302C35.4302 38.0341 35.4324 38.4007 35.4651 38.7294C35.4978 39.0584 35.5638 39.3858 35.7123 39.6793C36.0392 40.3254 36.6672 40.6326 37.582 40.724L37.6317 40.2265L37.6815 39.729C36.9362 39.6545 36.7134 39.4429 36.6046 39.2278C36.5353 39.0908 36.4871 38.902 36.4602 38.6306C36.4332 38.3588 36.4302 38.0407 36.4302 37.6535H35.9302ZM37.6317 40.2265L37.5864 40.7245C37.7172 40.7363 37.7781 40.7791 37.8021 40.8031C37.8252 40.8263 37.8372 40.8537 37.8372 40.8905H38.3372H38.8372C38.8372 40.26 38.3493 39.7897 37.677 39.7286L37.6317 40.2265ZM38.3372 40.8905H37.8372C37.8372 40.9553 37.8155 40.9919 37.7836 41.0193C37.7457 41.0517 37.661 41.096 37.5072 41.096V41.596V42.096C37.8514 42.096 38.1817 41.9951 38.4344 41.7785C38.6929 41.5569 38.8372 41.2407 38.8372 40.8905H38.3372ZM37.5072 41.596L37.5335 41.0967C36.7453 41.0552 35.8619 41.013 35.0587 41.013V41.513V42.013C35.8326 42.013 36.6921 42.0538 37.4809 42.0953L37.5072 41.596ZM35.0587 41.513V41.013C34.6572 41.013 34.2255 41.0236 33.8015 41.0339C33.3748 41.0443 32.9557 41.0545 32.5687 41.0545V41.5545V42.0545C32.9702 42.0545 33.4019 42.044 33.8259 42.0336C34.2526 42.0232 34.6717 42.013 35.0587 42.013V41.513ZM32.5687 41.5545L32.5272 41.0562C32.4 41.0668 32.3101 41.0289 32.2586 40.9877C32.2049 40.9448 32.1972 40.9052 32.1972 40.8905H31.6972H31.1972C31.1972 41.6223 31.8906 42.1128 32.6102 42.0528L32.5687 41.5545ZM31.6972 40.8905H32.1972C32.1972 40.8525 32.2103 40.8209 32.2349 40.7952C32.2591 40.7699 32.3108 40.7341 32.411 40.724L32.3612 40.2265L32.3115 39.729C31.6659 39.7935 31.1972 40.2772 31.1972 40.8905H31.6972ZM32.3612 40.2265L32.4361 40.7209C32.8387 40.6599 33.1814 40.532 33.4592 40.3238C33.7402 40.1133 33.9249 39.8432 34.0441 39.5468C34.2687 38.9885 34.2722 38.2926 34.2722 37.6535H33.7722H33.2722C33.2722 38.3424 33.2549 38.8292 33.1164 39.1736C33.0541 39.3285 32.9716 39.4396 32.8596 39.5235C32.7446 39.6097 32.5684 39.6894 32.2863 39.7322L32.3612 40.2265ZM33.7722 37.6535H34.2722V18.4805H33.7722H33.2722V37.6535H33.7722ZM33.7722 18.4805H34.2722C34.2722 17.7306 34.2568 16.9741 34.0391 16.3831C33.9248 16.073 33.7481 15.7863 33.4736 15.5646C33.1988 15.3426 32.86 15.2134 32.4667 15.1626L32.4027 15.6585L32.3387 16.1544C32.5886 16.1866 32.7427 16.2597 32.8453 16.3425C32.9482 16.4256 33.0334 16.5461 33.1007 16.7288C33.2461 17.1234 33.2722 17.695 33.2722 18.4805H33.7722ZM32.4027 15.6585L32.4734 15.1635C32.3357 15.1439 32.2939 15.0776 32.2859 15.0578L31.8217 15.2435L31.3575 15.4292C31.5155 15.8244 31.8888 16.0902 32.332 16.1535L32.4027 15.6585ZM31.8217 15.2435L32.2859 15.0578C32.2925 15.0743 32.2859 15.0759 32.2921 15.0541C32.2986 15.0312 32.3151 15.0008 32.3413 14.9746L31.9877 14.621L31.6342 14.2675C31.372 14.5296 31.179 14.983 31.3575 15.4292L31.8217 15.2435ZM31.9877 14.621L32.3626 14.9518C32.6194 14.6608 33.0813 14.3209 33.618 14.0353C34.1543 13.7499 34.7058 13.5505 35.1207 13.4986L35.0587 13.0025L34.9967 12.5064C34.4156 12.579 33.7429 12.8361 33.1483 13.1525C32.5541 13.4687 31.9785 13.8757 31.6128 14.2902L31.9877 14.621ZM35.0587 13.0025L35.2168 13.4769C35.1878 13.4865 35.1728 13.4857 35.1821 13.4854C35.1896 13.4851 35.2063 13.4855 35.2337 13.4887C35.2899 13.4953 35.3589 13.5099 35.4354 13.5291L35.5567 13.044L35.678 12.5589C35.5886 12.5366 35.4707 12.5097 35.3506 12.4956C35.2439 12.483 35.0705 12.4715 34.9006 12.5282L35.0587 13.0025ZM35.5567 13.044L35.3811 13.5122C35.4699 13.5455 35.4945 13.5787 35.501 13.5891C35.5069 13.5985 35.5274 13.6355 35.5163 13.7358L36.0132 13.791L36.5102 13.8462C36.5405 13.573 36.4988 13.2988 36.349 13.0591C36.1999 12.8206 35.9755 12.667 35.7323 12.5758L35.5567 13.044ZM36.0132 13.791H35.5132C35.5132 14.3335 35.5129 14.7695 35.4734 15.2435L35.9717 15.285L36.47 15.3265C36.5135 14.8045 36.5132 14.3275 36.5132 13.791H36.0132ZM35.9717 15.285H35.4717C35.4717 15.6522 35.7457 15.8612 35.9537 15.9305C36.1652 16.0011 36.4715 15.9903 36.6988 15.7631L36.3452 15.4095L35.9917 15.056C36.0944 14.9532 36.2139 14.9632 36.2699 14.9819C36.3222 14.9993 36.4717 15.0839 36.4717 15.285H35.9717ZM36.3452 15.4095L36.7436 15.7117C37.6234 14.5519 38.988 13.5025 40.3292 13.5025V13.0025V12.5025C38.5164 12.5025 36.893 13.8601 35.9469 15.1073L36.3452 15.4095ZM40.3292 13.0025V13.5025C42.2602 13.5025 43.5347 14.9463 44.3503 16.8847C45.1594 18.8075 45.4317 21.042 45.4317 22.2155H45.9317H46.4317C46.4317 20.9405 46.1438 18.5686 45.2721 16.4969C44.407 14.441 42.8802 12.5025 40.3292 12.5025V13.0025ZM45.9317 22.2155H45.4317C45.4317 23.7914 45.0186 26.3374 43.954 28.4715C42.8904 30.6036 41.2418 32.215 38.7937 32.215V32.715V33.215C41.7821 33.215 43.7025 31.2159 44.8488 28.9179C45.9941 26.6219 46.4317 23.9181 46.4317 22.2155H45.9317ZM38.7937 32.715V32.215C37.9759 32.215 37.3675 32.0348 36.7056 31.5935L36.4282 32.0095L36.1509 32.4255C36.9829 32.9802 37.7855 33.215 38.7937 33.215V32.715ZM36.4282 32.0095L36.6855 31.5808C36.4579 31.4442 36.1756 31.413 35.9285 31.504C35.6584 31.6035 35.4302 31.8576 35.4302 32.217H35.9302H36.4302C36.4302 32.2567 36.4169 32.311 36.3796 32.361C36.3446 32.408 36.3031 32.4318 36.2743 32.4424C36.2243 32.4608 36.1911 32.4503 36.171 32.4383L36.4282 32.0095ZM61.0504 30.723L61.1484 30.2327L61.1384 30.2307L61.1283 30.2291L61.0504 30.723ZM60.8014 32.0925L60.7702 32.5915L60.7857 32.5925H60.8014V32.0925ZM56.2779 32.0925V32.5925H56.2925L56.3072 32.5916L56.2779 32.0925ZM56.1119 30.723L56.0391 30.2283L56.0264 30.2302L56.0138 30.2327L56.1119 30.723ZM52.5844 30.723L52.6824 30.2325L52.6688 30.2302L52.5844 30.723ZM53.2069 31.4285L53.7038 31.4837L53.7069 31.4562V31.4285H53.2069ZM52.3769 32.0925L52.3457 32.5915L52.3612 32.5925H52.3769V32.0925ZM47.9364 32.0925V32.5925H47.951L47.9657 32.5916L47.9364 32.0925ZM47.0649 31.4285L47.5625 31.3787L47.561 31.3665L47.0649 31.4285ZM47.6044 30.723L47.5199 30.2302L47.5078 30.2323L47.4959 30.2349L47.6044 30.723ZM47.2309 3.49901L47.1601 3.99398L47.1733 3.99587L47.1866 3.99704L47.2309 3.49901ZM46.6499 3.08401L46.1856 3.2697L46.6499 3.08401ZM46.8159 2.42001L46.4623 2.06645L46.4623 2.06646L46.8159 2.42001ZM50.3019 0.511007L50.3898 1.00333L50.3999 1.0013L50.3019 0.511007ZM50.9244 0.635509L51.148 0.188295L51.148 0.188294L50.9244 0.635509ZM51.2979 1.21651L50.8076 1.11845L50.801 1.1511L50.7989 1.18432L51.2979 1.21651ZM51.5469 16.2395L51.1327 15.9593L51.1308 15.9622L51.5469 16.2395ZM61.0504 30.723L60.9523 31.2133C61.0829 31.2394 61.1324 31.2816 61.1473 31.298C61.1579 31.3097 61.1729 31.3306 61.1729 31.387H61.6729H62.1729C62.1729 31.1114 62.084 30.8418 61.8872 30.6253C61.6946 30.4134 61.4328 30.2896 61.1484 30.2327L61.0504 30.723ZM61.6729 31.387H61.1729C61.1729 31.4196 61.16 31.4606 61.1129 31.5011C61.0653 31.5422 60.9682 31.5925 60.8014 31.5925V32.0925V32.5925C61.5448 32.5925 62.1729 32.1037 62.1729 31.387H61.6729ZM60.8014 32.0925L60.8325 31.5935C60.1496 31.5508 59.2191 31.551 58.5189 31.551V32.051V32.551C59.2297 32.551 60.1251 32.5512 60.7702 32.5915L60.8014 32.0925ZM58.5189 32.051V31.551C57.817 31.551 56.9715 31.5508 56.2485 31.5934L56.2779 32.0925L56.3072 32.5916C56.9952 32.5512 57.8097 32.551 58.5189 32.551V32.051ZM56.2779 32.0925V31.5925C56.0946 31.5925 56.0225 31.5439 56.0002 31.5233C55.9828 31.5071 55.9479 31.4649 55.9479 31.3455H55.4479H54.9479C54.9479 31.6826 55.0582 32.0139 55.3208 32.2571C55.5787 32.4958 55.9216 32.5925 56.2779 32.5925V32.0925ZM55.4479 31.3455H55.9479C55.9479 31.3451 55.9479 31.3453 55.9478 31.3458C55.9477 31.3462 55.9477 31.3459 55.9483 31.3446C55.9493 31.3423 55.9542 31.3327 55.9695 31.3181C56.0013 31.2878 56.0747 31.2403 56.2099 31.2133L56.1119 30.723L56.0138 30.2327C55.4756 30.3404 54.9479 30.7196 54.9479 31.3455H55.4479ZM56.1119 30.723L56.1846 31.2177C56.6169 31.1541 56.9742 30.9977 57.2515 30.745C57.5265 30.4942 57.6878 30.1806 57.7839 29.8603C57.9662 29.2526 57.9399 28.5032 57.9399 27.901H57.4399H56.9399C56.9399 28.5853 56.955 29.1432 56.8261 29.573C56.7665 29.7714 56.684 29.9091 56.5778 30.0059C56.4738 30.1008 56.3123 30.1882 56.0391 30.2283L56.1119 30.723ZM57.4399 27.901H57.9399V21.842H57.4399H56.9399V27.901H57.4399ZM57.4399 21.842H57.9399C57.9399 21.0576 58.0366 19.4093 57.7373 17.9835C57.5865 17.2655 57.3255 16.5449 56.8571 15.9965C56.3715 15.4279 55.688 15.0755 54.7839 15.0755V15.5755V16.0755C55.3944 16.0755 55.8004 16.299 56.0967 16.6459C56.4104 17.0131 56.624 17.5479 56.7586 18.189C57.0299 19.4815 56.9399 20.9664 56.9399 21.842H57.4399ZM54.7839 15.5755V15.0755C54.3357 15.0755 53.8593 15.2608 53.4286 15.5073C52.9871 15.76 52.5425 16.1065 52.1464 16.4944C51.7503 16.8821 51.3901 17.3235 51.1256 17.7731C50.866 18.2145 50.6734 18.707 50.6734 19.186H51.1734H51.6734C51.6734 18.9595 51.7712 18.6479 51.9876 18.2801C52.1991 17.9205 52.5002 17.5474 52.846 17.2089C53.1916 16.8705 53.5693 16.579 53.9253 16.3752C54.2922 16.1652 54.5887 16.0755 54.7839 16.0755V15.5755ZM51.1734 19.186H50.6734V27.901H51.1734H51.6734V19.186H51.1734ZM51.1734 27.901H50.6734C50.6734 28.4911 50.6571 29.2294 50.8594 29.8422C50.9654 30.1635 51.1373 30.4743 51.418 30.725C51.7 30.9768 52.0609 31.1406 52.4999 31.2158L52.5844 30.723L52.6688 30.2302C52.3816 30.181 52.203 30.0853 52.0842 29.9792C51.9642 29.872 51.8742 29.7263 51.809 29.5288C51.6688 29.1041 51.6734 28.5559 51.6734 27.901H51.1734ZM52.5844 30.723L52.4863 31.2133C52.6167 31.2394 52.6613 31.2804 52.6739 31.2949C52.6836 31.306 52.7069 31.3374 52.7069 31.4285H53.2069H53.7069C53.7069 31.1462 53.6264 30.8663 53.4285 30.6387C53.2337 30.4146 52.967 30.2896 52.6824 30.2327L52.5844 30.723ZM53.2069 31.4285L52.7099 31.3733C52.702 31.4441 52.6742 31.4898 52.6388 31.52C52.6033 31.5502 52.527 31.5925 52.3769 31.5925V32.0925V32.5925C52.7248 32.5925 53.0427 32.4896 53.2873 32.2812C53.532 32.0727 53.6702 31.7864 53.7038 31.4837L53.2069 31.4285ZM52.3769 32.0925L52.408 31.5935C51.7251 31.5508 50.7947 31.551 50.1359 31.551V32.051V32.551C50.805 32.551 51.7006 32.5512 52.3457 32.5915L52.3769 32.0925ZM50.1359 32.051V31.551C49.4336 31.551 48.6299 31.5508 47.907 31.5934L47.9364 32.0925L47.9657 32.5916C48.6538 32.5512 49.4271 32.551 50.1359 32.551V32.051ZM47.9364 32.0925V31.5925C47.7954 31.5925 47.6964 31.5538 47.6407 31.5129C47.5921 31.4773 47.5681 31.4364 47.5624 31.3788L47.0649 31.4285L46.5673 31.4783C46.6431 32.2355 47.3205 32.5925 47.9364 32.5925V32.0925ZM47.0649 31.4285L47.561 31.3665C47.5557 31.3244 47.5661 31.2995 47.579 31.2824C47.5927 31.2641 47.6288 31.2298 47.7128 31.2111L47.6044 30.723L47.4959 30.2349C46.8971 30.368 46.492 30.8766 46.5687 31.4905L47.0649 31.4285ZM47.6044 30.723L47.6888 31.2158C48.1335 31.1396 48.4961 30.9676 48.7772 30.7074C49.0558 30.4496 49.2256 30.1319 49.3303 29.8083C49.5312 29.1872 49.5154 28.4523 49.5154 27.901H49.0154H48.5154C48.5154 28.5117 48.5203 29.0633 48.3788 29.5005C48.3123 29.706 48.2201 29.8604 48.098 29.9735C47.9783 30.0842 47.8014 30.1819 47.5199 30.2302L47.6044 30.723ZM49.0154 27.901H49.5154V6.32101H49.0154H48.5154V27.901H49.0154ZM49.0154 6.32101H49.5154C49.5154 5.74353 49.545 4.95982 49.2873 4.3189C49.1501 3.97752 48.9287 3.66189 48.5807 3.42279C48.2372 3.1868 47.8033 3.04792 47.2751 3.00097L47.2309 3.49901L47.1866 3.99704C47.5921 4.03309 47.8482 4.13284 48.0144 4.24701C48.176 4.35806 48.284 4.50413 48.3595 4.69186C48.5272 5.1092 48.5154 5.65349 48.5154 6.32101H49.0154ZM47.2309 3.49901L47.3016 3.00403C47.1638 2.98435 47.122 2.91815 47.1141 2.89831L46.6499 3.08401L46.1856 3.2697C46.3437 3.66487 46.7169 3.93067 47.1601 3.99398L47.2309 3.49901ZM46.6499 3.08401L47.1141 2.89831C47.1096 2.88699 47.1084 2.8762 47.1115 2.86282C47.1145 2.84952 47.1256 2.8174 47.1694 2.77356L46.8159 2.42001L46.4623 2.06646C46.1254 2.40332 46.0222 2.86115 46.1856 3.2697L46.6499 3.08401ZM46.8159 2.42001L47.1694 2.77356C47.5238 2.41921 48.0652 2.01989 48.6638 1.68352C49.2647 1.3458 49.8843 1.09349 50.3898 1.00322L50.3019 0.511007L50.214 0.0187936C49.5574 0.136031 48.8283 0.443971 48.1738 0.811749C47.517 1.18088 46.8964 1.63231 46.4623 2.06645L46.8159 2.42001ZM50.3019 0.511007L50.3999 1.0013C50.4083 0.999622 50.4447 0.996737 50.5129 1.01297C50.5773 1.02833 50.6448 1.05475 50.7008 1.08272L50.9244 0.635509L51.148 0.188294C50.9551 0.0918798 50.5796 -0.0544348 50.2038 0.0207167L50.3019 0.511007ZM50.9244 0.635509L50.7007 1.08272C50.7492 1.10693 50.784 1.14146 50.8008 1.16738C50.8086 1.17938 50.8085 1.18328 50.8069 1.17696C50.8052 1.17013 50.8014 1.1491 50.8076 1.11845L51.2979 1.21651L51.7881 1.31457C51.8418 1.04627 51.7546 0.799881 51.6393 0.622389C51.5212 0.440806 51.3485 0.288585 51.148 0.188295L50.9244 0.635509ZM51.2979 1.21651L50.7989 1.18432C50.7153 2.48039 50.6734 3.61168 50.6734 4.99301H51.1734H51.6734C51.6734 3.63533 51.7144 2.52563 51.7968 1.2487L51.2979 1.21651ZM51.1734 4.99301H50.6734V16.115H51.1734H51.6734V4.99301H51.1734ZM51.1734 16.115H50.6734C50.6734 16.2789 50.7234 16.4468 50.8415 16.5836C50.9562 16.7166 51.1037 16.7838 51.2368 16.8088C51.4658 16.8517 51.784 16.7852 51.9629 16.5169L51.5469 16.2395L51.1308 15.9622C51.1837 15.8829 51.2499 15.8491 51.2883 15.8357C51.3287 15.8215 51.3733 15.8169 51.4211 15.8259C51.4712 15.8353 51.541 15.8636 51.5986 15.9304C51.6596 16.0011 51.6734 16.0757 51.6734 16.115H51.1734ZM51.5469 16.2395L51.961 16.5197C52.4341 15.8203 52.9973 15.0539 53.6549 14.4641C54.3123 13.8743 55.0176 13.5025 55.7799 13.5025V13.0025V12.5025C54.6746 12.5025 53.7406 13.0437 52.9871 13.7197C52.2336 14.3956 51.6141 15.2477 51.1327 15.9594L51.5469 16.2395ZM55.7799 13.0025V13.5025C57.1183 13.5025 57.9416 14.4104 58.4537 15.698C58.9657 16.9853 59.0979 18.5124 59.0979 19.3935H59.5979H60.0979C60.0979 18.4486 59.9603 16.7802 59.3829 15.3285C58.8057 13.8771 57.7199 12.5025 55.7799 12.5025V13.0025ZM59.5979 19.3935H59.0979V27.901H59.5979H60.0979V19.3935H59.5979ZM59.5979 27.901H59.0979C59.0979 28.4726 59.06 29.2238 59.2565 29.8379C59.3612 30.1651 59.5378 30.4805 59.8339 30.7327C60.129 30.9841 60.5087 31.1437 60.9724 31.2169L61.0504 30.723L61.1283 30.2291C60.8035 30.1778 60.6074 30.078 60.4823 29.9715C60.3583 29.8658 60.2703 29.7247 60.2089 29.5331C60.0734 29.1097 60.0979 28.5744 60.0979 27.901H59.5979ZM73.8285 23.087L74.3282 23.0674L74.3276 23.0582L73.8285 23.087ZM68.9315 14.2475L68.9206 13.7476L68.9144 13.7478L68.9315 14.2475ZM65.1965 22.672L64.6973 22.7014L65.1965 22.672ZM70.052 31.4285L70.0405 30.9286L70.0351 30.9288L70.052 31.4285ZM73.8285 23.087L74.3276 23.0582C74.2639 21.9529 73.9891 19.667 73.2332 17.6513C72.8554 16.644 72.3448 15.669 71.651 14.9444C70.9471 14.2093 70.0434 13.7232 68.9206 13.7476L68.9315 14.2475L68.9423 14.7474C69.7285 14.7303 70.3759 15.0586 70.9287 15.636C71.4916 16.2238 71.9432 17.0593 72.2969 18.0024C73.0039 19.8878 73.2686 22.0631 73.3293 23.1158L73.8285 23.087ZM68.9315 14.2475L68.9144 13.7478C66.7266 13.8224 65.6664 15.725 65.165 17.5825C64.6527 19.481 64.6335 21.6158 64.6973 22.7014L65.1965 22.672L65.6956 22.6426C65.635 21.6117 65.6573 19.5965 66.1305 17.843C66.6148 16.0485 67.4843 14.7971 68.9485 14.7472L68.9315 14.2475ZM65.1965 22.672L64.6973 22.7014C64.7614 23.7902 65.0578 26.0648 65.8184 28.0681C66.1984 29.0691 66.7075 30.0378 67.3905 30.7552C68.0831 31.4827 68.9709 31.9652 70.0688 31.9282L70.052 31.4285L70.0351 30.9288C69.2863 30.954 68.6593 30.6377 68.1147 30.0657C67.5605 29.4836 67.1099 28.6523 66.7533 27.7132C66.0407 25.8362 65.7561 23.6703 65.6956 22.6426L65.1965 22.672ZM70.052 31.4285L70.0635 31.9284C71.1288 31.9039 71.9492 31.4246 72.5572 30.7124C73.1531 30.0143 73.5456 29.0949 73.807 28.1542C74.3301 26.272 74.3705 24.1485 74.3281 23.0674L73.8285 23.087L73.3288 23.1066C73.3695 24.142 73.3268 26.1477 72.8435 27.8864C72.6018 28.7562 72.2602 29.5201 71.7966 30.0631C71.3451 30.5921 70.7804 30.9116 70.0405 30.9286L70.052 31.4285ZM76.3185 22.7965H75.8185C75.8185 24.2257 75.4266 26.6389 74.4321 28.6778C73.4359 30.7204 71.9092 32.2565 69.6785 32.2565V32.7565V33.2565C72.4693 33.2565 74.2625 31.3067 75.3309 29.1162C76.4011 26.9221 76.8185 24.3553 76.8185 22.7965H76.3185ZM69.6785 32.7565V32.2565C67.1651 32.2565 65.5545 30.7819 64.5455 28.8426C63.5284 26.8879 63.165 24.5236 63.165 22.9625H62.665H62.165C62.165 24.6384 62.5485 27.1711 63.6583 29.3042C64.7762 31.4526 66.6723 33.2565 69.6785 33.2565V32.7565ZM62.665 22.9625H63.165C63.165 21.5069 63.5278 19.094 64.5057 17.0634C65.4831 15.0337 67.008 13.5025 69.305 13.5025V13.0025V12.5025C66.4559 12.5025 64.6608 14.4365 63.6047 16.6295C62.5491 18.8215 62.165 21.3886 62.165 22.9625H62.665ZM69.305 13.0025V13.5025C71.8632 13.5025 73.472 14.9705 74.4684 16.8995C75.4743 18.8469 75.8185 21.2105 75.8185 22.7965H76.3185H76.8185C76.8185 21.104 76.4571 18.5706 75.3569 16.4406C74.2472 14.2922 72.3493 12.5025 69.305 12.5025V13.0025ZM84.5442 30.723L84.5895 30.2251L84.5807 30.2243L84.572 30.2238L84.5442 30.723ZM85.2912 31.4285L85.7882 31.4837L85.7912 31.4562V31.4285H85.2912ZM84.4612 32.051L84.4362 32.5504L84.4487 32.551H84.4612V32.051ZM78.6512 32.051V32.551H78.6608L78.6704 32.5506L78.6512 32.051ZM78.5267 30.6815L78.473 30.1844L78.4454 30.1874L78.4183 30.1934L78.5267 30.6815ZM78.7342 15.617L78.6635 16.112L78.6681 16.1126L78.7342 15.617ZM78.1532 15.202L78.6435 15.104L78.6265 15.019L78.582 14.9448L78.1532 15.202ZM78.2777 14.5795L78.6313 14.9331L78.6423 14.922L78.6526 14.9103L78.2777 14.5795ZM81.3487 12.961V12.461H81.3073L81.2665 12.4678L81.3487 12.961ZM81.8467 13.0025L82.0223 12.5343L81.9956 12.5243L81.968 12.5174L81.8467 13.0025ZM82.3447 13.791L82.8441 13.816L82.8447 13.8035V13.791H82.3447ZM82.2617 16.032L82.7549 16.1142L82.7617 16.0734V16.032H82.2617ZM82.6352 16.198L82.2053 15.9427L82.1961 15.9583L82.188 15.9744L82.6352 16.198ZM86.1627 13.0025V13.5025C86.7271 13.5025 87.0413 13.7249 87.2325 13.9961C87.4416 14.2926 87.5302 14.6906 87.5302 15.036H88.0302H88.5302C88.5302 14.5514 88.4114 13.9327 88.0498 13.4199C87.6704 12.8818 87.0508 12.5025 86.1627 12.5025V13.0025ZM88.0302 15.036H87.5302C87.5302 15.2745 87.4528 15.7047 87.2728 16.0604C87.0893 16.4232 86.8793 16.5695 86.6607 16.5695V17.0695V17.5695C87.4381 17.5695 87.9129 17.0104 88.1651 16.512C88.4208 16.0065 88.5302 15.4201 88.5302 15.036H88.0302ZM86.6607 17.0695V16.5695C86.4432 16.5695 86.3328 16.463 86.0647 16.1055C85.8349 15.799 85.4472 15.2415 84.6687 15.2415V15.7415V16.2415C84.8863 16.2415 84.9966 16.348 85.2647 16.7055C85.4946 17.012 85.8823 17.5695 86.6607 17.5695V17.0695ZM84.6687 15.7415V15.2415C84.1759 15.2415 83.7424 15.455 83.3885 15.7495C83.0356 16.0432 82.7369 16.4369 82.4966 16.8581C82.02 17.6935 81.7202 18.7325 81.7202 19.5595H82.2202H82.7202C82.7202 18.934 82.9599 18.0641 83.3652 17.3536C83.5659 17.0018 83.7937 16.7133 84.0282 16.5181C84.2619 16.3237 84.4768 16.2415 84.6687 16.2415V15.7415ZM82.2202 19.5595H81.7202V27.901H82.2202H82.7202V19.5595H82.2202ZM82.2202 27.901H81.7202C81.7202 28.3746 81.7248 28.8119 81.772 29.1915C81.8194 29.573 81.9144 29.9414 82.1258 30.2585C82.5693 30.9237 83.3764 31.1589 84.5165 31.2222L84.5442 30.723L84.572 30.2238C83.4711 30.1626 83.1162 29.9413 82.9579 29.7038C82.8684 29.5696 82.8026 29.3753 82.7644 29.0681C82.726 28.7591 82.7202 28.3819 82.7202 27.901H82.2202ZM84.5442 30.723L84.499 31.221C84.6328 31.2331 84.7073 31.2781 84.7426 31.312C84.7746 31.3427 84.7912 31.3786 84.7912 31.4285H85.2912H85.7912C85.7912 30.7392 85.2423 30.2844 84.5895 30.2251L84.5442 30.723ZM85.2912 31.4285L84.7943 31.3733C84.7894 31.4175 84.7711 31.4504 84.7318 31.4798C84.6875 31.5131 84.6007 31.551 84.4612 31.551V32.051V32.551C85.0914 32.551 85.7104 32.1836 85.7882 31.4837L85.2912 31.4285ZM84.4612 32.051L84.4862 31.5516C83.6414 31.5094 82.7155 31.5095 81.8882 31.5095V32.0095V32.5095C82.7209 32.5095 83.621 32.5096 84.4362 32.5504L84.4612 32.051ZM81.8882 32.0095V31.5095C80.8524 31.5095 79.7222 31.5094 78.632 31.5514L78.6512 32.051L78.6704 32.5506C79.7382 32.5096 80.849 32.5095 81.8882 32.5095V32.0095ZM78.6512 32.051V31.551C78.4986 31.551 78.4274 31.5075 78.4015 31.4846C78.3791 31.4648 78.3627 31.4376 78.3627 31.387H77.8627H77.3627C77.3627 31.7099 77.4916 32.0148 77.7389 32.2336C77.9827 32.4492 78.3058 32.551 78.6512 32.551V32.051ZM77.8627 31.387H78.3627C78.3627 31.3426 78.3702 31.3182 78.3753 31.3062C78.3801 31.2946 78.3872 31.2836 78.4003 31.2711C78.4307 31.242 78.5005 31.1995 78.6352 31.1696L78.5267 30.6815L78.4183 30.1934C78.1794 30.2465 77.9172 30.3493 77.709 30.5484C77.487 30.7608 77.3627 31.0488 77.3627 31.387H77.8627ZM78.5267 30.6815L78.5805 31.1786C79.0252 31.1305 79.4021 31.0056 79.706 30.7875C80.0139 30.5665 80.2116 30.2751 80.3362 29.9552C80.5697 29.3555 80.5622 28.5932 80.5622 27.901H80.0622H79.5622C79.5622 28.6613 79.5547 29.2063 79.4044 29.5922C79.3371 29.7651 79.2468 29.8861 79.1229 29.9751C78.9949 30.0669 78.796 30.1495 78.473 30.1844L78.5267 30.6815ZM80.0622 27.901H80.5622V18.605H80.0622H79.5622V27.901H80.0622ZM80.0622 18.605H80.5622C80.5622 17.8313 80.5458 17.0428 80.3394 16.4238C80.2324 16.1028 80.0661 15.7989 79.8016 15.5606C79.5331 15.3188 79.1963 15.1742 78.8003 15.1214L78.7342 15.617L78.6681 16.1126C78.8946 16.1428 79.035 16.216 79.1323 16.3037C79.2335 16.3948 79.3214 16.5318 79.3908 16.74C79.5371 17.1792 79.5622 17.8018 79.5622 18.605H80.0622ZM78.7342 15.617L78.8049 15.122C78.7282 15.1111 78.6693 15.0847 78.6371 15.0621C78.6007 15.0367 78.6312 15.0423 78.6435 15.104L78.1532 15.202L77.6629 15.3001C77.7168 15.5692 77.8925 15.7616 78.0636 15.8814C78.2389 16.004 78.4497 16.0814 78.6635 16.112L78.7342 15.617ZM78.1532 15.202L78.582 14.9448C78.587 14.9531 78.5911 14.9646 78.5927 14.9764C78.5941 14.9872 78.5926 14.9926 78.5929 14.991C78.5934 14.989 78.5956 14.9815 78.6024 14.9699C78.6092 14.9583 78.6189 14.9455 78.6313 14.9331L78.2777 14.5795L77.9242 14.226C77.6671 14.4831 77.4371 14.9802 77.7245 15.4593L78.1532 15.202ZM78.2777 14.5795L78.6526 14.9103C78.9067 14.6224 79.3655 14.2931 79.9049 14.011C80.4406 13.7308 81.0013 13.5258 81.4309 13.4542L81.3487 12.961L81.2665 12.4678C80.7001 12.5622 80.0366 12.8137 79.4415 13.1249C78.8499 13.4342 78.2712 13.8312 77.9028 14.2487L78.2777 14.5795ZM81.3487 12.961V13.461C81.4118 13.461 81.4811 13.4611 81.5528 13.4653C81.6265 13.4697 81.6853 13.4775 81.7254 13.4876L81.8467 13.0025L81.968 12.5174C81.7316 12.4583 81.4602 12.461 81.3487 12.461V12.961ZM81.8467 13.0025L81.6712 13.4707C81.7566 13.5027 81.7852 13.5356 81.7991 13.5573C81.8162 13.584 81.8447 13.6482 81.8447 13.791H82.3447H82.8447C82.8447 13.5188 82.7903 13.251 82.6414 13.0183C82.4893 12.7807 82.2688 12.6268 82.0223 12.5343L81.8467 13.0025ZM82.3447 13.791L81.8453 13.766C81.8043 14.5875 81.7617 15.2274 81.7617 16.032H82.2617H82.7617C82.7617 15.2596 82.8022 14.6545 82.8441 13.816L82.3447 13.791ZM82.2617 16.032L81.7685 15.9498C81.7008 16.3562 81.9615 16.6455 82.2354 16.7421C82.46 16.8214 82.8859 16.8146 83.0824 16.4216L82.6352 16.198L82.188 15.9744C82.2398 15.8708 82.3295 15.8155 82.4026 15.7953C82.4691 15.7768 82.526 15.7843 82.5682 15.7991C82.612 15.8146 82.6665 15.8478 82.708 15.9105C82.7542 15.9805 82.7644 16.0575 82.7549 16.1142L82.2617 16.032ZM82.6352 16.198L83.0651 16.4533C83.4446 15.8142 83.9913 15.0507 84.5828 14.4544C84.8784 14.1563 85.1737 13.9117 85.4538 13.7442C85.7369 13.5749 85.974 13.5025 86.1627 13.5025V13.0025V12.5025C85.729 12.5025 85.3124 12.6636 84.9406 12.8859C84.5658 13.1101 84.2049 13.4153 83.8728 13.7502C83.2088 14.4196 82.6143 15.2539 82.2053 15.9427L82.6352 16.198ZM94.8949 30.6815L94.993 30.1912L94.9814 30.1889L94.9698 30.1872L94.8949 30.6815ZM94.6874 32.051L94.658 32.5501L94.6727 32.551H94.6874V32.051ZM90.2884 32.051V32.551H90.3031L90.3178 32.5501L90.2884 32.051ZM89.9979 30.6815L89.9252 30.1868L89.9072 30.1895L89.8894 30.1934L89.9979 30.6815ZM90.0394 15.617L89.9687 16.112L89.9733 16.1126L90.0394 15.617ZM89.4584 15.202L89.9226 15.0163L89.4584 15.202ZM89.6244 14.5795L89.9368 14.9699L89.9706 14.9428L89.9993 14.9103L89.6244 14.5795ZM92.6954 12.961L92.7574 13.4571L92.8424 13.4465L92.919 13.4082L92.6954 12.961ZM93.1934 13.0025L93.369 12.5343L93.3423 12.5243L93.3147 12.5174L93.1934 13.0025ZM93.6499 13.7495L94.1497 13.7651L94.1499 13.7573V13.7495H93.6499ZM93.7744 4.91001H93.2744C93.2744 5.71988 92.6198 6.36051 91.8654 6.36051V6.86051V7.36051C93.186 7.36051 94.2744 6.25814 94.2744 4.91001H93.7744ZM91.8654 6.86051V6.36051C91.0625 6.36051 90.4149 5.71287 90.4149 4.91001H89.9149H89.4149C89.4149 6.26515 90.5103 7.36051 91.8654 7.36051V6.86051ZM89.9149 4.91001H90.4149C90.4149 4.15561 91.0555 3.50101 91.8654 3.50101V3.00101V2.50101C90.5173 2.50101 89.4149 3.58941 89.4149 4.91001H89.9149ZM91.8654 3.00101V3.50101C92.6268 3.50101 93.2744 4.14865 93.2744 4.91001H93.7744H94.2744C94.2744 3.59637 93.179 2.50101 91.8654 2.50101V3.00101ZM94.8949 30.6815L94.7968 31.1718C94.9275 31.1979 94.9769 31.2401 94.9918 31.2565C95.0025 31.2682 95.0174 31.2891 95.0174 31.3455H95.5174H96.0174C96.0174 31.0699 95.9286 30.8003 95.7318 30.5838C95.5391 30.3719 95.2773 30.2481 94.993 30.1912L94.8949 30.6815ZM95.5174 31.3455H95.0174C95.0174 31.3911 95.0008 31.4306 94.9548 31.4687C94.9036 31.511 94.8124 31.551 94.6874 31.551V32.051V32.551C95.3273 32.551 96.0174 32.121 96.0174 31.3455H95.5174ZM94.6874 32.051L94.7168 31.5519C93.9939 31.5093 93.1901 31.5095 92.4879 31.5095V32.0095V32.5095C93.1967 32.5095 93.9699 32.5097 94.658 32.5501L94.6874 32.051ZM92.4879 32.0095V31.5095C91.7857 31.5095 90.9819 31.5093 90.259 31.5519L90.2884 32.051L90.3178 32.5501C91.0059 32.5097 91.7791 32.5095 92.4879 32.5095V32.0095ZM90.2884 32.051V31.551C90.1614 31.551 90.0535 31.5096 89.9875 31.4585C89.9262 31.411 89.9169 31.3716 89.9169 31.3455H89.4169H88.9169C88.9169 32.1481 89.6823 32.551 90.2884 32.551V32.051ZM89.4169 31.3455H89.9169C89.9169 31.3015 89.9495 31.2045 90.1064 31.1696L89.9979 30.6815L89.8894 30.1934C89.2993 30.3246 88.9169 30.8085 88.9169 31.3455H89.4169ZM89.9979 30.6815L90.0706 31.1762C90.4908 31.1144 90.8422 30.9753 91.1211 30.7503C91.4015 30.5242 91.5756 30.2378 91.6829 29.936C91.8846 29.3686 91.8674 28.6733 91.8674 28.1085H91.3674H90.8674C90.8674 28.7472 90.8709 29.2347 90.7407 29.601C90.682 29.7661 90.6019 29.8844 90.4932 29.972C90.3831 30.0609 90.2105 30.1449 89.9252 30.1868L89.9979 30.6815ZM91.3674 28.1085H91.8674V18.439H91.3674H90.8674V28.1085H91.3674ZM91.3674 18.439H91.8674C91.8674 17.6883 91.8517 16.9346 91.641 16.346C91.5307 16.0378 91.3598 15.7509 91.0922 15.5279C90.8235 15.304 90.4913 15.1728 90.1055 15.1214L90.0394 15.617L89.9733 16.1126C90.21 16.1442 90.3551 16.2153 90.452 16.2962C90.5502 16.3779 90.6334 16.4983 90.6995 16.6829C90.8416 17.0799 90.8674 17.6543 90.8674 18.439H91.3674ZM90.0394 15.617L90.1101 15.122C89.9723 15.1024 89.9306 15.0361 89.9226 15.0163L89.4584 15.202L88.9942 15.3877C89.1522 15.7829 89.5255 16.0487 89.9687 16.112L90.0394 15.617ZM89.4584 15.202L89.9226 15.0163C89.9172 15.0026 89.9182 14.9937 89.9189 14.991C89.9192 14.9898 89.9196 14.9883 89.9211 14.9861C89.9225 14.9839 89.9266 14.9781 89.9368 14.9699L89.6244 14.5795L89.3121 14.1891C88.9172 14.5049 88.8369 14.9945 88.9942 15.3877L89.4584 15.202ZM89.6244 14.5795L89.9993 14.9103C90.2561 14.6193 90.718 14.2794 91.2547 13.9938C91.791 13.7084 92.3425 13.509 92.7574 13.4571L92.6954 12.961L92.6334 12.4649C92.0523 12.5375 91.3796 12.7946 90.785 13.111C90.1908 13.4272 89.6152 13.8342 89.2495 14.2487L89.6244 14.5795ZM92.6954 12.961L92.919 13.4082C92.8733 13.4311 92.8369 13.4386 92.8237 13.441C92.8084 13.4438 92.8001 13.4439 92.8021 13.4439C92.8068 13.4437 92.8248 13.4439 92.8581 13.4476C92.9235 13.4548 93.0045 13.4707 93.0721 13.4876L93.1934 13.0025L93.3147 12.5174C93.2163 12.4928 93.0898 12.4672 92.9685 12.4537C92.9083 12.447 92.8382 12.442 92.7677 12.4444C92.7121 12.4464 92.5919 12.4538 92.4718 12.5138L92.6954 12.961ZM93.1934 13.0025L93.0178 13.4707C93.0939 13.4992 93.1086 13.5248 93.1143 13.5346C93.1263 13.5552 93.1499 13.613 93.1499 13.7495H93.6499H94.1499C94.1499 13.5125 94.1112 13.259 93.978 13.0307C93.8385 12.7915 93.6249 12.6303 93.369 12.5343L93.1934 13.0025ZM93.6499 13.7495L93.1501 13.7339C93.1096 15.0298 93.0254 16.0669 93.0254 17.4015H93.5254H94.0254C94.0254 16.0801 94.1072 15.1252 94.1497 13.7651L93.6499 13.7495ZM93.5254 17.4015H93.0254V28.1085H93.5254H94.0254V17.4015H93.5254ZM93.5254 28.1085H93.0254C93.0254 28.7016 93.0188 29.3943 93.2278 29.9579C93.3385 30.2565 93.5143 30.5368 93.7913 30.7578C94.0668 30.9777 94.4111 31.1139 94.82 31.1759L94.8949 30.6815L94.9698 30.1872C94.6939 30.1454 94.5247 30.0637 94.415 29.9762C94.3068 29.8899 94.2259 29.7734 94.1654 29.6102C94.032 29.2505 94.0254 28.7604 94.0254 28.1085H93.5254ZM110.099 29.727L109.821 30.143L109.831 30.1496L109.842 30.1558L110.099 29.727ZM110.265 30.308L109.865 30.0079L109.857 30.019L110.265 30.308ZM105.285 30.5155L105.777 30.4261L105.775 30.4174L105.285 30.5155ZM104.745 30.4325L105.133 30.7483L105.148 30.7298L105.161 30.7099L104.745 30.4325ZM104.87 24.2075V23.7075L104.866 23.7075L104.87 24.2075ZM100.554 18.9785L101.018 18.7928L101.015 18.7862L100.554 18.9785ZM108.148 30.2665L108.292 29.7876L108.273 29.7818L108.253 29.7776L108.148 30.2665ZM109.352 29.81L108.998 29.4565L109.352 29.81ZM105.16 26.822H105.66V25.577H105.16H104.66V26.822H105.16ZM105.16 25.577H105.66C105.66 25.4057 105.602 25.2082 105.446 25.0523C105.287 24.8925 105.076 24.828 104.87 24.828V25.328V25.828C104.871 25.828 104.806 25.8257 104.739 25.7594C104.677 25.6968 104.66 25.6238 104.66 25.577H105.16ZM104.87 25.328V24.828C103.485 24.828 102.111 24.8334 101.088 25.1574C100.563 25.3237 100.085 25.5861 99.7418 26.0121C99.3936 26.444 99.2238 26.9928 99.2238 27.652H99.7238H100.224C100.224 27.1699 100.345 26.8577 100.52 26.6398C100.701 26.4161 100.981 26.2402 101.39 26.1107C102.234 25.8434 103.433 25.828 104.87 25.828V25.328ZM99.7238 27.652H99.2238C99.2238 28.2592 99.2366 29.0844 99.5792 29.7568C99.7585 30.1088 100.029 30.4232 100.425 30.6447C100.817 30.8636 101.301 30.974 101.882 30.974V30.474V29.974C101.425 29.974 101.12 29.8873 100.913 29.7716C100.71 29.6585 100.571 29.5008 100.47 29.3029C100.253 28.8756 100.224 28.2899 100.224 27.652H99.7238ZM101.882 30.474V30.974C102.949 30.974 103.897 30.3571 104.556 29.578C105.217 28.7982 105.66 27.7746 105.66 26.822H105.16H104.66C104.66 27.4879 104.336 28.2903 103.793 28.9319C103.249 29.5742 102.557 29.974 101.882 29.974V30.474ZM110.099 29.727L109.842 30.1558C109.826 30.1465 109.826 30.14 109.826 30.1393C109.825 30.1367 109.822 30.1248 109.824 30.1034C109.827 30.0811 109.837 30.0452 109.865 30.008L110.265 30.308L110.665 30.608C110.846 30.3665 110.848 30.0786 110.787 29.8646C110.725 29.646 110.579 29.4321 110.356 29.2983L110.099 29.727ZM110.265 30.308L109.857 30.019C109.526 30.4856 109.028 31.0512 108.474 31.4946C107.905 31.9498 107.353 32.215 106.903 32.215V32.715V33.215C107.698 33.215 108.475 32.7748 109.099 32.2754C109.738 31.7643 110.298 31.1265 110.673 30.597L110.265 30.308ZM106.903 32.715V32.215C106.634 32.215 106.407 32.0618 106.199 31.7057C105.989 31.3447 105.856 30.8622 105.777 30.4261L105.285 30.5155L104.793 30.605C104.88 31.0818 105.038 31.699 105.335 32.2096C105.636 32.7249 106.135 33.215 106.903 33.215V32.715ZM105.285 30.5155L105.775 30.4174C105.708 30.0835 105.435 29.8777 105.178 29.8164C104.885 29.7468 104.539 29.8401 104.329 30.1552L104.745 30.4325L105.161 30.7099C105.147 30.7314 105.115 30.7627 105.065 30.781C105.019 30.7979 104.976 30.7965 104.946 30.7892C104.917 30.7823 104.89 30.7683 104.865 30.7453C104.84 30.7221 104.808 30.6791 104.795 30.6136L105.285 30.5155ZM104.745 30.4325L104.358 30.1167C103.48 31.1938 102.197 32.215 100.637 32.215V32.715V33.215C102.646 33.215 104.185 31.9122 105.133 30.7483L104.745 30.4325ZM100.637 32.715V32.215C99.6812 32.215 99.0444 31.6552 98.62 30.8524C98.1888 30.0369 98.0243 29.042 98.0243 28.399H97.5243H97.0243C97.0243 29.167 97.2126 30.3301 97.7359 31.3198C98.266 32.3224 99.1854 33.215 100.637 33.215V32.715ZM97.5243 28.399H98.0243C98.0243 27.5587 98.1439 26.9423 98.3687 26.4807C98.5875 26.0317 98.9215 25.6967 99.4186 25.4404C99.9283 25.1777 100.614 24.9958 101.527 24.8799C102.436 24.7644 103.541 24.7178 104.874 24.7075L104.87 24.2075L104.866 23.7075C103.522 23.7179 102.37 23.7648 101.401 23.8879C100.434 24.0106 99.6179 24.2126 98.9604 24.5516C98.2903 24.8971 97.7917 25.3817 97.4697 26.0428C97.1538 26.6913 97.0243 27.4755 97.0243 28.399H97.5243ZM104.87 24.2075V24.7075C105.076 24.7075 105.3 24.6421 105.465 24.459C105.621 24.2853 105.66 24.0762 105.66 23.917H105.16H104.66C104.66 23.917 104.66 23.9163 104.66 23.9149C104.66 23.9135 104.661 23.9113 104.661 23.9085C104.662 23.9029 104.664 23.8939 104.667 23.8823C104.675 23.8585 104.69 23.8242 104.721 23.79C104.793 23.7106 104.871 23.7075 104.87 23.7075V24.2075ZM105.16 23.917H105.66V18.854H105.16H104.66V23.917H105.16ZM105.16 18.854H105.66C105.66 18.1761 105.644 17.1091 105.282 16.2043C105.097 15.7425 104.813 15.2977 104.374 14.9694C103.93 14.6375 103.365 14.453 102.67 14.453V14.953V15.453C103.179 15.453 103.527 15.5849 103.776 15.7705C104.029 15.9597 104.217 16.2334 104.354 16.5756C104.635 17.2789 104.66 18.1624 104.66 18.854H105.16ZM102.67 14.953V14.453C101.734 14.453 100.857 15.108 100.343 15.9606C99.8169 16.8342 99.6076 18.0075 100.092 19.1708L100.554 18.9785L101.015 18.7862C100.67 17.9575 100.813 17.1181 101.2 16.4769C101.599 15.8147 102.196 15.453 102.67 15.453V14.953ZM100.554 18.9785L100.09 19.1642C100.065 19.1018 100.093 19.0847 100.066 19.1493C100.042 19.2071 99.9879 19.2905 99.8979 19.3787C99.7131 19.5597 99.459 19.682 99.2258 19.682V20.182V20.682C99.7811 20.682 100.274 20.41 100.598 20.0931C100.762 19.9323 100.903 19.7407 100.989 19.5339C101.072 19.334 101.126 19.0627 101.018 18.7928L100.554 18.9785ZM99.2258 20.182V19.682C98.9048 19.682 98.7087 19.5578 98.5797 19.3899C98.4381 19.2054 98.3563 18.936 98.3563 18.6465H97.8563H97.3563C97.3563 19.104 97.4821 19.6024 97.7866 19.9989C98.1037 20.412 98.5923 20.682 99.2258 20.682V20.182ZM97.8563 18.6465H98.3563C98.3563 17.9298 98.6707 17.2495 99.2094 16.5857C99.7498 15.9199 100.487 15.3067 101.265 14.733L100.969 14.3305L100.672 13.928C99.8737 14.5164 99.0546 15.1896 98.433 15.9555C97.8097 16.7235 97.3563 17.6203 97.3563 18.6465H97.8563ZM100.969 14.3305L101.265 14.733C101.683 14.4255 102.07 14.1127 102.509 13.862C102.936 13.6175 103.368 13.461 103.832 13.461V12.961V12.461C103.134 12.461 102.529 12.6987 102.012 12.9938C101.507 13.2825 101.043 13.6546 100.672 13.928L100.969 14.3305ZM103.832 12.961V13.461C105.011 13.461 105.743 14.0505 106.206 14.8507C106.683 15.6759 106.86 16.7128 106.86 17.4845H107.36H107.86C107.86 16.5962 107.663 15.3714 107.072 14.3498C106.466 13.3033 105.434 12.461 103.832 12.461V12.961ZM107.36 17.4845H106.86V27.9425H107.36H107.86V17.4845H107.36ZM107.36 27.9425H106.86C106.86 28.6595 106.911 29.2735 107.06 29.7393C107.212 30.2137 107.505 30.64 108.044 30.7554L108.148 30.2665L108.253 29.7776C108.211 29.7685 108.11 29.7383 108.012 29.4346C107.912 29.1223 107.86 28.6365 107.86 27.9425H107.36ZM108.148 30.2665L108.005 30.7454C108.681 30.9484 109.239 30.6304 109.705 30.1636L109.352 29.81L108.998 29.4565C108.635 29.8197 108.445 29.8336 108.292 29.7876L108.148 30.2665ZM109.352 29.81L109.705 30.1636C109.738 30.1311 109.762 30.1258 109.769 30.1249C109.774 30.1243 109.779 30.1244 109.786 30.1261C109.793 30.1278 109.805 30.132 109.821 30.143L110.099 29.727L110.376 29.311C109.914 29.003 109.362 29.0932 108.998 29.4565L109.352 29.81Z" fill="black"/>
</svg>
